<svg width="60" height="60" viewBox="0 0 60 60" fill="none" xmlns="http://www.w3.org/2000/svg">
<circle cx="30" cy="30" r="30" fill="url(#paint0_linear_429_792)"/>
<g clip-path="url(#clip0_429_792)">
<path d="M30.0015 44L25.5595 39.558L27.5402 37.5773V29.1796H25.4188L23.4381 31.1603L18.9961 26.7183L23.4381 22.2763L25.4188 24.257H27.5402V22.4227L25.5595 20.442L30.0015 16L34.4435 20.442L32.4628 22.4227V24.257H34.5843L36.565 22.2763L41.0069 26.7183L36.565 31.1603L34.5843 29.1796H32.4628V37.5773L34.4435 39.558L30.0015 44ZM27.88 39.558L30.0015 41.6795L32.123 39.558L30.822 38.257V27.5387H35.2639L36.565 28.8397L38.6864 26.7183L36.565 24.5968L35.2639 25.8978H30.822V21.743L32.123 20.442L30.0015 18.3205L27.88 20.442L29.1811 21.743V25.8978H24.7391L23.4381 24.5968L21.3166 26.7183L23.4381 28.8397L24.7391 27.5387H29.1811V38.257L27.88 39.558Z" fill="white"/>
</g>
<defs>
<linearGradient id="paint0_linear_429_792" x1="1.23288" y1="30" x2="60" y2="30" gradientUnits="userSpaceOnUse">
<stop stop-color="#4566C5"/>
<stop offset="1" stop-color="#869CDD"/>
</linearGradient>
<clipPath id="clip0_429_792">
<rect width="28" height="28" fill="white" transform="translate(16 16)"/>
</clipPath>
</defs>
</svg>
