<svg width="46" height="46" viewBox="0 0 46 46" xmlns="http://www.w3.org/2000/svg">
<path d="M40.9353 7.70338V6.21368C40.9353 2.7874 38.1517 0 34.73 0H11.2545C7.83294 0 5.04922 2.7874 5.04922 6.21368V7.7068C2.16685 8.3021 0 10.7569 0 13.6873V16.5074C0 17.2516 0.603391 17.855 1.34766 17.855H5.04922V38.6186C5.04922 39.2644 5.50374 39.8034 6.11009 39.935V44.6523C6.11009 45.3966 6.71348 46 7.45775 46H14.5809C15.3252 46 15.9286 45.3966 15.9286 44.6523V39.9663H30.056V44.6523C30.056 45.3966 30.6594 46 31.4036 46H38.5267C39.271 46 39.8744 45.3966 39.8744 44.6523V39.935C40.4807 39.8035 40.9353 39.2644 40.9353 38.6186V17.855H44.6523C45.3966 17.855 46 17.2516 46 16.5074V13.6873C46 10.7516 43.8255 8.29303 40.9353 7.70338ZM7.74453 37.271V29.1975H38.24V37.271H7.74453ZM38.24 26.5022H35.4143C34.7926 23.4034 32.0508 21.0616 28.7717 21.0616C25.4925 21.0616 22.7507 23.4033 22.129 26.5022H7.74453V9.09282H38.24V26.5022ZM32.6264 26.5022H24.917C25.4712 24.9062 26.9893 23.7569 28.7717 23.7569C30.5541 23.757 32.0721 24.9062 32.6264 26.5022ZM11.2545 2.69531H34.73C36.6654 2.69531 38.2399 4.2736 38.2399 6.21368V6.39759H7.74453V6.21368C7.74453 4.2736 9.31913 2.69531 11.2545 2.69531ZM2.69531 15.1597V13.6873C2.69531 12.2403 3.67263 11.001 5.04922 10.5005V15.1597H2.69531ZM13.2333 43.3047H8.80541V39.9663H13.2333V43.3047ZM32.7513 43.3047V39.9663H37.1791V43.3047H32.7513ZM43.3047 15.1597H40.9353V10.4948C42.32 10.9917 43.3047 12.2349 43.3047 13.6873V15.1597Z"/>
<path d="M35.5133 32.8941C35.3981 32.3446 34.9507 31.9053 34.3902 31.8246C33.8329 31.7444 33.2687 32.0243 33.0039 32.5231C32.7392 33.0215 32.8162 33.6426 33.1935 34.0622C33.5696 34.4805 34.1891 34.6173 34.7074 34.4017C35.2903 34.1591 35.6425 33.5168 35.5133 32.8941Z"/>
<path d="M13.1431 32.8945C13.0253 32.3324 12.5612 31.8901 11.9869 31.8206C11.4146 31.7514 10.8516 32.0621 10.604 32.582C10.3601 33.0943 10.474 33.7246 10.8793 34.1211C11.2471 34.481 11.8085 34.6024 12.2909 34.4204C12.899 34.1911 13.2763 33.5365 13.1431 32.8945Z"/>
</svg>
