<?xml version="1.0" encoding="utf-8"?>
<!-- Generator: Adobe Illustrator 26.0.2, SVG Export Plug-In . SVG Version: 6.00 Build 0)  -->
<svg version="1.1" id="Layer_1" xmlns="http://www.w3.org/2000/svg" xmlns:xlink="http://www.w3.org/1999/xlink" x="0px" y="0px" viewBox="0 0 12 12" style="enable-background:new 0 0 12 12;" xml:space="preserve">
<path d="M6,0C2.7,0,0,2.5,0,5.5c0,1.4,0.6,2.7,1.5,3.7L1.1,12l3.2-1.2C4.8,10.9,5.4,11,6,11c3.3,0,6-2.5,6-5.5S9.3,0,6,0z M6.7,3.1
	L6.5,6.4H5.8L5.6,3.1H6.7z M6.6,8C6.5,8.1,6.3,8.2,6.2,8.2C6,8.2,5.9,8.1,5.7,8C5.6,7.9,5.6,7.8,5.6,7.6c0-0.2,0.1-0.3,0.2-0.4
	C5.9,7.1,6,7.1,6.2,7.1c0.2,0,0.3,0.1,0.4,0.2c0.1,0.1,0.2,0.2,0.2,0.4C6.7,7.8,6.7,7.9,6.6,8z"/>
</svg>
