<svg width="28" height="28" viewBox="0 0 28 28" xmlns="http://www.w3.org/2000/svg">
<path d="M13.9987 6.00049C10.3228 6.00049 7.33203 8.96205 7.33203 12.6021C7.33203 14.0425 7.79152 15.4113 8.66195 16.5596L13.5878 23.129C13.6001 23.145 13.6189 23.151 13.6325 23.1653C13.8787 23.4263 14.2339 23.3606 14.4093 23.129C15.8278 21.2549 18.4278 17.7547 19.4274 16.4343C19.4274 16.4343 19.4278 16.4333 19.4281 16.4327L19.4343 16.4245C20.2397 15.304 20.6654 13.9823 20.6654 12.6021C20.6654 8.96205 17.6746 6.00049 13.9987 6.00049ZM13.9987 16.1635C12.0196 16.1635 10.4021 14.5619 10.4021 12.6021C10.4021 10.6422 12.0196 9.04059 13.9987 9.04059C15.9778 9.04059 17.5953 10.6422 17.5953 12.6021C17.5953 14.5619 15.9778 16.1635 13.9987 16.1635Z"/>
</svg>
