<svg width="46" height="46" viewBox="0 0 46 46" xmlns="http://www.w3.org/2000/svg">
<path d="M23.0005 5.64502C10.2979 5.64502 0 16.0407 0 28.8646C0 35.818 3.0008 40.3529 3.0008 40.3529L42.9905 40.3548C42.9905 40.3548 46 35.3987 46 28.8641C46 16.0407 35.7021 5.64502 23.0005 5.64502ZM41.3036 37.5261L4.77014 37.5102C4.77014 37.5102 2.82343 33.8236 2.82343 28.7913C2.82343 17.5517 11.8914 8.4395 23.0776 8.4395C34.2633 8.4395 43.3318 17.5512 43.3318 28.7913C43.3322 33.8805 41.3036 37.5261 41.3036 37.5261Z"/>
<path d="M29.5002 11.8107L29.2115 11.8102L23.0764 23.832L16.7206 11.7075L8.01844 33.6108H5.76953V35.37H18.0899V33.6108H15.6453L18.0899 26.7653L23.0764 35.37L27.8678 26.7653L30.3119 33.6108H27.8678V35.37H40.0898V33.6108H37.9724L29.5002 11.8107Z"/>
</svg>
