<svg width="28" height="28" viewBox="0 0 28 28" xmlns="http://www.w3.org/2000/svg">
<path d="M18.656 16.7442C17.8782 16.0208 17.0888 15.5827 16.3205 16.3049L15.8618 16.7415C15.5261 17.0584 14.9021 18.539 12.4892 15.5209C10.0769 12.5067 11.5124 12.0374 11.8486 11.7233L12.3098 11.2862C13.0741 10.5623 12.7857 9.65096 12.2345 8.71288L11.9018 8.14468C11.3481 7.20878 10.7452 6.59414 9.9789 7.31696L9.56486 7.71033C9.2262 7.97859 8.27956 8.85056 8.04993 10.5071C7.77357 12.4947 8.64535 14.7708 10.6427 17.2682C12.6374 19.7666 14.5905 21.0216 16.4406 20.9997C17.9782 20.9817 18.9067 20.0846 19.1971 19.7584L19.6127 19.3645C20.3769 18.6422 19.9021 17.9068 19.1238 17.1818L18.656 16.7442Z"/>
</svg>
