<svg width="46" height="46" viewBox="0 0 46 46" fill="none" xmlns="http://www.w3.org/2000/svg">
<path d="M37.814 25.6248C37.0844 19.5398 31.6854 15.5175 29.7376 14.2513V10.9609H32.4329V8.26562H29.6001C29.0636 5.65432 27.028 3.55781 24.3469 3.01372V0H21.6516V3.01372C18.973 3.55736 16.9354 5.65207 16.3985 8.26562H13.5657V10.9609H16.261V14.2513C14.3132 15.5175 8.91411 19.5398 8.18458 25.6248C7.81793 28.6837 9.12938 32.9732 12.0825 38.3742C13.4006 40.785 15.0114 43.3718 16.9239 46H29.0747C30.9836 43.3767 32.5948 40.7908 33.9161 38.3742C36.8692 32.9732 38.1806 28.6836 37.814 25.6248ZM35.1377 25.9455C35.3281 27.5337 34.8593 29.5711 34.0534 31.7197C33.0521 30.971 32.4329 29.7816 32.4329 28.4805C32.4329 26.8211 33.4442 25.3679 34.9101 24.7517C35.0109 25.1393 35.0887 25.5371 35.1377 25.9455ZM20.9778 6.11198C22.2247 5.39215 23.7739 5.39206 25.0208 6.11198C25.8645 6.5992 26.4909 7.37141 26.8084 8.26571H19.1902C19.5078 7.37141 20.1341 6.59911 20.9778 6.11198ZM11.9452 31.7198C11.1393 29.5712 10.6705 27.5338 10.8608 25.9456C10.9098 25.5375 10.9878 25.1396 11.0891 24.752C12.5548 25.3684 13.5657 26.8214 13.5657 28.4805C13.5657 29.7817 12.9465 30.9711 11.9452 31.7198ZM27.697 43.3047H18.3015C16.9 41.3107 14.6744 37.8037 13.014 34.245C15.0008 33.0433 16.261 30.8758 16.261 28.4805C16.261 25.71 14.5678 23.2843 12.1151 22.2602C14.245 18.4931 18.2182 16.2075 18.2686 16.179L18.9563 15.7927V10.9609H27.0422V15.7926L27.73 16.1789C27.7817 16.2079 31.7588 18.4807 33.8876 22.2585C31.4326 23.2816 29.7376 25.7084 29.7376 28.4805C29.7376 30.8758 30.9978 33.0433 32.9845 34.245C31.3242 37.8037 29.0985 41.3108 27.697 43.3047Z" fill="black"/>
<path d="M24.3477 21.7422H21.6523V24.4375H18.957V27.1328H21.6523V35.2188H24.3477V27.1328H27.043V24.4375H24.3477V21.7422Z" fill="black"/>
</svg>
