<svg width="46" height="46" viewBox="0 0 46 46" fill="none" xmlns="http://www.w3.org/2000/svg">
<path d="M15.954 20.8666L22.0128 6.72789L21.2092 6.08758C19.3868 4.63525 16.3478 2.90405 12.2188 2.90405C5.02981 2.90405 0 9.37119 0 16.8298C0 25.7577 7.08589 34.652 19.9524 41.8746L21.2925 42.6269L26.7564 28.9684L15.954 20.8666ZM19.9376 38.757C14.2192 35.3866 9.8307 31.7144 6.87987 27.8279C4.10316 24.1707 2.69531 20.4705 2.69531 16.8298C2.69531 10.5324 6.87853 5.59937 12.2188 5.59937C14.5739 5.59937 16.7529 6.26915 18.7099 7.59255L12.6423 21.752L23.4867 29.8853L19.9376 38.757Z" fill="black"/>
<path d="M33.7796 2.90405C30.8791 2.90405 28.1789 3.73637 25.754 5.37781L25.4266 5.59946L19.263 19.9805L30.0232 28.0507L24.0057 43.0964L27.4075 41.0915C33.644 37.4162 38.4113 33.3602 41.577 29.0363C44.5107 25.0292 45.9983 20.9224 45.9983 16.8298C45.9983 9.35546 40.955 2.90405 33.7796 2.90405ZM29.5194 36.5688L33.2929 27.1337L22.5749 19.0952L27.5881 7.39831C29.4744 6.20428 31.5553 5.59946 33.7796 5.59946C39.1198 5.59946 43.303 10.5325 43.303 16.8299C43.303 23.5852 38.4434 30.5021 29.5194 36.5688Z" fill="black"/>
</svg>
