<svg width="46" height="46" viewBox="0 0 46 46" fill="none" xmlns="http://www.w3.org/2000/svg">
<g clip-path="url(#clip0_576_12406)">
<path d="M37.8248 43.3044C37.8248 40.025 37.8248 16.017 37.8248 10.9571C37.1725 10.9571 33.0901 10.9571 32.4336 10.9571V10.7253C34.0023 10.1689 35.1292 8.67078 35.1292 6.91369C35.1292 6.33899 34.966 5.33029 33.5547 3.21505C32.6951 1.92655 32.0223 1.14635 31.0857 0C30.1496 1.1459 29.4764 1.92655 28.6167 3.21505C27.2055 5.33029 27.0423 6.33899 27.0423 6.91369C27.0423 8.67078 28.1692 10.1689 29.7379 10.7253V10.9571C29.0857 10.9571 25.0033 10.9571 24.3467 10.9571V43.3044H21.6511C21.6511 42.4016 21.6511 22.7565 21.6511 21.7395H16.2599V21.5077C17.8287 20.9513 18.9555 19.4532 18.9555 17.6961C18.9555 17.141 18.7969 16.1296 17.4258 13.7659C16.5643 12.2808 15.8873 11.3464 14.9121 9.9334C13.9368 11.3464 13.26 12.2808 12.3984 13.7659C11.0272 16.1296 10.8687 17.141 10.8687 17.6961C10.8687 19.4532 11.9955 20.9513 13.5643 21.5077V21.7395H8.17308V43.3044H2.78187V46H43.216V43.3044H37.8248ZM14.9124 14.8028C15.6882 16.1096 16.2484 17.2836 16.2599 17.6971C16.2593 18.4398 15.6549 19.0438 14.9121 19.0438C14.1689 19.0438 13.5643 18.4392 13.5643 17.6976C13.5753 17.2856 14.1359 16.111 14.9124 14.8028ZM10.8687 24.4351H18.9555V27.1307H17.6077C15.3782 27.1307 13.5643 28.9446 13.5643 31.1742V33.8698C13.5643 34.6129 12.9597 35.2176 12.2165 35.2176H10.8687V24.4351ZM10.8687 43.3044V37.9132H12.2165C14.446 37.9132 16.2599 36.0993 16.2599 33.8698V31.1742C16.2599 30.431 16.8645 29.8264 17.6077 29.8264H18.9555V43.3044H10.8687ZM31.0862 4.37371C31.8515 5.48304 32.4199 6.52651 32.4336 6.91495C32.4328 7.65759 31.8286 8.2615 31.0857 8.2615C30.3426 8.2615 29.7379 7.65687 29.7379 6.91567C29.7508 6.52912 30.32 5.48475 31.0862 4.37371ZM27.0423 13.6527H35.1292V24.4351H33.7814C33.0382 24.4351 32.4336 23.8305 32.4336 23.0873V20.3917C32.4336 18.1622 30.6197 16.3483 28.3901 16.3483H27.0423V13.6527ZM27.0423 43.3044V19.0439H28.3901C29.1333 19.0439 29.7379 19.6486 29.7379 20.3917V23.0873C29.7379 25.3169 31.5518 27.1307 33.7814 27.1307H35.1292V43.3044H27.0423Z" fill="black"/>
</g>
<defs>
<clipPath id="clip0_576_12406">
<rect width="46" height="46" fill="white"/>
</clipPath>
</defs>
</svg>
