<svg width="46" height="46" viewBox="0 0 46 46" fill="none" xmlns="http://www.w3.org/2000/svg">
<path d="M31.8485 0H14.1506L5.37677 14.623L13.8826 46H32.1164L40.6223 14.623L31.8485 0ZM30.0545 43.3047H15.9446L8.27854 15.0255L15.6766 2.69531H30.3225L37.7206 15.0255L30.0545 43.3047Z" fill="black"/>
<path d="M28.7949 5.39062H17.2008L11.1818 15.4242L17.9985 40.6094H27.9972L34.8139 15.4242L28.7949 5.39062ZM25.9344 37.9141H20.0613L14.0831 15.8271L18.7269 8.08594H27.2686L31.9125 15.8271L25.9344 37.9141Z" fill="black"/>
<path d="M24.3477 10.7812H21.6524V13.4766H18.9571V16.1719H21.6524V24.2578H24.3477V16.1719H27.043V13.4766H24.3477V10.7812Z" fill="black"/>
</svg>
