<svg width="46" height="46" viewBox="0 0 46 46" fill="none" xmlns="http://www.w3.org/2000/svg">
<path d="M40.5195 18.957H35.1289V8.08594H37.8242V5.39062H35.1289H34.9933C34.3672 2.31869 31.6448 0 28.3906 0H17.6094C14.3553 0 11.6328 2.31869 11.0067 5.39062H10.8711H8.17578V8.08594H10.8711V18.957H5.48047V43.3047H0V46H46V43.3047H40.5195V18.957ZM17.6094 2.69531H28.3906C30.1477 2.69531 31.6465 3.82186 32.2027 5.39062H13.7973C14.3535 3.82186 15.8524 2.69531 17.6094 2.69531ZM13.5664 8.08594H32.4336V18.957H13.5664V8.08594ZM21.4382 31.8156C21.6306 31.3541 21.7867 30.8863 21.9062 30.414C23.1432 31.9981 23.8139 33.9369 23.8139 35.9788V39.2324L26.1144 36.9317C26.578 36.4681 26.9881 35.9515 27.3359 35.3961C27.8481 36.2033 28.1264 37.1463 28.1264 38.1351C28.1264 41.0755 25.7516 43.1794 23.0593 43.1794C20.184 43.1794 17.8688 40.8187 17.9272 37.9288C18.07 36.939 18.5799 35.9425 19.4433 34.9659C20.2991 33.9979 20.9704 32.9379 21.4382 31.8156ZM28.8637 43.3047C28.899 43.266 28.9344 43.2271 28.969 43.1876L28.9859 43.168C30.1698 41.7625 30.8218 39.9751 30.8218 38.1351C30.8218 35.7012 29.7176 33.4488 27.7924 31.9557L26.271 30.7757L25.8517 32.0833C25.2762 30.4392 24.3333 28.9322 23.0651 27.6641L19.5016 24.1004L19.5014 28.0974C19.5014 28.9994 19.316 29.9015 18.9505 30.7785C18.5968 31.6267 18.0833 32.4349 17.4239 33.1806C16.1783 34.5895 15.4454 36.0925 15.2452 37.6478L15.2371 37.7116L15.235 37.7761C15.1682 39.8371 15.8891 41.7894 17.2663 43.3046H8.17578V21.6523H10.8711H13.5664H32.4336H35.1289H37.8242V43.3047H28.8637Z" fill="black"/>
<path d="M16.2617 10.7812H29.7382V13.4766H16.2617V10.7812Z" fill="black"/>
<path d="M46 6.82812C46 4.59883 44.1863 2.78516 41.957 2.78516H40.6094V5.48047H41.957C42.7001 5.48047 43.3047 6.08503 43.3047 6.82812C43.3047 7.57122 42.7001 8.17578 41.957 8.17578H40.6094V10.8711H41.957C44.1863 10.8711 46 9.05742 46 6.82812Z" fill="black"/>
<path d="M4.04297 10.8711H5.39062V8.17578H4.04297C3.29987 8.17578 2.69531 7.57122 2.69531 6.82812C2.69531 6.08503 3.29987 5.48047 4.04297 5.48047H5.39062V2.78516H4.04297C1.81368 2.78516 0 4.59883 0 6.82812C0 9.05742 1.81368 10.8711 4.04297 10.8711Z" fill="black"/>
</svg>
