<svg width="46" height="46" viewBox="0 0 46 46" fill="none" xmlns="http://www.w3.org/2000/svg">
<path d="M40.6094 32.5234H35.2188V27.1328H29.7383C29.7383 26.2886 29.7383 7.3998 29.7383 6.73828C29.7383 3.02279 26.7155 0 23 0C19.2845 0 16.2617 3.02279 16.2617 6.73828V27.1328H10.7812V32.5234H5.39062V37.9141H0V46H46V37.9141H40.6094V32.5234ZM27.043 21.5625H24.3477V13.4766H27.043V21.5625ZM27.043 6.73828V10.7812H24.3477V2.92711C25.9162 3.48342 27.043 4.98139 27.043 6.73828ZM21.6523 2.92711V10.7812H18.957V6.73828C18.957 4.98139 20.0838 3.48342 21.6523 2.92711ZM18.957 13.4766H21.6523V21.5625H18.957V13.4766ZM18.957 24.2578H27.043V27.1328H18.957V24.2578ZM13.4766 29.8281H32.5234V32.5234H13.4766V29.8281ZM8.08594 35.2188H37.9141V37.9141H8.08594V35.2188ZM43.3047 43.3047H2.69531V40.6094H43.3047V43.3047Z" fill="black"/>
<path d="M4.04297 18.8672H9.43359C11.6629 18.8672 13.4766 17.0535 13.4766 14.8242C13.4766 13.003 12.2662 11.4591 10.6075 10.955C10.1034 9.29631 8.5595 8.08594 6.73828 8.08594C4.91706 8.08594 3.37318 9.29631 2.86907 10.955C1.21038 11.4591 0 13.003 0 14.8242C0 17.0535 1.81368 18.8672 4.04297 18.8672ZM4.04297 13.4766H5.39062V12.1289C5.39062 11.3858 5.99518 10.7812 6.73828 10.7812C7.48138 10.7812 8.08594 11.3858 8.08594 12.1289V13.4766H9.43359C10.1767 13.4766 10.7812 14.0811 10.7812 14.8242C10.7812 15.5673 10.1767 16.1719 9.43359 16.1719H4.04297C3.29987 16.1719 2.69531 15.5673 2.69531 14.8242C2.69531 14.0811 3.29987 13.4766 4.04297 13.4766Z" fill="black"/>
<path d="M36.5664 16.1719H41.957C44.1863 16.1719 46 14.3582 46 12.1289C46 10.3077 44.7896 8.76381 43.1309 8.2597C42.6268 6.601 41.0829 5.39062 39.2617 5.39062C37.4405 5.39062 35.8966 6.601 35.3925 8.2597C33.7338 8.76381 32.5234 10.3077 32.5234 12.1289C32.5234 14.3582 34.3371 16.1719 36.5664 16.1719ZM36.5664 10.7812H37.9141V9.43359C37.9141 8.6905 38.5186 8.08594 39.2617 8.08594C40.0048 8.08594 40.6094 8.6905 40.6094 9.43359V10.7812H41.957C42.7001 10.7812 43.3047 11.3858 43.3047 12.1289C43.3047 12.872 42.7001 13.4766 41.957 13.4766H36.5664C35.8233 13.4766 35.2188 12.872 35.2188 12.1289C35.2188 11.3858 35.8233 10.7812 36.5664 10.7812Z" fill="black"/>
</svg>
