<svg width="46" height="46" viewBox="0 0 46 46" fill="none" xmlns="http://www.w3.org/2000/svg">
<path d="M39.2617 5.29456C34.5736 5.29456 30.4985 7.9684 28.4805 11.8709C26.4624 7.9684 22.3874 5.29456 17.6992 5.29456H2.875V6.64221C2.875 16.2285 8.855 24.8457 17.9344 28.1691C16.2107 29.071 14.2803 29.5524 12.3086 29.5524H0V40.7051L12.4718 37.6383H23.0898C32.7501 37.6383 40.6094 29.779 40.6094 20.1188V14.7282C40.6094 13.9851 41.2139 13.3805 41.957 13.3805H46V12.0328C46 8.31735 42.9772 5.29456 39.2617 5.29456ZM41.957 10.6852C39.7277 10.6852 37.9141 12.4989 37.9141 14.7282V20.1188C37.9141 28.2928 31.2639 34.943 23.0898 34.943H12.1453L2.69531 37.2668V32.2477H12.3086C15.8311 32.2477 19.2453 30.9907 21.9222 28.7082L23.9751 26.9579L21.3427 26.3678C19.3313 25.9168 17.4417 25.1629 15.7171 24.1618H21.7422V21.4665H12.0814C11.1944 20.6411 10.3823 19.7385 9.65488 18.7712H19.0469V16.0759H7.93841C7.47761 15.2102 7.07861 14.3094 6.74574 13.3806H16.3516V10.6853H5.98665C5.80355 9.803 5.67812 8.90313 5.61604 7.98996H17.6992C22.9009 7.98996 27.1328 12.2219 27.1328 17.4236H29.8281C29.8281 12.2219 34.06 7.98996 39.2617 7.98996C41.0188 7.98996 42.5176 9.11651 43.0738 10.6853H41.957V10.6852Z" fill="black"/>
</svg>
