<svg width="46" height="46" viewBox="0 0 46 46" fill="none" xmlns="http://www.w3.org/2000/svg">
<path d="M19.3513 15.7771L21.2571 13.8713L19.5147 12.1289L21.2571 10.3864L19.3513 8.48068L17.6089 10.223L15.8664 8.48068L13.9607 10.3864L15.703 12.1289L13.9607 13.8713L15.8664 15.7771L17.6089 14.0347L19.3513 15.7771Z" fill="black"/>
<path d="M30.1326 8.48068L28.3901 10.223L26.6477 8.48068L24.7419 10.3864L26.4843 12.1289L24.7419 13.8713L26.6477 15.7771L28.3901 14.0347L30.1326 15.7771L32.0383 13.8713L30.296 12.1289L32.0383 10.3864L30.1326 8.48068Z" fill="black"/>
<path d="M37.8243 14.8242C37.8243 6.65014 31.1741 0 23 0C14.826 0 8.17583 6.65014 8.17583 14.8242V20.2148C8.17583 24.6943 9.15674 28.4276 11.1745 31.6282C12.9171 34.392 15.1388 36.3069 17.099 37.9964C19.7425 40.2746 21.6524 41.9206 21.6524 44.6523V46H24.3477V44.6523C24.3477 41.9206 26.2576 40.2746 28.9011 37.9964C30.8613 36.3068 33.0831 34.392 34.8255 31.6282C36.8433 28.4276 37.8243 24.6943 37.8243 20.2148C37.8243 18.6114 37.8243 16.4612 37.8243 14.8242ZM27.1414 35.9547C25.5669 37.3117 24.0416 38.6271 23 40.2132C21.9585 38.6271 20.4333 37.3117 18.8587 35.9547C15.1146 32.7278 10.8711 29.0705 10.8711 20.2148C10.8711 18.6114 10.8711 16.4612 10.8711 14.8242C10.8711 8.13634 16.3122 2.69531 23 2.69531C29.6879 2.69531 35.1289 8.13634 35.1289 14.8242V20.2148C35.1289 29.0705 30.8854 32.7278 27.1414 35.9547Z" fill="black"/>
<path d="M23 17.5195C19.2845 17.5195 16.2617 20.5423 16.2617 24.2578V28.3008H29.7382V24.2578C29.7382 20.5423 26.7154 17.5195 23 17.5195ZM27.0429 25.6055H18.957V24.2578C18.957 22.0285 20.7707 20.2148 23 20.2148C25.2293 20.2148 27.0429 22.0285 27.0429 24.2578V25.6055Z" fill="black"/>
<path d="M5.39062 30.9961H2.69531C2.69531 32.6994 2.13666 33.8166 1.48997 35.1102C0.791613 36.5069 0 38.0901 0 40.4297C0 43.4021 2.41823 45.8203 5.39062 45.8203C8.36302 45.8203 10.7812 43.4021 10.7812 40.4297C10.7812 37.85 9.13963 36.2084 7.69116 34.76C6.45671 33.5255 5.39062 32.4594 5.39062 30.9961ZM5.39062 43.125C3.90443 43.125 2.69531 41.9159 2.69531 40.4297C2.69531 38.7263 3.25396 37.6091 3.90066 36.3156C4.07477 35.9676 4.25446 35.608 4.42642 35.2281C4.86091 35.7414 5.33259 36.2131 5.7854 36.6659C7.01985 37.9003 8.08594 38.9664 8.08594 40.4297C8.08594 41.9159 6.87682 43.125 5.39062 43.125Z" fill="black"/>
<path d="M44.51 32.4149C43.8633 31.1213 43.3047 30.0041 43.3047 28.3008H40.6094C40.6094 29.7641 39.5433 30.8302 38.3088 32.0647C36.8604 33.5131 35.2188 35.1547 35.2188 37.7344C35.2188 40.7068 37.637 43.125 40.6094 43.125C43.5818 43.125 46 40.7068 46 37.7344C46 35.3948 45.2084 33.8116 44.51 32.4149ZM40.6094 40.4297C39.1232 40.4297 37.9141 39.2206 37.9141 37.7344C37.9141 36.2711 38.9801 35.205 40.2146 33.9705C40.6674 33.5176 41.1391 33.046 41.5736 32.5327C41.7454 32.9126 41.9252 33.2722 42.0993 33.6202C42.746 34.9138 43.3047 36.031 43.3047 37.7344C43.3047 39.2206 42.0956 40.4297 40.6094 40.4297Z" fill="black"/>
</svg>
