<svg width="46" height="46" viewBox="0 0 46 46" fill="none" xmlns="http://www.w3.org/2000/svg">
<path d="M37.8243 37.7344V5.39062H32.2523C31.8748 4.01557 30.9176 2.77348 29.4652 1.80523C27.719 0.641125 25.4231 0 23.0001 0C20.5771 0 18.2811 0.641125 16.5349 1.80523C15.0825 2.77348 14.1253 4.01557 13.7479 5.39062H8.17584V37.7344H2.78522V46H43.2149V37.7344H37.8243ZM10.8712 8.08594H16.2618V6.73828C16.2618 4.54672 19.3476 2.69531 23.0001 2.69531C26.6526 2.69531 29.7383 4.54672 29.7383 6.73828V8.08594H35.129V37.7344H10.8712V8.08594ZM40.5196 43.3047H5.48053V40.4297H8.17584H37.8243H40.5196V43.3047Z" fill="black"/>
<path d="M21.6524 21.5625H24.3477V13.4766H27.043V10.7812H24.3477V8.08594H21.6524V10.7812H18.9571V13.4766H21.6524V21.5625Z" fill="black"/>
<path d="M16.2618 24.2578H29.7383V26.9531H16.2618V24.2578Z" fill="black"/>
<path d="M16.2618 29.6484H29.7383V32.3438H16.2618V29.6484Z" fill="black"/>
</svg>
