<svg width="46" height="46" viewBox="0 0 46 46" fill="none" xmlns="http://www.w3.org/2000/svg">
<g clip-path="url(#clip0_576_12391)">
<path d="M46 27.043C46 23.3275 42.9772 20.3047 39.2617 20.3047H37.2876L31.897 12.2188H3.07158L0 21.4337V31.0859H5.62242C6.17873 32.6545 7.6767 33.7812 9.43359 33.7812C11.1905 33.7812 12.6885 32.6545 13.2448 31.0859H32.7552C33.3115 32.6545 34.8095 33.7812 36.5664 33.7812C38.3233 33.7812 39.8213 32.6545 40.3776 31.0859H46V27.043ZM34.0484 20.3047H27.1328V14.9141H30.4546L34.0484 20.3047ZM19.0469 14.9141H24.4375V20.3047H19.0469V14.9141ZM9.43359 31.0859C8.6905 31.0859 8.08594 30.4814 8.08594 29.7383C8.08594 28.9952 8.6905 28.3906 9.43359 28.3906C10.1767 28.3906 10.7812 28.9952 10.7812 29.7383C10.7812 30.4814 10.1767 31.0859 9.43359 31.0859ZM36.5664 31.0859C35.8233 31.0859 35.2188 30.4814 35.2188 29.7383C35.2188 28.9952 35.8233 28.3906 36.5664 28.3906C37.3095 28.3906 37.9141 28.9952 37.9141 29.7383C37.9141 30.4814 37.3095 31.0859 36.5664 31.0859ZM36.5664 23H39.2617C41.491 23 43.3047 24.8137 43.3047 27.043V28.3906H40.3776C39.8213 26.822 38.3233 25.6953 36.5664 25.6953C34.8095 25.6953 33.3115 26.822 32.7552 28.3906H13.2448C12.6885 26.822 11.1905 25.6953 9.43359 25.6953C7.6767 25.6953 6.17873 26.822 5.62242 28.3906H2.69531V23H12.1289V20.3047H3.21739L5.01427 14.9141H16.3516V23H36.5664Z" fill="black"/>
</g>
<defs>
<clipPath id="clip0_576_12391">
<rect width="46" height="46" fill="white"/>
</clipPath>
</defs>
</svg>
