<svg width="46" height="46" viewBox="0 0 46 46" fill="none" xmlns="http://www.w3.org/2000/svg">
<path d="M40.5196 21.5625H43.2149V13.4766H37.7624C37.0792 5.93175 30.7199 0 23.0001 0C15.2802 0 8.92092 5.93175 8.23774 13.4766H2.78522V21.5625H5.48053V37.9141H2.78522V46H43.2149V37.9141H40.5196C40.5196 36.991 40.5196 22.5148 40.5196 21.5625ZM37.8243 24.2578H35.129V21.5625H37.8243V24.2578ZM32.4337 37.9141H29.7383V24.2578C27.7818 24.2578 18.0159 24.2578 16.2618 24.2578V37.9141H13.5665C13.5665 36.991 13.5665 22.5148 13.5665 21.5625H32.4337V37.9141ZM24.3477 26.9531H27.043V37.9141H24.3477V26.9531ZM21.6524 37.9141H18.9571V26.9531H21.6524V37.9141ZM23.0001 2.69531C29.2324 2.69531 34.382 7.42064 35.0546 13.4766H10.9455C11.6181 7.42064 16.7677 2.69531 23.0001 2.69531ZM5.48053 16.1719H40.5196V18.8672C36.7791 18.8672 11.7368 18.8672 5.48053 18.8672V16.1719ZM8.17584 21.5625H10.8712V24.2578H8.17584V21.5625ZM8.17584 26.9531H10.8712V37.9141H8.17584V26.9531ZM40.5196 43.3047H5.48053V40.6094H40.5196V43.3047ZM37.8243 37.9141H35.129V26.9531H37.8243V37.9141Z" fill="black"/>
</svg>
