<svg width="46" height="46" viewBox="0 0 46 46" fill="none" xmlns="http://www.w3.org/2000/svg">
<path d="M37.8242 2.78516V0H35.1289V2.78516H10.8711V0H8.17578V2.78516H0V46H46V2.78516H37.8242ZM8.17578 5.48047V8.17578H10.8711V5.48047H35.1289V8.17578H37.8242V5.48047H43.3047V10.8711H2.69531V5.48047H8.17578ZM2.69531 43.3047V13.5664H43.3047V43.3047H2.69531Z" fill="black"/>
<path d="M27.0429 18.957H29.7382V21.6523H27.0429V18.957Z" fill="black"/>
<path d="M32.4335 18.957H35.1289V21.6523H32.4335V18.957Z" fill="black"/>
<path d="M37.8242 18.957H40.5195V21.6523H37.8242V18.957Z" fill="black"/>
<path d="M27.0429 24.3477H29.7382V27.043H27.0429V24.3477Z" fill="black"/>
<path d="M32.4335 24.3477H35.1289V27.043H32.4335V24.3477Z" fill="black"/>
<path d="M37.8242 24.3477H40.5195V27.043H37.8242V24.3477Z" fill="black"/>
<path d="M27.0429 29.7383H29.7382V32.4336H27.0429V29.7383Z" fill="black"/>
<path d="M32.4335 29.7383H35.1289V32.4336H32.4335V29.7383Z" fill="black"/>
<path d="M37.8242 29.7383H40.5195V32.4336H37.8242V29.7383Z" fill="black"/>
<path d="M27.0429 35.1289H29.7382V37.8242H27.0429V35.1289Z" fill="black"/>
<path d="M32.4335 35.1289H35.1289V37.8242H32.4335V35.1289Z" fill="black"/>
<path d="M37.8242 35.1289H40.5195V37.8242H37.8242V35.1289Z" fill="black"/>
<path d="M5.48044 40.5195H24.3476V16.2617H5.48044V40.5195ZM8.17575 18.957H21.6523V37.8242H8.17575V18.957Z" fill="black"/>
<path d="M16.2617 21.6523H13.5664V24.3477H10.8711V27.043H13.5664V35.1289H16.2617V27.043H18.957V24.3477H16.2617V21.6523Z" fill="black"/>
</svg>
