<svg width="46" height="46" viewBox="0 0 46 46" fill="none" xmlns="http://www.w3.org/2000/svg">
<path d="M0 1.4375V44.5625H46V1.4375H0ZM43.3047 4.13281V14.9141H40.2877C40.4373 14.4922 40.5195 14.0388 40.5195 13.5664C40.5195 11.3371 38.7059 9.52344 36.4766 9.52344H17.6094C16.0459 9.52344 14.6878 10.4161 14.0155 11.7181C14.074 11.4447 14.1055 11.1616 14.1055 10.8711C14.1055 8.6418 12.2918 6.82812 10.0625 6.82812C7.83321 6.82812 6.01953 8.6418 6.01953 10.8711C6.01953 13.1004 7.83321 14.9141 10.0625 14.9141C11.626 14.9141 12.984 14.0214 13.6563 12.7194C13.5979 12.9928 13.5664 13.2759 13.5664 13.5664C13.5664 14.0388 13.6486 14.4922 13.7982 14.9141H10.0625H2.69531V4.13281H43.3047ZM16.2617 27.043C16.2617 26.2999 16.8663 25.6953 17.6094 25.6953H36.4766C37.2197 25.6953 37.8242 26.2999 37.8242 27.043C37.8242 27.7861 37.2197 28.3906 36.4766 28.3906H17.6094C16.8663 28.3906 16.2617 27.7861 16.2617 27.043ZM36.4766 23H17.6094C16.0459 23 14.6878 23.8927 14.0155 25.1946C14.074 24.9213 14.1055 24.6381 14.1055 24.3477C14.1055 22.1184 12.2918 20.3047 10.0625 20.3047C7.83321 20.3047 6.01953 22.1184 6.01953 24.3477C6.01953 26.577 7.83321 28.3906 10.0625 28.3906C11.626 28.3906 12.984 27.4979 13.6563 26.196C13.5979 26.4693 13.5664 26.7525 13.5664 27.043C13.5664 27.5154 13.6486 27.9688 13.7982 28.3906H10.0625H2.69531V17.6094H43.3047V28.3906H40.2877C40.4373 27.9688 40.5195 27.5154 40.5195 27.043C40.5195 24.8137 38.7059 23 36.4766 23ZM11.4102 24.3477C11.4102 25.0908 10.8056 25.6953 10.0625 25.6953C9.3194 25.6953 8.71484 25.0908 8.71484 24.3477C8.71484 23.6046 9.3194 23 10.0625 23C10.8056 23 11.4102 23.6046 11.4102 24.3477ZM16.2617 13.5664C16.2617 12.8233 16.8663 12.2188 17.6094 12.2188H36.4766C37.2197 12.2188 37.8242 12.8233 37.8242 13.5664C37.8242 14.3095 37.2197 14.9141 36.4766 14.9141H17.6094C16.8663 14.9141 16.2617 14.3095 16.2617 13.5664ZM11.4102 10.8711C11.4102 11.6142 10.8056 12.2188 10.0625 12.2188C9.3194 12.2188 8.71484 11.6142 8.71484 10.8711C8.71484 10.128 9.3194 9.52344 10.0625 9.52344C10.8056 9.52344 11.4102 10.128 11.4102 10.8711ZM17.6094 41.8672C16.8663 41.8672 16.2617 41.2626 16.2617 40.5195C16.2617 39.7764 16.8663 39.1719 17.6094 39.1719H36.4766C37.2197 39.1719 37.8242 39.7764 37.8242 40.5195C37.8242 41.2626 37.2197 41.8672 36.4766 41.8672H17.6094ZM40.2877 41.8672C40.4373 41.4454 40.5195 40.9919 40.5195 40.5195C40.5195 38.2902 38.7059 36.4766 36.4766 36.4766H17.6094C16.0459 36.4766 14.6878 37.3693 14.0155 38.6712C14.074 38.3979 14.1055 38.1147 14.1055 37.8242C14.1055 35.5949 12.2918 33.7812 10.0625 33.7812C7.83321 33.7812 6.01953 35.5949 6.01953 37.8242C6.01953 40.0535 7.83321 41.8672 10.0625 41.8672C11.626 41.8672 12.984 40.9745 13.6563 39.6726C13.5979 39.9459 13.5664 40.2291 13.5664 40.5195C13.5664 40.9919 13.6486 41.4454 13.7982 41.8672H10.0625H2.69531V31.0859H43.3047V41.8672H40.2877ZM11.4102 37.8242C11.4102 38.5673 10.8056 39.1719 10.0625 39.1719C9.3194 39.1719 8.71484 38.5673 8.71484 37.8242C8.71484 37.0811 9.3194 36.4766 10.0625 36.4766C10.8056 36.4766 11.4102 37.0811 11.4102 37.8242Z" fill="black"/>
</svg>
