<svg width="46" height="46" viewBox="0 0 46 46" fill="none" xmlns="http://www.w3.org/2000/svg">
<path d="M5.48041 0V46H40.5195V0H5.48041ZM37.8242 43.3047H8.17572V2.69531H37.8242V43.3047Z" fill="black"/>
<path d="M29.7382 18.957H32.4335V10.8711H35.1288V8.17578H32.4335V5.48047H29.7382V8.17578H27.0429V10.8711H29.7382V18.957Z" fill="black"/>
<path d="M10.871 21.6523H18.957V24.3477H10.871V21.6523Z" fill="black"/>
<path d="M10.871 27.043H35.1288V29.7383H10.871V27.043Z" fill="black"/>
<path d="M10.871 32.4336H35.1288V35.1289H10.871V32.4336Z" fill="black"/>
<path d="M27.0429 37.8242H35.1288V40.5195H27.0429V37.8242Z" fill="black"/>
<path d="M24.3476 5.48047H10.871V18.957H24.3476V5.48047ZM21.6523 16.2617H13.5663V8.17578H21.6523V16.2617Z" fill="black"/>
</svg>
