<svg width="46" height="46" viewBox="0 0 46 46" fill="none" xmlns="http://www.w3.org/2000/svg">
<path d="M2.78519 0V46H43.2149V0H2.78519ZM40.5196 31.7336L28.9485 43.3047H25.1375L40.5196 27.9226V31.7336ZM35.1289 29.5015L26.7164 37.9141H10.8711V8.08594H35.1289V29.5015ZM5.4805 2.69531H40.5196V24.1109L37.8242 26.8062V5.39062H8.17581V40.6094H24.0211L21.3258 43.3047H5.4805V2.69531ZM32.7602 43.3047L35.4555 40.6094H37.8242V38.2406L40.5196 35.5453V43.3047H32.7602Z" fill="black"/>
<path d="M29.7383 28.4805C29.7383 24.765 26.7155 21.7422 23 21.7422C19.2845 21.7422 16.2617 24.765 16.2617 28.4805V32.5234H29.7383V28.4805ZM27.043 29.8281H18.9571V28.4805C18.9571 26.2512 20.7707 24.4375 23 24.4375C25.2293 24.4375 27.043 26.2512 27.043 28.4805V29.8281Z" fill="black"/>
<path d="M27.043 17.6992C27.043 15.4699 25.2293 13.6562 23 13.6562C20.7707 13.6562 18.9571 15.4699 18.9571 17.6992C18.9571 19.9285 20.7707 21.7422 23 21.7422C25.2293 21.7422 27.043 19.9285 27.043 17.6992ZM23 19.0469C22.2569 19.0469 21.6524 18.4423 21.6524 17.6992C21.6524 16.9561 22.2569 16.3516 23 16.3516C23.7431 16.3516 24.3477 16.9561 24.3477 17.6992C24.3477 18.4423 23.7431 19.0469 23 19.0469Z" fill="black"/>
</svg>
