<svg width="46" height="46" viewBox="0 0 46 46" fill="none" xmlns="http://www.w3.org/2000/svg">
<g clip-path="url(#clip0_576_12365)">
<path d="M44.6523 8.26562C40.9369 8.26562 37.9141 11.2884 37.9141 15.0039V19.8363L26.4111 31.3393C25.1384 32.612 24.4375 34.3041 24.4375 36.104V46H37.9141V40.3781C37.9141 40.0182 38.0543 39.6798 38.3088 39.4252L44.0265 33.7076C45.2992 32.4349 46.0001 30.7427 46.0001 28.9429V8.26562H44.6523ZM43.3047 28.9429C43.3047 30.0228 42.8841 31.0381 42.1205 31.8017L36.4029 37.5194C35.6392 38.2831 35.2187 39.2983 35.2187 40.3781V43.3047H27.1327V36.104C27.1327 35.0241 27.5533 34.0087 28.3169 33.2452L37.9141 23.648V27.364C37.9141 27.7239 37.7738 28.0623 37.5193 28.317L30.2228 35.6134L32.1287 37.5193L39.4251 30.2228C40.1888 29.4591 40.6094 28.4439 40.6094 27.364V15.0039C40.6094 13.2469 41.7359 11.7481 43.3047 11.1918V28.9429Z" fill="black"/>
<path d="M8.08594 19.8363V15.0039C8.08594 11.2884 5.06314 8.26562 1.34766 8.26562H0V28.9429C0 30.7427 0.700871 32.4349 1.9736 33.7076L7.69125 39.4252C7.94578 39.6798 8.08603 40.0182 8.08603 40.3781V46H21.5626V36.104C21.5626 34.3041 20.8617 32.612 19.589 31.3393L8.08594 19.8363ZM18.8672 43.3047H10.7812V40.3781C10.7812 39.2982 10.3607 38.283 9.59702 37.5194L3.87936 31.8017C3.11578 31.0381 2.69522 30.0228 2.69522 28.9429V11.1918C4.26398 11.7481 5.39054 13.2468 5.39054 15.0039V27.364C5.39054 28.4439 5.81109 29.4591 6.57477 30.2228L13.8712 37.5193L15.7771 35.6134L8.48071 28.317C8.22618 28.0624 8.08594 27.724 8.08594 27.364V23.648L17.683 33.2452C18.4466 34.0088 18.8672 35.0241 18.8672 36.104V43.3047Z" fill="black"/>
<path d="M18.9571 24.4375H27.043V13.6562H32.4336V5.57031H27.043V0H18.9571V5.57031H13.5664V13.6562H18.9571V24.4375ZM16.2618 10.9609V8.26562H21.6524V2.69531H24.3477V8.26562H29.7383V10.9609H24.3477V21.7422H21.6524V10.9609H16.2618Z" fill="black"/>
</g>
<defs>
<clipPath id="clip0_576_12365">
<rect width="46" height="46" fill="white"/>
</clipPath>
</defs>
</svg>
