<svg width="46" height="46" viewBox="0 0 46 46" fill="none" xmlns="http://www.w3.org/2000/svg">
<g clip-path="url(#clip0_576_12372)">
<path d="M43.9231 21.3022L42.0174 19.3965L38.206 15.585L42.0173 11.7736L36.3003 6.05644L32.4888 9.86782L32.4716 9.85066L32.4885 9.83315L31.527 8.90604C26.7079 4.08687 24.3108 2.30866 22.1171 1.25551C18.8417 -0.316977 15.3441 -0.409867 11.1103 0.963276L8.0958 1.94096L10.8913 3.43377C15.9659 6.14358 20.7978 9.69498 24.934 13.7473L26.7513 15.585L26.7617 15.5749L26.7718 15.5851L2.07391 40.2829L7.79108 46.0001L32.489 21.3022L38.2061 27.0193L42.0176 23.2078L43.9231 21.3022ZM36.3004 9.86791L38.2061 11.7736L36.3004 13.6793L34.3947 11.7736L36.3004 9.86791ZM7.79099 42.1886L5.8853 40.2829L28.6774 17.4907L30.5832 19.3965L7.79099 42.1886ZM38.2061 23.2079L26.7717 11.7736L26.77 11.7753C23.2938 8.37726 19.3503 5.31709 15.1829 2.78165C20.634 2.12441 23.8139 5.19869 28.9413 10.1555L40.1118 21.3022L38.2061 23.2079Z" fill="black"/>
</g>
<defs>
<clipPath id="clip0_576_12372">
<rect width="46" height="46" fill="white"/>
</clipPath>
</defs>
</svg>
