<svg width="46" height="46" viewBox="0 0 46 46" fill="none" xmlns="http://www.w3.org/2000/svg">
<g clip-path="url(#clip0_576_12248)">
<path d="M28.4211 23.9325C31.7383 19.518 33.8861 16.4192 35.0184 13.7987C36.653 10.0155 36.0921 7.14302 33.1427 4.19376C30.4383 1.48936 26.8427 0 23.0182 0C23.0069 0 22.9955 0.000359316 22.9841 0.000359316V0C19.1596 0 15.5639 1.48936 12.8596 4.19376C10.344 6.70933 9.36687 9.1242 10.6157 12.4413C11.6318 15.14 14.099 18.4098 18.0099 23.3807L7.98889 36.2809L11.8765 46L13.3114 44.0272C17 38.9553 20.2716 34.6323 23.0397 31.0021C25.8471 34.6995 29.0869 39.0718 32.6909 44.0272L34.1257 46L38.0133 36.2808L28.4211 23.9325ZM22.5096 27.2559C19.7606 30.8539 16.4127 35.2361 12.569 40.475L11.0647 36.7142L20.7847 24.2016L20.7978 24.1847L28.6734 13.3559C30.267 11.1645 31.0671 8.52217 30.9866 5.85676C31.0711 5.93635 31.1548 6.01693 31.2373 6.0993C35.3233 10.1854 33.4016 12.9991 22.5096 27.2559ZM23.0011 16.5733L19.5084 11.7709C18.9193 10.9608 18.4697 10.0715 18.1666 9.13875C19.6855 8.44752 21.3431 8.08461 23.0169 8.08461C24.6802 8.08461 26.3282 8.44312 27.8396 9.126C27.5364 10.0634 27.0856 10.9571 26.4938 11.7707L23.0011 16.5733ZM27.9892 3.8048C28.026 4.01572 28.3219 4.98946 28.2963 6.39484C26.6198 5.73477 24.8258 5.38974 23.0169 5.38974C21.197 5.38974 19.3929 5.73873 17.708 6.40643C17.6805 4.98749 17.9702 4.0397 18.0084 3.82528C19.5543 3.08599 21.2578 2.69487 23.0182 2.69487C24.7661 2.69487 26.455 3.07817 27.9892 3.8048ZM14.8684 5.99842L14.8845 6.01495C14.9273 5.973 14.9709 5.93213 15.0141 5.89099C14.9409 8.56035 15.7516 11.1868 17.329 13.3559L21.3351 18.8641L19.6787 21.1416C12.0602 11.4204 11.2177 9.56302 14.8684 5.99842ZM33.4344 40.4722C30.2017 36.0476 27.2849 32.1273 24.7359 28.7807C25.4385 27.861 26.1052 26.9881 26.7371 26.1575L34.9376 36.7141L33.4344 40.4722Z" fill="black"/>
</g>
<defs>
<clipPath id="clip0_576_12248">
<rect width="46" height="46" fill="white"/>
</clipPath>
</defs>
</svg>
