<svg width="46" height="46" viewBox="0 0 46 46" fill="none" xmlns="http://www.w3.org/2000/svg">
<path d="M40.5195 17.5195C40.5195 15.6609 39.2584 14.0923 37.5473 13.6216C38.7939 12.3585 39.1016 10.3693 38.1723 8.75977C37.2346 7.13557 35.3557 6.42059 33.6496 6.86882C34.0969 5.15191 33.3688 3.27624 31.7597 2.34717C30.136 1.40956 28.1511 1.72949 26.8976 2.97086C26.4264 1.26042 24.8581 0 23 0C21.1418 0 19.5735 1.26042 19.1024 2.97086C17.85 1.73066 15.8656 1.40875 14.2402 2.34717C12.631 3.27624 11.903 5.152 12.3503 6.86882C10.6472 6.42131 8.76673 7.13305 7.82759 8.75977C6.89834 10.3694 7.20605 12.3585 8.45264 13.6216C6.74147 14.0923 5.48042 15.6609 5.48042 17.5195C5.48042 19.3781 6.74147 20.9468 8.45264 21.4175C7.20605 22.6806 6.89834 24.6697 7.82759 26.2793C8.76376 27.9009 10.6419 28.6195 12.3501 28.1708C11.9032 29.8875 12.6312 31.7629 14.2402 32.6918C15.8704 33.6331 17.8543 33.304 19.1024 32.0681C19.4536 33.3437 20.4152 34.3684 21.6523 34.8072V37.7344H18.957V40.4297H21.6523V46H24.3476V40.4297H27.0429V37.7344H24.3476V34.8073C25.5848 34.3685 26.5463 33.3438 26.8976 32.0682C28.1269 33.2856 30.1079 33.6455 31.7597 32.6919C33.3686 31.7629 34.0967 29.8875 33.6498 28.1709C35.3544 28.6186 37.2343 27.9041 38.1723 26.2793C39.1016 24.6697 38.7939 22.6806 37.5473 21.4175C39.2584 20.9468 40.5195 19.3781 40.5195 17.5195ZM33.9972 9.61418C34.6434 9.24106 35.4663 9.4636 35.8381 10.1074C36.2097 10.751 35.9884 11.5768 35.3448 11.9483C34.7015 12.3198 33.8755 12.0987 33.5039 11.4551C33.1316 10.8102 33.3519 9.98658 33.9972 9.61418ZM28.5712 5.17464C28.9429 4.531 29.7656 4.30819 30.4121 4.6814C31.0556 5.0529 31.2769 5.87875 30.9053 6.5223C30.5328 7.16729 29.7097 7.38803 29.0644 7.01554C28.4209 6.64403 28.1996 5.81819 28.5712 5.17464ZM23 2.69531C23.7431 2.69531 24.3476 3.29987 24.3476 4.04297C24.3476 4.78607 23.7431 5.39062 23 5.39062C22.2569 5.39062 21.6523 4.78607 21.6523 4.04297C21.6523 3.29987 22.2569 2.69531 23 2.69531ZM15.5878 4.6814C16.2341 4.30837 17.057 4.53082 17.4287 5.17464C17.8003 5.81819 17.5791 6.64403 16.9355 7.01554C16.2903 7.38785 15.4672 7.16738 15.0946 6.5223C14.723 5.87875 14.9443 5.0529 15.5878 4.6814ZM10.1617 10.1074C10.5342 9.46243 11.3574 9.24169 12.0026 9.61418C12.6476 9.9864 12.8685 10.8098 12.496 11.4551C12.1245 12.0986 11.2988 12.3199 10.655 11.9483C10.0115 11.5768 9.79023 10.751 10.1617 10.1074ZM9.52339 16.1719C10.2665 16.1719 10.871 16.7764 10.871 17.5195C10.871 18.2626 10.2665 18.8672 9.52339 18.8672C8.7803 18.8672 8.17574 18.2626 8.17574 17.5195C8.17574 16.7764 8.7803 16.1719 9.52339 16.1719ZM12.0027 25.4249C11.3576 25.7972 10.5344 25.5768 10.1618 24.9316C9.79023 24.2881 10.0115 23.4622 10.6551 23.0907C11.2986 22.7192 12.1245 22.9404 12.4961 23.584C12.8684 24.229 12.648 25.0524 12.0027 25.4249ZM17.4287 29.8644C17.0563 30.5094 16.2331 30.7302 15.5878 30.3577C14.9443 29.9862 14.723 29.1603 15.0946 28.5168C15.467 27.8719 16.2902 27.6509 16.9355 28.0235C17.5791 28.395 17.8003 29.2209 17.4287 29.8644ZM23 32.3438C22.2569 32.3438 21.6523 31.7392 21.6523 30.9961C21.6523 30.253 22.2569 29.6484 23 29.6484C23.7431 29.6484 24.3476 30.253 24.3476 30.9961C24.3476 31.7392 23.7431 32.3438 23 32.3438ZM25.8413 28.1232C25.1105 27.4004 24.1066 26.9531 23 26.9531C21.8934 26.9531 20.8894 27.4004 20.1586 28.1232C19.8872 27.1318 19.2414 26.2426 18.2832 25.6893C17.3554 25.1536 16.2757 25.0087 15.2401 25.2793C15.5108 24.2438 15.3658 23.1641 14.8302 22.2363C14.2769 21.278 13.3877 20.6323 12.3963 20.3608C13.1191 19.63 13.5664 18.6261 13.5664 17.5195C13.5664 16.4127 13.1189 15.4086 12.3958 14.6777C13.3873 14.4063 14.2769 13.7611 14.8302 12.8027C15.3659 11.8748 15.5108 10.7951 15.2401 9.75946C16.2894 10.0337 17.3652 9.87976 18.2832 9.34977C19.2415 8.79642 19.8872 7.90724 20.1586 6.9159C20.8894 7.6387 21.8934 8.08594 23 8.08594C24.1066 8.08594 25.1105 7.6387 25.8413 6.9159C26.1127 7.90724 26.7585 8.79651 27.7168 9.34977C28.6332 9.87895 29.7088 10.0342 30.7599 9.75946C30.4891 10.7951 30.634 11.8748 31.1697 12.8027C31.7231 13.7612 32.6126 14.4064 33.6041 14.6778C32.881 15.4086 32.4335 16.4127 32.4335 17.5195C32.4335 18.6261 32.8808 19.63 33.6036 20.3608C32.6122 20.6323 31.723 21.278 31.1697 22.2363C30.6341 23.1641 30.4892 24.2438 30.7599 25.2793C29.7244 25.0087 28.6447 25.1536 27.7168 25.6892C26.7584 26.2426 26.1127 27.1318 25.8413 28.1232ZM30.4121 30.3577C29.767 30.73 28.9438 30.5096 28.5712 29.8644C28.1996 29.2209 28.4209 28.395 29.0644 28.0235C29.7109 27.6502 30.5334 27.8729 30.9053 28.5168C31.2769 29.1603 31.0556 29.9862 30.4121 30.3577ZM35.8382 24.9316C35.4657 25.5766 34.6424 25.7975 33.9973 25.4249C33.3523 25.0527 33.1315 24.2292 33.5039 23.584C33.8737 22.9436 34.6984 22.7174 35.3449 23.0907C35.9884 23.4622 36.2097 24.2881 35.8382 24.9316ZM36.4765 18.8672C35.7334 18.8672 35.1289 18.2626 35.1289 17.5195C35.1289 16.7764 35.7334 16.1719 36.4765 16.1719C37.2196 16.1719 37.8242 16.7764 37.8242 17.5195C37.8242 18.2626 37.2196 18.8672 36.4765 18.8672Z" fill="black"/>
</svg>
