<svg width="46" height="46" viewBox="0 0 46 46" fill="none" xmlns="http://www.w3.org/2000/svg">
<path d="M33.7859 26.9531C29.9821 26.9531 26.5816 28.7108 24.3523 31.4561V26.9531H27.0476V24.2578H24.3523V21.5625V21.4658C28.9178 20.8099 32.4382 16.8731 32.4382 12.1289V2.69531H31.0906C30.2389 2.69531 29.4134 2.8095 28.628 3.02207C27.3965 1.15395 25.302 0 23.0046 0C20.7072 0 18.6129 1.15395 17.3813 3.02207C16.5959 2.8095 15.7704 2.69531 14.9187 2.69531H13.571V12.1289C13.571 16.8731 17.0915 20.8099 21.657 21.4658V21.5625V26.0837C19.4298 23.3281 16.0242 21.5625 12.2135 21.5625H10.8658V22.9102C10.8658 29.148 15.5956 34.3012 21.6571 34.9738V37.7344H18.9618V40.4297H21.6371V40.4496H21.6571V46H24.3524V40.4297V40.3722C30.4097 39.6905 35.1336 34.5373 35.1336 28.3008V26.9531H33.7859ZM23.0046 2.69531C24.2203 2.69531 25.3409 3.23402 26.0957 4.12976C24.8348 4.91984 23.7732 5.99932 23.0046 7.27474C22.2361 5.99932 21.1743 4.91984 19.9136 4.12976C20.6684 3.23402 21.789 2.69531 23.0046 2.69531ZM16.2664 12.1289V5.52602C19.3382 6.15214 21.657 8.87486 21.657 12.1289V16.1719H24.3523V12.1289C24.3523 8.87486 26.6711 6.15214 29.7429 5.52602V12.1289C29.7429 15.8444 26.7201 18.8672 23.0046 18.8672C19.2891 18.8672 16.2664 15.8444 16.2664 12.1289ZM13.6738 24.3706C17.7143 25.0003 20.9145 28.2005 21.5442 32.241C17.5038 31.6113 14.3036 28.411 13.6738 24.3706ZM24.445 37.6417C25.0751 33.5962 28.2802 30.3911 32.3257 29.761C31.6956 33.8065 28.4905 37.0116 24.445 37.6417Z" fill="black"/>
</svg>
