<svg width="46" height="46" viewBox="0 0 46 46" xmlns="http://www.w3.org/2000/svg">
<path d="M23 0C10.3355 0 0 10.3366 0 23C0 35.6645 10.3366 46 23 46C35.6645 46 46 35.6634 46 23C46 10.3355 35.6634 0 23 0ZM23 43.3047C11.8039 43.3047 2.69531 34.1961 2.69531 23C2.69531 11.8039 11.8039 2.69531 23 2.69531C34.1961 2.69531 43.3047 11.8039 43.3047 23C43.3047 34.1961 34.1961 43.3047 23 43.3047Z" />
<path d="M23 5.48047C13.3397 5.48047 5.48047 13.3397 5.48047 23C5.48047 32.6603 13.3397 40.5195 23 40.5195C32.6603 40.5195 40.5195 32.6603 40.5195 23C40.5195 13.3397 32.6603 5.48047 23 5.48047ZM23 37.8242C14.826 37.8242 8.17578 31.174 8.17578 23C8.17578 14.826 14.826 8.17578 23 8.17578C31.174 8.17578 37.8242 14.826 37.8242 23C37.8242 31.174 31.174 37.8242 23 37.8242Z"/>
<path d="M27.043 12.2188C24.8446 12.2188 19.7874 12.2188 18.957 12.2188V20.3047H16.2617V23H18.957V25.6953H16.2617V28.3906H18.957V33.7812H21.6523V28.3906H28.3906V25.6953H21.6523V23H27.043C30.0155 23 32.4336 20.5819 32.4336 17.6094C32.4336 14.6368 30.0155 12.2188 27.043 12.2188ZM27.043 20.3047H21.6523V14.9141H27.043C28.5293 14.9141 29.7383 16.1231 29.7383 17.6094C29.7383 19.0957 28.5293 20.3047 27.043 20.3047Z"/>
</svg>
