<svg width="46" height="46" viewBox="0 0 46 46" fill="none" xmlns="http://www.w3.org/2000/svg">
<g clip-path="url(#clip0_576_12311)">
<path d="M37.8242 13.6547V5.74803H32.4333V2.32293L27.7874 0L26.582 2.4109L29.7379 3.9889V5.74812H16.2606V3.9889L19.4166 2.4109L18.2111 0L13.5652 2.32293V5.74803H8.17432V13.6547H10.9978L13.4237 37.9137H10.8698V46H35.1288V37.9137H32.5748L35.0007 13.6547H37.8242ZM10.8698 8.44348H35.1288V10.9592H10.8698V8.44348ZM32.4333 40.6091V43.3046H13.5652V40.6091H13.6932H32.3052H32.4333ZM29.866 37.9137H16.1326L13.7067 13.6547H32.2919L29.866 37.9137Z" fill="black"/>
<path d="M21.6497 32.5228H24.3452V24.4365H27.0406V21.741H24.3452V19.0456H21.6497V21.741H18.9543V24.4365H21.6497V32.5228Z" fill="black"/>
</g>
<defs>
<clipPath id="clip0_576_12311">
<rect width="46" height="46" fill="white"/>
</clipPath>
</defs>
</svg>
