<svg width="46" height="46" viewBox="0 0 46 46" fill="none" xmlns="http://www.w3.org/2000/svg">
<g clip-path="url(#clip0_576_12370)">
<path d="M24.4812 0.000976562L25.5612 5.40207V5.40216C26.5345 10.2683 25.0207 15.2684 21.5116 18.7776L20.9615 19.3277L17.1537 15.5199L15.2499 17.4238L19.0576 21.2315L16.2371 24.052L12.4293 20.2442L10.5255 22.148L14.3333 25.9558L11.423 28.866L7.61529 25.0582L5.71162 26.9622L9.51931 30.77L3.80778 36.4815L1.90393 34.5776L0 36.4815L9.51922 46.0008L11.4231 44.0969L9.51922 42.1931L11.9324 39.7799C12.1733 40.6842 12.6474 41.5137 13.3269 42.1931C15.4263 44.2925 18.8423 44.2929 20.9424 42.1931L22.8462 44.0969L24.7501 42.1931L22.8462 40.2893L25.7565 37.379L27.6603 39.2828L29.5642 37.379L27.6603 35.4751L30.4808 32.6546L32.3846 34.5584L34.2885 32.6546L32.3846 30.7507C34.4842 28.6512 34.4842 25.2349 32.3846 23.1353C31.8607 22.6113 31.2547 22.2182 30.6076 21.9558C33.6172 20.313 37.1412 19.7479 40.5985 20.4394L45.9999 21.5196L24.4812 0.000976562ZM15.2308 40.2893C14.1785 39.2369 14.1785 37.534 15.2308 36.4815L19.0385 40.2893C17.9887 41.3391 16.2806 41.3391 15.2308 40.2893ZM20.9425 38.3854L17.1348 34.5776L20.045 31.6674L23.8527 35.4752L20.9425 38.3854ZM25.7565 33.5713L21.9487 29.7635L24.7693 26.943L28.577 30.7507L25.7565 33.5713ZM30.4809 28.8469L26.6731 25.0391C27.198 24.5143 27.8875 24.2518 28.577 24.2518C29.2665 24.2518 29.9559 24.5143 30.4809 25.0391C31.5306 26.089 31.5306 27.7971 30.4809 28.8469ZM25.3192 22.5853L7.61538 40.2892C7.16905 39.8428 6.15857 38.8324 5.71144 38.3853L23.4153 20.6815C26.8446 17.2522 28.6616 12.6182 28.5375 7.86505L38.1356 17.4632C33.3828 17.3396 28.7483 19.1563 25.3192 22.5853Z" fill="black"/>
</g>
<defs>
<clipPath id="clip0_576_12370">
<rect width="46" height="46" fill="white"/>
</clipPath>
</defs>
</svg>
