<svg width="46" height="46" viewBox="0 0 46 46" fill="none" xmlns="http://www.w3.org/2000/svg">
<g clip-path="url(#clip0_576_12317)">
<path d="M46 23.0889C45.9995 11.9428 36.8911 2.875 25.6953 2.875H24.3477V0H21.6523V2.875H20.3047C9.82397 2.875 1.173 10.8217 0.110238 20.9808C0.0389023 21.2224 0 21.4778 0 21.7422V24.4375H2.69531V23.0898C2.69531 22.3454 3.29861 21.7422 4.04297 21.7422H9.52344C10.2665 21.7422 10.8711 22.3467 10.8711 23.0898V24.4375H13.5664V23.0898C13.5664 23.0898 13.5664 23.0898 13.5664 23.0897C13.5664 22.3453 14.1697 21.7422 14.9141 21.7422H20.3047C21.0478 21.7422 21.6523 22.3467 21.6523 23.0898V41.957C21.6523 44.1863 23.466 46 25.6953 46C27.9246 46 29.7383 44.1863 29.7383 41.957V37.9141H27.043V41.957C27.043 42.7001 26.4384 43.3047 25.6953 43.3047C24.9522 43.3047 24.3477 42.7001 24.3477 41.957C24.3477 41.3673 24.3477 27.548 24.3477 23.0898C24.3477 22.3457 24.9509 21.7422 25.695 21.7422H31.0859C31.829 21.7422 32.4336 22.3467 32.4336 23.0898V24.4375H35.1289C35.1289 23.9661 35.1289 23.5279 35.1289 23.0897C35.1289 22.3453 35.7322 21.7422 36.4766 21.7422H41.957C42.7001 21.7422 43.3047 22.3466 43.3047 23.0898V24.4375L46 24.437V23.0894C46 23.0892 46 23.0891 46 23.0889ZM9.52344 19.0469H3.16942C4.65139 12.8291 9.47295 7.8837 15.6378 6.19598C14.9645 7.03225 14.3402 8.01829 13.7764 9.146C12.3562 11.9863 11.4203 15.5193 11.0502 19.3471C10.5788 19.1541 10.0635 19.0469 9.52344 19.0469ZM20.3047 19.0469H13.79C14.1596 15.767 14.9794 12.767 16.1871 10.3514C17.7064 7.31292 19.6983 5.57031 21.6523 5.57031V19.2787C21.2305 19.1291 20.7772 19.0469 20.3047 19.0469ZM31.0859 19.0469H24.3477V5.57031C26.3017 5.57031 28.2936 7.31292 29.8129 10.3514C31.0408 12.8075 31.8675 15.8678 32.2279 19.2122C31.8655 19.1053 31.4825 19.0469 31.0859 19.0469ZM41.957 19.0469H35.1289C35.0586 19.0469 34.9893 19.0505 34.9204 19.0558C34.5317 15.3402 33.6077 11.9142 32.2236 9.14609C31.6598 8.01838 31.0354 7.03234 30.3622 6.19607C36.5607 7.89295 41.4021 12.8831 42.8553 19.1488C42.5662 19.0828 42.2658 19.0469 41.957 19.0469Z" fill="black"/>
</g>
<defs>
<clipPath id="clip0_576_12317">
<rect width="46" height="46" fill="white"/>
</clipPath>
</defs>
</svg>
