<svg width="46" height="46" viewBox="0 0 46 46" fill="none" xmlns="http://www.w3.org/2000/svg">
<g clip-path="url(#clip0_576_12397)">
<path d="M46 23C46 21.4869 45.4184 19.977 44.3807 18.7433C44.837 17.2548 44.767 15.683 44.1662 14.2327C43.5646 12.7805 42.5007 11.6184 41.123 10.8887C41.1145 10.8007 41.1041 10.713 41.0922 10.6255L44.754 6.96361H41.5005C40.1418 6.96361 39.0364 5.85826 39.0364 4.49946V1.24595L35.3746 4.90771C35.2871 4.89577 35.1993 4.88543 35.1114 4.8769C34.3816 3.49923 33.2196 2.4353 31.7673 1.83371C30.3171 1.23293 28.7452 1.16294 27.2567 1.61925C26.023 0.581559 24.5131 0 23 0C21.4869 0 19.977 0.581469 18.7433 1.61925C17.2548 1.16303 15.6829 1.23302 14.2327 1.83371C12.7809 2.43504 11.6194 3.49825 10.8896 4.87537C9.33818 5.02262 7.91119 5.68891 6.80009 6.8C5.689 7.9111 5.02262 9.33809 4.87546 10.8894C3.49852 11.6192 2.43512 12.7809 1.8338 14.2327C1.23302 15.6829 1.16303 17.2546 1.61925 18.7431C0.581469 19.9768 0 21.4867 0 23C0 24.5133 0.581469 26.0232 1.61925 27.2569C1.16303 28.7454 1.23302 30.3171 1.8338 31.7673C2.4353 33.2195 3.49923 34.3814 4.87699 35.1112C4.88552 35.1993 4.89586 35.287 4.9078 35.3746L1.24595 39.0365H4.49946C5.85817 39.0365 6.96361 40.1418 6.96361 41.5006V44.7541L10.6255 41.0923C10.713 41.1042 10.8008 41.1146 10.8889 41.1232C11.6186 42.5009 12.7805 43.5648 14.2328 44.1664C15.683 44.7672 17.2547 44.8372 18.7432 44.3808C19.9768 45.4185 21.4867 46 23 46C24.5133 46 26.0232 45.4185 27.2569 44.3807C28.7454 44.837 30.3171 44.767 31.7673 44.1662C33.2191 43.5649 34.3808 42.5014 35.1106 41.1245C36.6619 40.9773 38.0888 40.311 39.2 39.1999C40.3112 38.0887 40.9774 36.6619 41.1245 35.1104C42.5017 34.3806 43.5649 33.2191 44.1662 31.7673C44.767 30.317 44.837 28.7452 44.3807 27.2567C45.4184 26.023 46 24.5131 46 23ZM6.66389 32.9639C5.58469 32.5646 4.75363 31.7733 4.32382 30.7358C3.8941 29.6984 3.92213 28.5513 4.40288 27.5058L4.81104 26.6179L4.09409 25.954C3.20518 25.1307 2.69531 24.054 2.69531 23C2.69531 21.946 3.20518 20.8693 4.09418 20.046L4.81113 19.3821L4.40297 18.4942C3.92222 17.4487 3.89419 16.3016 4.32391 15.2642C4.75372 14.2266 5.58478 13.4352 6.66398 13.0359L7.58039 12.6968L7.54292 11.7204C7.49881 10.5707 7.91182 9.50017 8.70595 8.70604C9.50008 7.91191 10.5722 7.49926 11.7205 7.54301L12.697 7.58048L13.0361 6.66398C13.4354 5.58478 14.2267 4.75372 15.2642 4.324C16.3016 3.89419 17.4488 3.92231 18.4945 4.40306L19.3823 4.81122L20.0462 4.09436C20.8695 3.20518 21.9462 2.69531 23 2.69531C24.0538 2.69531 25.1305 3.20518 25.954 4.09427L26.6179 4.81104L27.5057 4.40288C28.5513 3.92213 29.6984 3.8941 30.7359 4.32382C31.7735 4.75363 32.5649 5.58469 32.9642 6.6638L33.1409 7.14141L28.2869 11.9955C28.0648 11.947 27.849 11.8802 27.6416 11.7943C27.1174 11.5773 26.6442 11.2425 26.2351 10.7995L25.5702 10.0795L24.6804 10.4901C23.5848 10.9955 22.4156 10.9955 21.3198 10.4901L20.43 10.0795C19.9306 10.5629 19.4629 11.3368 18.3585 11.7942C17.2569 12.2506 16.3659 12.0352 15.6813 12.0463C15.4067 12.6799 15.2689 13.5782 14.4236 14.4234C13.5805 15.2665 12.6732 15.4094 12.0466 15.681C12.0354 16.3714 12.2519 17.2539 11.7945 18.3583C11.3374 19.462 10.5624 19.9311 10.0798 20.4298C10.3352 21.0762 10.8713 21.8044 10.8713 22.9998C10.8713 24.1921 10.3308 24.9348 10.0798 25.5699L10.7997 26.2347C11.2427 26.6439 11.5774 27.1171 11.7946 27.6414C11.8805 27.8487 11.9472 28.0645 11.9957 28.2866L7.14177 33.1405L6.66389 32.9639ZM14.0924 26.19C13.8693 25.7439 13.5958 25.3243 13.2732 24.9346C13.468 24.3021 13.5664 23.6545 13.5664 23C13.5664 22.3455 13.468 21.6979 13.2732 21.0654C13.6952 20.5555 14.034 19.9947 14.2845 19.3899C14.535 18.7852 14.692 18.1492 14.754 17.4902C15.3391 17.1806 15.8666 16.7922 16.3294 16.3295C16.7922 15.8667 17.1806 15.3391 17.4901 14.754C18.1491 14.692 18.7851 14.535 19.3897 14.2846C19.9946 14.034 20.5555 13.6953 21.0653 13.2732C22.3304 13.6629 23.6694 13.6629 24.9346 13.2732C25.3243 13.5958 25.7439 13.8693 26.19 14.0923L14.0924 26.19ZM7.06738 37.0267L37.0267 7.06738C37.4825 7.85827 38.1416 8.51755 38.9326 8.97323L8.97332 38.9325C8.51755 38.1416 7.85836 37.4825 7.06738 37.0267ZM32.7268 21.0654C32.532 21.6979 32.4336 22.3456 32.4336 23C32.4336 23.6544 32.532 24.3021 32.7268 24.9346C32.3048 25.4445 31.966 26.0053 31.7155 26.6102C31.465 27.2148 31.308 27.8508 31.246 28.5098C30.6609 28.8194 30.1333 29.2078 29.6706 29.6705C29.2078 30.1333 28.8194 30.6609 28.5099 31.246C27.8509 31.308 27.2149 31.465 26.6103 31.7154C26.0054 31.9659 25.4445 32.3047 24.9347 32.7268C23.6695 32.3371 22.3305 32.3371 21.0654 32.7268C20.6757 32.4042 20.2561 32.1307 19.81 31.9076L31.9076 19.81C32.1307 20.2561 32.4042 20.6757 32.7268 21.0654ZM41.9057 25.9539L41.1889 26.6178L41.597 27.5056C42.0778 28.5512 42.1058 29.6983 41.6761 30.7358C41.2463 31.7733 40.4152 32.5646 39.336 32.9639L38.4196 33.303L38.4571 34.2794C38.5012 35.4293 38.0882 36.4998 37.2941 37.294C36.4999 38.088 35.4293 38.5008 34.2797 38.457L33.3032 38.4195L32.9641 39.336C32.5649 40.4151 31.7735 41.2462 30.7358 41.676C29.6983 42.1057 28.5512 42.0777 27.5057 41.5969L26.6178 41.1888L25.9539 41.9057C25.1307 42.7948 24.054 43.3047 23 43.3047C21.946 43.3047 20.8694 42.7948 20.046 41.9058L19.3821 41.1889L18.4943 41.597C17.4487 42.0778 16.3017 42.1058 15.2642 41.6761C14.2267 41.2464 13.4354 40.4153 13.0361 39.3361L12.8593 38.8584L17.7132 34.0045C17.9353 34.053 18.1511 34.1198 18.3585 34.2057C18.8826 34.4227 19.3559 34.7575 19.7651 35.2005L20.4299 35.9204L21.3197 35.5098C22.4154 35.0044 23.5846 35.0044 24.6803 35.5098L25.5702 35.9204C26.0426 35.4631 26.5371 34.663 27.6416 34.2056C28.7432 33.7493 29.6342 33.9646 30.3189 33.9535C30.5953 33.3158 30.7311 32.4216 31.5765 31.5764C32.4196 30.7333 33.3252 30.5912 33.9535 30.3189C33.9648 29.6239 33.7482 28.746 34.2056 27.6415C34.6627 26.5378 35.4376 26.0688 35.9203 25.5701C35.6666 24.9279 35.1289 24.1955 35.1289 23C35.1289 21.8077 35.6687 21.0667 35.9203 20.4298L35.2004 19.765C34.7574 19.3558 34.4226 18.8826 34.2055 18.3583C34.1196 18.151 34.0529 17.9351 34.0044 17.7131L38.8585 12.8591L39.3361 13.0358C40.4153 13.4351 41.2464 14.2265 41.6762 15.2641C42.1059 16.3016 42.0779 17.4487 41.5971 18.4943L41.189 19.3821L41.9058 20.046C42.7948 20.8695 43.3047 21.9462 43.3047 23C43.3047 24.0538 42.7948 25.1305 41.9057 25.9539Z" fill="black"/>
</g>
<defs>
<clipPath id="clip0_576_12397">
<rect width="46" height="46" fill="white"/>
</clipPath>
</defs>
</svg>
