<svg width="46" height="46" viewBox="0 0 46 46" xmlns="http://www.w3.org/2000/svg">
<path d="M46 29.2095C46 24.9785 43.4689 22.1235 43.3855 21.9698C39.9492 17.3879 33.6678 15.986 28.6124 18.6927C27.163 17.2384 25.1642 16.3516 23 16.3516C20.8358 16.3516 18.8369 17.2384 17.3875 18.6928C12.3387 15.9896 5.95709 17.3932 2.5247 21.9697C2.44061 22.1276 0 24.8336 0 29.2095V43.8233L14.6782 38.9596L13.2702 46H32.7298L31.3218 38.9597L46 43.8233V29.2095ZM8.17578 38.2748V31.1758H5.48047V39.1679L2.69531 40.0908V29.2095C2.69531 25.879 4.62462 23.6919 4.68095 23.5869C7.25533 20.1542 11.9886 19.0442 15.8249 20.9208C15.5599 21.4858 15.3574 22.0878 15.2308 22.7207L13.2702 32.5234H15.9655L15.2865 35.9187L8.17578 38.2748ZM16.5579 43.3047L19.2532 29.8281H16.5579L17.8738 23.2493C18.3606 20.8142 20.5165 19.0469 23 19.0469C25.4835 19.0469 27.6394 20.8142 28.1263 23.2493L29.4421 29.8281H26.7468L29.4421 43.3047H16.5579ZM43.3047 40.0908L40.5195 39.1679V31.1758H37.8242V38.2748L30.7135 35.9186L30.0345 32.5234H32.7298L30.7693 22.7208C30.6427 22.0879 30.4402 21.4858 30.1752 20.9208C33.9758 19.0641 38.67 20.1744 41.2294 23.5871C41.3093 23.7329 43.3048 25.9549 43.3048 29.2095V40.0908H43.3047Z"/>
<path d="M16.2617 0H29.7383V2.69531H16.2617V0Z"/>
<path d="M28.3906 10.9609C28.3906 7.98855 25.9724 5.57031 23 5.57031C20.0276 5.57031 17.6094 7.98855 17.6094 10.9609C17.6094 13.9333 20.0276 16.3516 23 16.3516C25.9724 16.3516 28.3906 13.9333 28.3906 10.9609ZM23 13.6562C21.5138 13.6562 20.3047 12.4471 20.3047 10.9609C20.3047 9.47474 21.5138 8.26562 23 8.26562C24.4862 8.26562 25.6953 9.47474 25.6953 10.9609C25.6953 12.4471 24.4862 13.6562 23 13.6562Z"/>
</svg>
