<svg width="46" height="46" viewBox="0 0 46 46" xmlns="http://www.w3.org/2000/svg">
<g clip-path="url(#clip0_576_12427)">
<path d="M12.2188 0C8.50363 0 5.48111 3.02252 5.48111 6.73766V38.3598C5.48111 41.3319 7.89912 43.7499 10.8712 43.7499H16.2614V46L20.304 43.9181L24.3466 46V43.7499H40.517C40.517 42.0757 40.517 2.1662 40.517 0H12.2188ZM10.8712 2.92684V32.9696C9.88979 32.9696 8.96969 33.2346 8.17618 33.6948V6.73766C8.17618 4.98093 9.3028 3.4831 10.8712 2.92684ZM10.8712 41.0548C9.38518 41.0548 8.17618 39.8458 8.17618 38.3598C8.17618 36.8737 9.38518 35.6647 10.8712 35.6647H16.2614V41.0548H10.8712ZM21.6515 41.5806L20.304 40.8867L18.9564 41.5806V35.6647H21.6515V41.5806ZM37.8219 41.0548H24.3466V35.6647H37.8219V41.0548ZM13.5663 32.9696V2.69507H37.8219V32.9696C36.6756 32.9696 14.7049 32.9696 13.5663 32.9696Z"/>
<path d="M27.0434 10.7801V5.39001H24.3483V10.7801H18.9582V13.4752H24.3483V24.2555H27.0434V13.4752H32.4335V10.7801H27.0434Z"/>
<path d="M18.9582 26.9505H32.4335V29.6456H18.9582V26.9505Z"/>
</g>
<defs>
<clipPath id="clip0_576_12427">
<rect width="46" height="46"/>
</clipPath>
</defs>
</svg>
