<svg width="46" height="46" viewBox="0 0 46 46" xmlns="http://www.w3.org/2000/svg">
<path d="M28.3906 5.48047C26.1887 5.48047 24.2304 6.54224 23 8.18045C21.7696 6.54224 19.8113 5.48047 17.6094 5.48047H0V40.5195H46C46 38.8908 46 7.12003 46 5.48047H28.3906ZM2.69531 37.8242V35.1289H17.6094C19.3664 35.1289 20.8652 36.2555 21.4214 37.8242H2.69531ZM17.6094 32.4336H2.69531V8.17578H17.6094C19.8387 8.17578 21.6523 9.98946 21.6523 12.2188V13.5664V33.7849C20.5253 32.937 19.1251 32.4336 17.6094 32.4336ZM43.3047 37.8242H24.5786C25.1347 36.2555 26.6336 35.1289 28.3906 35.1289H43.3047V37.8242ZM28.3906 32.4336C26.8749 32.4336 25.4747 32.937 24.3477 33.7849V13.5664V12.2188C24.3477 9.98946 26.1613 8.17578 28.3906 8.17578H43.3047V32.4336H28.3906Z"/>
<path d="M13.5665 13.5664H10.8712V16.2617H8.17584V18.957H10.8712V27.043H13.5665V18.957H16.2618V16.2617H13.5665V13.5664Z"/>
<path d="M27.0429 13.5664H40.5195V16.2617H27.0429V13.5664Z"/>
<path d="M27.0429 18.957H40.5195V21.6523H27.0429V18.957Z"/>
<path d="M27.0429 24.3477H40.5195V27.043H27.0429V24.3477Z"/>
</svg>
