<svg width="46" height="46" viewBox="0 0 46 46" xmlns="http://www.w3.org/2000/svg">
<g clip-path="url(#clip0_576_12432)">
<path d="M23.0001 46L15.7025 38.7025L18.9565 35.4485V21.6521H15.4713L12.2173 24.9061L4.91974 17.6086L12.2173 10.3111L15.4713 13.565H18.9565V10.5515L15.7025 7.29753L23.0001 0L30.2976 7.29753L27.0436 10.5515V13.565H30.5289L33.7829 10.3111L41.0804 17.6086L33.7829 24.9061L30.5289 21.6521H27.0436V35.4485L30.2976 38.7025L23.0001 46ZM19.5148 38.7025L23.0001 42.1877L26.4854 38.7025L24.3479 36.565V18.9564H31.6455L33.7829 21.0939L37.2682 17.6086L33.7829 14.1233L31.6455 16.2607H24.3479V9.43496L26.4854 7.29753L23.0001 3.81226L19.5148 7.29753L21.6522 9.43496V16.2607H14.3547L12.2173 14.1233L8.732 17.6086L12.2173 21.0939L14.3547 18.9564H21.6522V36.565L19.5148 38.7025Z"/>
</g>
<defs>
<clipPath id="clip0_576_12432">
<rect width="46" height="46"/>
</clipPath>
</defs>
</svg>
