<svg width="46" height="46" viewBox="0 0 46 46" xmlns="http://www.w3.org/2000/svg">
<path d="M23 21.7422C20.7707 21.7422 18.9571 23.5559 18.9571 25.7852C18.9571 28.0144 20.7707 29.8281 23 29.8281C25.2293 29.8281 27.043 28.0144 27.043 25.7852C27.043 23.5559 25.2293 21.7422 23 21.7422ZM23 27.1328C22.2569 27.1328 21.6524 26.5283 21.6524 25.7852C21.6524 25.0421 22.2569 24.4375 23 24.4375C23.7431 24.4375 24.3477 25.0421 24.3477 25.7852C24.3477 26.5283 23.7431 27.1328 23 27.1328Z"/>
<path d="M46 29.8281V27.1328C44.7567 27.1328 43.8789 27.1328 42.7001 27.1328L40.0048 21.7422H32.4336V19.0469H35.1289V16.3516H31.6441L24.3477 9.05508V5.57031H27.043V2.875H24.3477V0H21.6523V2.875H18.957V5.57031H21.6523V9.05508L14.3559 16.3516H10.8711V19.0469H13.5664V21.7422H5.99518L3.29987 27.1328C2.12921 27.1328 1.24865 27.1328 0 27.1328V29.8281H2.78516V43.3047H0V46H46V43.3047H43.2148V29.8281H46ZM38.3389 24.4375L39.6866 27.1328H32.4336V24.4375H38.3389ZM23 11.5191L27.8324 16.3516H18.1676L23 11.5191ZM13.5664 24.4375V27.1328H6.31341L7.66107 24.4375H13.5664ZM10.8711 43.3047V37.9141H8.17578V43.3047H5.48047V29.8281H13.5664V43.3047H10.8711ZM21.6523 43.3047V36.5664C21.6523 35.8233 22.2569 35.2188 23 35.2188C23.7431 35.2188 24.3477 35.8233 24.3477 36.5664V43.3047H21.6523ZM27.043 43.3047V36.5664C27.043 34.3371 25.2293 32.5234 23 32.5234C20.7707 32.5234 18.957 34.3371 18.957 36.5664V43.3047H16.2617C16.2617 42.1986 16.2617 20.601 16.2617 19.0469H29.7383V43.3047H27.043ZM37.8242 43.3047V37.9141H35.1289V43.3047H32.4336V29.8281H40.5195V43.3047H37.8242Z"/>
<path d="M8.17583 32.5234H10.8711V35.2188H8.17583V32.5234Z"/>
<path d="M35.1289 32.5234H37.8243V35.2188H35.1289V32.5234Z"/>
</svg>
