<svg width="46" height="46" viewBox="0 0 46 46" xmlns="http://www.w3.org/2000/svg">
<path d="M46 16.2617V13.5664H43.2148H43.0793C42.4531 10.4945 39.7307 8.17578 36.4766 8.17578H9.52344C6.26939 8.17578 3.54685 10.4945 2.92073 13.5664H2.78516H0V16.2617H2.78516V29.7383H0V37.8242H46V29.7383H43.2148V16.2617H46ZM9.52344 10.8711H36.4766C38.2336 10.8711 39.7324 11.9976 40.2886 13.5664H5.71137C6.26759 11.9976 7.76645 10.8711 9.52344 10.8711ZM43.3047 32.4336V35.1289H2.69531V32.4336H2.78516H43.2148H43.3047ZM40.5195 29.7383H5.48047V16.2617H40.5195V29.7383Z"/>
<path d="M13.5663 24.3477H21.6523V27.043H24.3476V24.3477H32.4335V27.043H35.1288V24.3477V21.6523V18.957H32.4335V21.6523H24.3476V18.957H21.6523V21.6523H13.5663V18.957H10.871V21.6523V24.3477V27.043H13.5663V24.3477Z"/>
</svg>
