<svg width="46" height="46" viewBox="0 0 46 46" xmlns="http://www.w3.org/2000/svg">
<g clip-path="url(#clip0_576_12384)">
<path d="M45.173 12.6631C45.0751 12.5338 42.7298 9.46191 38.8574 6.36088C34.3334 2.73788 28.868 0.000976562 23 0.000976562C17.1306 0.000976562 11.6654 2.73878 7.14251 6.36097C3.27011 9.462 0.924819 12.5339 0.826893 12.6632L0 13.7543L1.10414 14.5638C1.20279 14.636 3.56317 16.3537 7.43709 18.0773C11.0109 19.6673 16.612 21.5626 23 21.5626C29.388 21.5626 34.989 19.6673 38.5629 18.0773C42.4368 16.3538 44.7973 14.6361 44.8959 14.5638L46 13.7543L45.173 12.6631ZM23 2.69619C28.7387 2.69619 33.8468 5.81097 37.1217 8.42389C37.5472 8.7634 37.9538 9.10354 38.3401 9.43972C33.372 7.64587 28.2359 6.73902 23 6.73902C17.7641 6.73902 12.6281 7.64578 7.65999 9.43963C8.0463 9.10354 8.45283 8.76331 8.87841 8.4238C12.1531 5.81088 17.2613 2.69619 23 2.69619ZM28.3904 13.4771C28.3904 16.4494 25.9723 18.8675 23 18.8675C20.0277 18.8675 17.6096 16.4494 17.6096 13.4771C17.6096 12.0211 18.1933 10.6453 19.2226 9.63422C21.7371 9.40819 24.2629 9.40819 26.7774 9.63422C27.8067 10.6453 28.3904 12.0211 28.3904 13.4771ZM4.62958 13.6179C8.20227 11.9403 11.9 10.7708 15.6473 10.1098C15.1698 11.1524 14.9143 12.2973 14.9143 13.4771C14.9143 15.2261 15.4727 16.8471 16.4203 18.1714C13.3031 17.5259 10.6087 16.5341 8.60053 15.6449C6.97397 14.9248 5.62591 14.2004 4.62958 13.6179ZM37.3995 15.6449C35.3912 16.5341 32.6969 17.5259 29.5797 18.1714C30.5273 16.8471 31.0857 15.2261 31.0857 13.4771C31.0857 12.2973 30.8302 11.1524 30.3527 10.1098C34.1 10.7708 37.7976 11.9403 41.3704 13.6179C40.374 14.2004 39.0259 14.9248 37.3995 15.6449Z"/>
<path d="M21.6529 12.1296H24.3482V14.8248H21.6529V12.1296Z"/>
<path d="M17.4275 27.0666C16.5662 25.5817 15.8892 24.6474 14.9142 23.2346C13.939 24.6475 13.2623 25.5817 12.4009 27.0666C11.0298 29.4299 10.8713 30.4412 10.8713 30.9962C10.8713 33.2254 12.6849 35.039 14.9142 35.039C17.1434 35.039 18.957 33.2254 18.957 30.9962C18.9571 30.4412 18.7985 29.4299 17.4275 27.0666ZM14.9143 32.3438C14.1712 32.3438 13.5666 31.7393 13.5666 30.9977C13.5776 30.5857 14.1382 29.4113 14.9145 28.1033C15.6902 29.4099 16.2504 30.5838 16.2619 30.9972C16.2612 31.7398 15.6569 32.3438 14.9143 32.3438Z"/>
<path d="M31.0842 23.2346C30.1091 24.6475 29.4323 25.5817 28.5709 27.0666C27.1998 29.4299 27.0414 30.4412 27.0414 30.9962C27.0414 33.2254 28.855 35.039 31.0842 35.039C33.3134 35.039 35.127 33.2254 35.127 30.9962C35.127 30.4412 34.9684 29.4299 33.5975 27.0666C32.7361 25.5817 32.0591 24.6474 31.0842 23.2346ZM31.0842 32.3438C30.3411 32.3438 29.7366 31.7393 29.7366 30.9977C29.7475 30.5857 30.3081 29.4113 31.0844 28.1033C31.8601 29.4099 32.4203 30.5838 32.4318 30.9972C32.4312 31.7398 31.8268 32.3438 31.0842 32.3438Z"/>
<path d="M23.0015 34.1948C22.0263 35.6077 21.3496 36.5419 20.4882 38.0268C19.1171 40.3901 18.9586 41.4014 18.9586 41.9564C18.9586 44.1856 20.7723 45.9992 23.0015 45.9992C25.2307 45.9992 27.0443 44.1856 27.0443 41.9564C27.0443 41.4014 26.8857 40.3901 25.5148 38.0268C24.6534 36.5419 23.9764 35.6076 23.0015 34.1948ZM23.0015 43.304C22.2584 43.304 21.6539 42.6995 21.6539 41.958C21.6648 41.5459 22.2254 40.3715 23.0017 39.0636C23.7774 40.3701 24.3376 41.544 24.3491 41.9574C24.3485 42.7 23.7441 43.304 23.0015 43.304Z"/>
</g>
<defs>
<clipPath id="clip0_576_12384">
<rect width="46" height="46"/>
</clipPath>
</defs>
</svg>
