<svg width="46" height="46" viewBox="0 0 46 46" xmlns="http://www.w3.org/2000/svg">
<g clip-path="url(#clip0_576_12408)">
<path d="M46 5.39062V2.69531H43.3047V0H40.6094V2.69531H37.9141V5.39062H40.6094V10.9609H37.9141V16.2907C35.1409 16.0423 32.4643 15.031 30.2612 13.3798C28.1499 11.7974 25.6391 10.9609 23 10.9609C19.0938 10.9609 17.9148 11.7172 16.1675 13.054C16.0298 13.1593 15.8867 13.2688 15.7355 13.3822C13.5338 15.0336 10.8582 16.0443 8.08594 16.2915V10.9609H5.39062V5.39062H8.08594V2.69531H5.39062V0H2.69531V2.69531H0V5.39062H2.69531V10.9609H0V46H8.08594V43.3047H37.9141V46H46V10.9609H43.3047V5.39062H46ZM32.4336 17.6878V40.6094H29.7383V16.2906C30.5931 16.833 31.496 17.3001 32.4336 17.6878ZM18.957 14.3837C19.6138 14.003 20.3453 13.7777 21.6523 13.694V40.6094H18.957V14.3837ZM24.3477 13.7533C25.2856 13.8871 26.1915 14.1596 27.043 14.5661V40.6094H24.3477V13.7533ZM16.2617 16.2913V40.6094H13.5664V17.6894C14.504 17.3017 15.4069 16.8342 16.2617 16.2913ZM5.39062 43.3047H2.69531V13.6562H5.39062V43.3047ZM8.08594 18.9957C9.02615 18.9245 9.95801 18.7784 10.8711 18.5612V40.6094H8.08594V18.9957ZM35.1289 40.6094V18.5594C36.0418 18.7767 36.9736 18.9231 37.9141 18.9948V40.6094H35.1289ZM43.3047 43.3047H40.6094V13.6562H43.3047V43.3047Z"/>
</g>
<defs>
<clipPath id="clip0_576_12408">
<rect width="46" height="46"/>
</clipPath>
</defs>
</svg>
