<svg width="46" height="46" viewBox="0 0 46 46" xmlns="http://www.w3.org/2000/svg">
<path d="M8.17581 16.1719V17.5195C8.17581 26.571 11.1709 32.6151 16.0406 39.2302L12.7649 46H33.2352L29.9595 39.2302C34.8291 32.6151 37.8242 26.571 37.8242 17.5195V16.1719H31.086H14.9141H8.17581ZM17.0633 43.3047L18.4545 40.4297H27.5457L28.9368 43.3047H17.0633ZM35.1049 18.8672C34.8277 26.5204 32.1613 31.7158 27.7139 37.7344H18.2862C13.8388 31.7158 11.1725 26.5204 10.8951 18.8672H35.1049Z"/>
<path d="M21.6524 35.0391H24.3477V26.9531H27.043V24.2578H24.3477V21.5625H21.6524V24.2578H18.9571V26.9531H21.6524V35.0391Z"/>
<path d="M18.3898 14.1048C19.8189 14.1284 21.182 13.4027 21.9173 12.1289C22.6528 10.855 22.5991 9.31051 21.8647 8.08594C22.5992 6.86137 22.6529 5.31686 21.9173 4.04306C21.1819 2.76916 19.8184 2.04502 18.3898 2.06712C17.6965 0.818656 16.3856 0 14.9147 0C13.4438 0 12.133 0.818656 11.4397 2.06712C10.0133 2.0452 8.64749 2.76925 7.91221 4.04297C7.17665 5.31686 7.23029 6.86137 7.96485 8.08594C7.23029 9.31051 7.17665 10.8549 7.91212 12.1288C8.64749 13.4027 10.0119 14.1266 11.4397 14.1048C12.133 15.3532 13.4437 16.1719 14.9147 16.1719C16.3857 16.1719 17.6965 15.3532 18.3898 14.1048ZM16.1903 12.353C16.071 13.0145 15.5464 13.4766 14.9147 13.4766C14.283 13.4766 13.7584 13.0145 13.6391 12.353L13.3562 10.7853L11.8571 11.3241C11.2244 11.5515 10.5621 11.3282 10.2464 10.7812C9.93055 10.2342 10.0685 9.54895 10.5816 9.11492L11.7983 8.08594L10.5816 7.05696C10.0684 6.62283 9.93046 5.93768 10.2464 5.39054C10.5621 4.84366 11.2244 4.62057 11.8571 4.8477L13.3562 5.38658L13.6391 3.8189C13.7584 3.15738 14.283 2.69531 14.9147 2.69531C15.5464 2.69531 16.071 3.15738 16.1903 3.8189L16.4732 5.38658L17.9724 4.8477C18.6051 4.62048 19.2673 4.84357 19.5831 5.39062C19.899 5.93759 19.7611 6.62283 19.2479 7.05687L18.0312 8.08594L19.2479 9.11492C19.7611 9.54895 19.8989 10.2342 19.583 10.7813C19.2673 11.3282 18.6051 11.5514 17.9724 11.3242L16.4732 10.7854L16.1903 12.353Z"/>
<path d="M38.0883 4.04306C37.3529 2.76916 35.9887 2.04502 34.5607 2.06712C33.8674 0.818656 32.5566 0 31.0857 0C29.6148 0 28.3039 0.818656 27.6106 2.06712C26.1822 2.04511 24.8184 2.76925 24.0831 4.04288C23.3475 5.31677 23.4012 6.86128 24.1357 8.08585C23.4012 9.31042 23.3475 10.8548 24.083 12.1287C24.8184 13.4026 26.1822 14.1265 27.6105 14.1047C28.3039 15.3532 29.6147 16.1719 31.0857 16.1719C32.5567 16.1719 33.8674 15.3532 34.5607 14.1048C35.9905 14.1284 37.353 13.4027 38.0883 12.1289C38.8237 10.855 38.7701 9.31051 38.0356 8.08594C38.7702 6.86137 38.8237 5.31686 38.0883 4.04306ZM35.4188 9.11492C35.932 9.54895 36.0698 10.2342 35.754 10.7813C35.4382 11.3282 34.776 11.5514 34.1433 11.3242L32.6442 10.7854L32.3613 12.3531C32.242 13.0145 31.7174 13.4766 31.0857 13.4766C30.454 13.4766 29.9294 13.0145 29.8101 12.353L29.5272 10.7853L28.028 11.3241C27.3954 11.5515 26.7331 11.3282 26.4174 10.7812C26.1015 10.2342 26.2394 9.54895 26.7525 9.11492L27.9693 8.08594L26.7525 7.05696C26.2393 6.62283 26.1014 5.93768 26.4174 5.39054C26.7332 4.84366 27.3954 4.62057 28.028 4.8477L29.5272 5.38658L29.8101 3.8189C29.9294 3.15738 30.454 2.69531 31.0857 2.69531C31.7174 2.69531 32.242 3.15738 32.3613 3.8189L32.6442 5.38658L34.1433 4.8477C34.776 4.62048 35.4382 4.84357 35.754 5.39062C36.0699 5.93759 35.932 6.62283 35.4188 7.05687L34.2022 8.08594L35.4188 9.11492Z"/>
<path d="M29.7383 6.73828H32.4336V9.43359H29.7383V6.73828Z"/>
<path d="M13.5664 6.73828H16.2617V9.43359H13.5664V6.73828Z"/>
</svg>
