<svg width="46" height="46" viewBox="0 0 46 46" xmlns="http://www.w3.org/2000/svg">
<path d="M46 8.08594V0H37.9141V2.69531H8.08594V0H0V8.08594H2.69531V43.3047H0V46H8.08594V43.3047H5.39062V8.08594H8.08594V5.39062H13.9042L15.9969 12.5428C11.3452 15.0468 8.17578 19.9627 8.17578 25.6055C8.17578 33.7795 14.8259 40.4297 23 40.4297C31.1741 40.4297 37.8242 33.7795 37.8242 25.6055C37.8242 19.9627 34.6548 15.0468 30.003 12.5428L32.0958 5.39062H37.9141V8.08594H40.6094V43.3047H37.9141V46H46V43.3047H43.3047V8.08594H46ZM5.39062 5.39062H2.69531V2.69531H5.39062V5.39062ZM35.1289 25.6055C35.1289 32.2933 29.6879 37.7344 23 37.7344C16.3121 37.7344 10.8711 32.2933 10.8711 25.6055C10.8711 18.9176 16.3121 13.4766 23 13.4766C29.6879 13.4766 35.1289 18.9176 35.1289 25.6055ZM27.5051 11.4819C26.0837 11.0275 24.5702 10.7812 23 10.7812C21.4298 10.7812 19.9163 11.0275 18.4949 11.4819L16.7126 5.39062H29.2874L27.5051 11.4819ZM40.6094 2.69531H43.3047V5.39062H40.6094V2.69531Z"/>
<path d="M16.2617 25.6055C16.2617 29.321 19.2845 32.3438 22.9999 32.3438C26.7154 32.3438 29.7382 29.321 29.7382 25.6055C29.7382 21.89 26.7154 18.8672 22.9999 18.8672C19.2845 18.8672 16.2617 21.89 16.2617 25.6055ZM27.0429 25.6055C27.0429 27.8348 25.2292 29.6484 22.9999 29.6484C20.7706 29.6484 18.957 27.8348 18.957 25.6055C18.957 23.3762 20.7706 21.5625 22.9999 21.5625C25.2292 21.5625 27.0429 23.3762 27.0429 25.6055Z"/>
<path d="M13.5665 43.3047H32.4337V46H13.5665V43.3047Z"/>
</svg>
