<svg width="46" height="46" viewBox="0 0 46 46" xmlns="http://www.w3.org/2000/svg">
<path d="M40.5195 21.8755V16.3516H43.2148V13.6562H40.5195V10.9609H37.8242V13.6562H35.1289V16.3516H37.8242V21.8778C36.718 22.1033 35.7096 22.6007 34.8719 23.2969C33.8107 18.2278 29.5751 14.3121 24.3477 13.7315V5.39062H27.043V2.69531H24.3477V0H21.6523V2.69531H18.957V5.39062H21.6523V13.7315C16.4249 14.3121 12.1893 18.2278 11.1281 23.297C10.2903 22.6008 9.28203 22.1033 8.17578 21.8779V16.3516H10.8711V13.6562H8.17578V10.9609H5.48047V13.6562H2.78516V16.3516H5.48047V21.8755C2.43593 22.4838 0 25.1697 0 28.4805V46H46V28.4805C46 25.1689 43.5633 22.4837 40.5195 21.8755ZM10.8711 43.3047H2.69531V28.4805C2.69531 26.2889 4.58787 24.4375 6.82812 24.4375C9.05742 24.4375 10.8711 26.2512 10.8711 28.4805V43.3047ZM32.4336 43.3047H13.5664V28.4805V25.7852C13.5664 20.5835 17.7983 16.3516 23 16.3516C28.2017 16.3516 32.4336 20.5835 32.4336 25.7852V28.4805V43.3047ZM43.3047 43.3047H35.1289V28.4805C35.1289 26.2512 36.9426 24.4375 39.1719 24.4375C41.4121 24.4375 43.3047 26.2889 43.3047 28.4805V43.3047Z"/>
<path d="M37.8242 27.1328H40.5195V29.8281H37.8242V27.1328Z"/>
<path d="M37.8242 32.5234H40.5195V35.2188H37.8242V32.5234Z"/>
<path d="M5.48041 32.5234H8.17572V35.2188H5.48041V32.5234Z"/>
<path d="M5.48041 27.1328H8.17572V29.8281H5.48041V27.1328Z"/>
<path d="M23.0001 27.1328C25.2294 27.1328 27.043 25.3191 27.043 23.0898C27.043 20.8606 25.2294 19.0469 23.0001 19.0469C20.7708 19.0469 18.9571 20.8606 18.9571 23.0898C18.9571 25.3191 20.7708 27.1328 23.0001 27.1328ZM23.0001 21.7422C23.7432 21.7422 24.3477 22.3467 24.3477 23.0898C24.3477 23.8329 23.7432 24.4375 23.0001 24.4375C22.257 24.4375 21.6524 23.8329 21.6524 23.0898C21.6524 22.3467 22.257 21.7422 23.0001 21.7422Z"/>
<path d="M16.2617 29.8281H29.7382V32.5234H16.2617V29.8281Z"/>
<path d="M18.9571 35.2188H27.043V37.9141H18.9571V35.2188Z"/>
</svg>
