<svg width="46" height="46" viewBox="0 0 46 46" xmlns="http://www.w3.org/2000/svg">
<path d="M13.5665 37.9141H16.2618V40.6094H13.5665V37.9141Z"/>
<path d="M21.6523 37.9141H24.3476V40.6094H21.6523V37.9141Z"/>
<path d="M29.7383 37.9141H32.4337V40.6094H29.7383V37.9141Z"/>
<path d="M44.6523 29.8281H46V27.1328H44.6523C42.4505 27.1328 40.492 28.1942 39.2617 29.8323C38.0314 28.1942 36.0729 27.1328 33.8711 27.1328H32.5234V29.8281H33.8711C36.1004 29.8281 37.9141 31.6418 37.9141 33.8711V34.8131C35.1769 33.9325 31.4804 33.042 27.043 32.6858V16.3516H35.1289V8.26562H27.043V0H18.957V8.26562H10.8711V16.3516H18.957V32.6858C14.5196 33.042 10.8231 33.9325 8.08594 34.8131V33.8711C8.08594 31.6418 9.89961 29.8281 12.1289 29.8281H13.4766V27.1328H12.1289C9.92711 27.1328 7.9686 28.1942 6.73828 29.8323C5.50796 28.1942 3.54946 27.1328 1.34766 27.1328H0V29.8281H1.34766C3.57695 29.8281 5.39062 31.6418 5.39062 33.8711V35.7822C2.66387 36.8701 1.22987 37.7308 0 38.5361V46H46V38.5361C44.7659 37.728 43.3842 36.8892 40.6094 35.7822V33.8711C40.6094 31.6418 42.423 29.8281 44.6523 29.8281ZM13.5664 13.6562V10.9609H21.6523V2.69531H24.3477V10.9609H32.4336V13.6562H24.3477V32.5415C23.9045 32.5297 23.4553 32.5234 23 32.5234C22.5447 32.5234 22.0955 32.5297 21.6523 32.5415V13.6562H13.5664ZM43.3047 43.3047H2.69531V40.0269C6.35447 37.9646 13.5974 35.2188 23 35.2188C27.7291 35.2188 33.0936 35.9231 38.3264 37.7995C40.7578 38.6714 42.4611 39.5516 43.3047 40.0273V43.3047Z"/>
</svg>
