<svg width="46" height="46" viewBox="0 0 46 46" xmlns="http://www.w3.org/2000/svg">
<g clip-path="url(#clip0_576_12271)">
<path d="M40.5175 27.0861V17.5194C40.5175 9.87447 35.527 3.10176 28.2641 0.80864C25.8263 0.0390568 23.2813 -0.183391 20.6992 0.147945C11.9924 1.26504 5.47921 9.05988 5.47921 18.082V27.0862C2.43538 27.6944 -0.00112915 30.3797 -0.00112915 33.6909V45.9993H45.9978V33.6909C45.9978 30.3794 43.561 27.6942 40.5175 27.0861ZM8.17446 18.082C8.17446 9.86962 14.4294 2.69388 23.0225 2.69388C31.3195 2.69388 37.8222 9.50235 37.8222 17.5195V28.3005C37.8222 30.0573 36.6955 31.5552 35.127 32.1115C35.127 30.5017 35.127 19.0429 35.127 17.5195C35.127 10.8317 29.6861 5.39083 22.9983 5.39083C16.3106 5.39083 10.8697 10.8317 10.8697 17.5195V32.1115C9.30116 31.5552 8.17446 30.0573 8.17446 28.3005V18.082ZM13.565 24.2575H16.2602V29.648H29.7365V24.2575H32.4317V32.3432H13.565V24.2575ZM32.4317 21.5622H27.0412V26.9527H24.346V21.5622H21.6507V26.9527H18.9555V21.5622H13.565V17.5194C13.565 12.3178 17.7968 8.08599 22.9983 8.08599C28.1999 8.08599 32.4317 12.3178 32.4317 17.5194V21.5622ZM43.3025 43.3039H37.8222V37.7337H35.127V43.3039H10.8697V37.7337H8.17446V43.3039H2.69412V33.6909C2.69412 31.8959 3.96412 30.3298 5.65449 29.8217C6.34627 32.8065 9.02508 35.0385 12.2173 35.0385H33.7793C36.9715 35.0385 39.6504 32.8065 40.3422 29.8217C42.0326 30.3299 43.3025 31.8959 43.3025 33.6909V43.3039Z"/>
<path d="M15.6472 16.035L16.852 13.6255L22.2399 16.3194L21.0352 18.729L15.6472 16.035Z"/>
<path d="M23.729 16.313L29.117 13.6191L30.3218 16.0286L24.9338 18.7226L23.729 16.313Z"/>
</g>
<defs>
<clipPath id="clip0_576_12271">
<rect width="46" height="46"/>
</clipPath>
</defs>
</svg>
