<svg width="46" height="46" viewBox="0 0 46 46" xmlns="http://www.w3.org/2000/svg">
<path d="M40.5195 29.8281H32.4336V10.7812H29.7383V29.8281H24.3476V10.7812H21.6523V29.8281H16.2617V10.7812H13.5664V29.8281H5.48044V32.5234H8.17575V36.5664C8.17575 39.8205 10.4944 42.543 13.5664 43.1691V46H16.2617V43.3047H29.7383V46H32.4336V43.1691C35.5055 42.5431 37.8242 39.8205 37.8242 36.5664V32.5234H40.5195V29.8281ZM35.1289 36.5664C35.1289 38.7957 33.3152 40.6094 31.0859 40.6094C30.3654 40.6094 16.0798 40.6094 14.914 40.6094C12.6847 40.6094 10.8711 38.7957 10.8711 36.5664V32.5234H35.1289V36.5664Z"/>
<path d="M16.2617 6.73828C16.2617 5.99518 16.8662 5.39062 17.6093 5.39062C19.8386 5.39062 21.6523 3.57695 21.6523 1.34766V0H18.957V1.34766C18.957 2.09075 18.3524 2.69531 17.6093 2.69531C15.3801 2.69531 13.5664 4.50899 13.5664 6.73828V8.08594H16.2617V6.73828Z"/>
<path d="M21.6523 8.08594H24.3476V6.73828C24.3476 5.99518 24.9522 5.39062 25.6953 5.39062C27.9246 5.39062 29.7383 3.57695 29.7383 1.34766V0H27.0429V1.34766C27.0429 2.09075 26.4384 2.69531 25.6953 2.69531C23.466 2.69531 21.6523 4.50899 21.6523 6.73828V8.08594Z"/>
<path d="M29.7383 8.08594H32.4336V6.73828C32.4336 5.99518 33.0381 5.39062 33.7812 5.39062C36.0105 5.39062 37.8242 3.57695 37.8242 1.34766V0H35.1289V1.34766C35.1289 2.09075 34.5243 2.69531 33.7812 2.69531C31.5519 2.69531 29.7383 4.50899 29.7383 6.73828V8.08594Z"/>
</svg>
