<svg width="46" height="46" viewBox="0 0 46 46" xmlns="http://www.w3.org/2000/svg">
<path d="M37.8242 16.3516V0H8.17578V16.3516H0V46H46V16.3516H37.8242ZM41.7628 19.0469L37.8242 23.7418V19.0469H41.7628ZM35.1289 2.69531V26.9548L30.4574 32.5234H15.5426L10.8711 26.9548V2.69531H35.1289ZM8.17578 23.7418L4.23721 19.0469H8.17578V23.7418ZM2.69531 43.3047V21.4026L14.2855 35.2188H31.7144L43.3047 21.4026V43.3047H2.69531Z"/>
<path d="M21.6524 19.0469H24.3477V10.9609H27.043V8.26562H24.3477V5.57031H21.6524V8.26562H18.9571V10.9609H21.6524V19.0469Z"/>
<path d="M18.9571 21.7422H27.043V24.4375H18.9571V21.7422Z"/>
<path d="M16.2617 27.1328H29.7382V29.8281H16.2617V27.1328Z"/>
</svg>
