<svg width="46" height="46" viewBox="0 0 46 46" xmlns="http://www.w3.org/2000/svg">
<g clip-path="url(#clip0_576_12399)">
<path d="M24.3445 10.7792H21.6497V13.474H18.9549V16.1688H21.6497V24.2531H24.3445V16.1688H27.0393V13.474H24.3445V10.7792Z"/>
<path d="M22.9984 0C13.3399 0 5.48218 7.85776 5.48218 17.5162C5.48218 20.0638 6.00874 22.5034 7.04723 24.7672C8.26509 27.4219 8.64192 27.5651 22.9984 46C38.1296 26.572 37.7776 27.3273 38.9529 24.764C39.9891 22.504 40.5145 20.0655 40.5145 17.5162C40.5145 7.85776 32.6569 0 22.9984 0V0ZM34.6094 26.7062C34.2534 27.1636 23.0055 41.6077 22.9984 41.6168L11.6525 27.0621C11.1964 26.3735 8.17697 23.2044 8.17697 17.5162C8.17697 9.34367 14.8258 2.6948 22.9984 2.6948C31.1709 2.6948 37.8197 9.34367 37.8197 17.5162C37.8197 22.5824 35.4035 25.6862 34.6094 26.7062Z"/>
<path d="M22.9986 5.38983C16.312 5.38983 10.872 10.8298 10.872 17.5164C10.872 24.203 16.312 29.643 22.9986 29.643C29.6852 29.643 35.1252 24.203 35.1252 17.5164C35.1252 10.8298 29.6853 5.38983 22.9986 5.38983ZM22.9986 26.9482C17.7979 26.9482 13.5668 22.7171 13.5668 17.5164C13.5668 12.3157 17.7979 8.08463 22.9986 8.08463C28.1993 8.08463 32.4304 12.3157 32.4304 17.5164C32.4304 22.7171 28.1993 26.9482 22.9986 26.9482Z"/>
</g>
<defs>
<clipPath id="clip0_576_12399">
<rect width="46" height="46"/>
</clipPath>
</defs>
</svg>
