<svg width="46" height="46" viewBox="0 0 46 46" xmlns="http://www.w3.org/2000/svg">
<path d="M35.7225 32.3438L29.4334 8.08594H25.6953C24.6606 8.08594 23.7159 8.47712 23 9.11869C22.2841 8.47712 21.3394 8.08594 20.3047 8.08594H16.5666L10.2775 32.3438H0V46H17.6094C19.8113 46 21.7696 44.9382 23 43.3C24.2304 44.9382 26.1887 46 28.3906 46H46V32.3438H35.7225ZM17.6094 43.3047H2.69531V35.0391H12.3631L18.6522 10.7812H20.3047C21.0478 10.7812 21.6523 11.3858 21.6523 12.1289V24.2578H20.3047C18.0754 24.2578 16.2617 26.0715 16.2617 28.3008V39.2617H18.957V28.3008C18.957 27.5577 19.5616 26.9531 20.3047 26.9531H21.6523V39.2617C21.6523 41.491 19.8387 43.3047 17.6094 43.3047ZM43.3047 43.3047H28.3906C26.1613 43.3047 24.3477 41.491 24.3477 39.2617V26.9531H25.6953C26.4384 26.9531 27.043 27.5577 27.043 28.3008V39.2617H29.7383V28.3008C29.7383 26.0715 27.9246 24.2578 25.6953 24.2578H24.3477V12.1289C24.3477 11.3858 24.9522 10.7812 25.6953 10.7812H27.3478L33.6369 35.0391H43.3047V43.3047Z"/>
<path d="M36.5713 5.23205C35.0871 3.887 33.4192 2.7732 31.6138 1.92175L30.4641 4.35957C32.0286 5.09746 33.4744 6.06292 34.7614 7.22918L36.5713 5.23205Z"/>
<path d="M39.4676 26.2073L42.0003 27.1292C42.6827 25.2544 43.0817 23.288 43.1862 21.2846L40.4945 21.1442C40.404 22.8804 40.0584 24.5839 39.4676 26.2073Z"/>
<path d="M42.6253 15.3516C42.1462 13.4118 41.3811 11.5572 40.3517 9.83902L38.0397 11.2243C38.9313 12.7125 39.5938 14.3185 40.0088 15.9981L42.6253 15.3516Z"/>
<path d="M6.57754 26.3319C5.97406 24.713 5.61549 23.0125 5.5119 21.2774L2.82144 21.4381C2.94102 23.4405 3.35511 25.4037 4.05203 27.2734L6.57754 26.3319Z"/>
<path d="M7.89022 11.3394L5.56758 9.97177C4.55145 11.6975 3.8008 13.5581 3.33658 15.5019L5.95813 16.1281C6.36009 14.4452 7.0102 12.834 7.89022 11.3394Z"/>
<path d="M22.9999 2.69531H23.0007C23.8439 2.69531 24.6911 2.75569 25.519 2.87482L25.9027 0.207C24.9482 0.0696289 23.9718 0 23.0007 0C23.0003 0 23.0001 0 22.9997 0C21.977 0 20.9492 0.0772656 19.945 0.229641L20.3493 2.8945C21.2203 2.76234 22.1119 2.69531 22.9999 2.69531Z"/>
<path d="M15.4137 4.41764L14.2452 1.9888C12.4465 2.85409 10.7874 3.98046 9.31366 5.33656L11.1387 7.31986C12.4166 6.14398 13.8549 5.16756 15.4137 4.41764Z"/>
</svg>
