<svg width="46" height="46" viewBox="0 0 46 46" xmlns="http://www.w3.org/2000/svg">
<path d="M32.4336 12.1289C32.4336 9.90177 32.4336 5.27275 32.4336 4.04297C32.4336 1.81368 30.6199 0 28.3907 0H17.6094C15.3801 0 13.5664 1.81368 13.5664 4.04297V12.1289C13.5664 17.3306 17.7983 21.5625 23 21.5625C28.2017 21.5625 32.4336 17.3306 32.4336 12.1289ZM16.2617 4.04297C16.2617 3.29987 16.8663 2.69531 17.6094 2.69531H28.3907C29.1338 2.69531 29.7383 3.29987 29.7383 4.04297V5.39062V5.41686C26.3451 5.55127 24.4307 6.18844 22.5738 6.80746C20.8483 7.38264 19.2064 7.92997 16.2617 8.05791C16.2617 5.99581 16.2617 6.07883 16.2617 4.04297ZM23 18.8672C19.2845 18.8672 16.2617 15.8444 16.2617 12.1289V10.755C19.655 10.6206 21.5694 9.98344 23.4262 9.36441C25.1518 8.78924 26.7937 8.24191 29.7383 8.11397V12.1289C29.7383 15.8444 26.7155 18.8672 23 18.8672Z"/>
<path d="M36.5664 21.5625H23H9.43359C4.23191 21.5625 0 25.7944 0 30.9961V46H46V30.9961C46 25.7944 41.7681 21.5625 36.5664 21.5625ZM35.2188 43.3047H32.4336V24.2578H35.2188V43.3047ZM29.7383 24.2578V43.3047H16.2617V24.2578H29.7383ZM10.7812 24.2578H13.5664V43.3047H10.7812V24.2578ZM2.69531 30.9961C2.69531 27.742 5.014 25.0195 8.08594 24.3934V43.3047H2.69531V30.9961ZM43.3047 43.3047H37.9141V24.3934C40.986 25.0194 43.3047 27.742 43.3047 30.9961V43.3047Z"/>
<path d="M18.9571 32.3438H21.6524V40.4297H24.3477V32.3438H27.043V29.6484H24.3477V26.9531H21.6524V29.6484H18.9571V32.3438Z"/>
</svg>
