<svg width="46" height="46" viewBox="0 0 46 46" xmlns="http://www.w3.org/2000/svg">
<path d="M0 0V46H46V0H0ZM43.3047 43.3047H2.69531V2.69531H43.3047V43.3047Z"/>
<path d="M40.5195 5.39062H5.48041V35.2188H40.5195V5.39062ZM37.8242 8.08594V18.8672H21.1376L17.1855 10.9631L14.4097 22.0663L12.5436 18.8672H8.17572V8.08594H37.8242ZM8.17572 32.5234V21.5625H10.9954L15.4183 29.1447L18.0331 18.6853L19.4717 21.5625H37.8242V32.5234H8.17572Z"/>
<path d="M33.7812 40.6094C34.5255 40.6094 35.1288 40.006 35.1288 39.2617C35.1288 38.5174 34.5255 37.9141 33.7812 37.9141C33.0369 37.9141 32.4335 38.5174 32.4335 39.2617C32.4335 40.006 33.0369 40.6094 33.7812 40.6094Z"/>
<path d="M39.1718 40.6094C39.9161 40.6094 40.5195 40.006 40.5195 39.2617C40.5195 38.5174 39.9161 37.9141 39.1718 37.9141C38.4275 37.9141 37.8242 38.5174 37.8242 39.2617C37.8242 40.006 38.4275 40.6094 39.1718 40.6094Z"/>
<path d="M28.3906 40.6094C29.1349 40.6094 29.7382 40.006 29.7382 39.2617C29.7382 38.5174 29.1349 37.9141 28.3906 37.9141C27.6463 37.9141 27.0429 38.5174 27.0429 39.2617C27.0429 40.006 27.6463 40.6094 28.3906 40.6094Z"/>
<path d="M5.48041 37.9141H18.957V40.6094H5.48041V37.9141Z"/>
</svg>
