<svg width="46" height="46" viewBox="0 0 46 46" xmlns="http://www.w3.org/2000/svg">
<g clip-path="url(#clip0_576_12337)">
<path d="M36.4716 0L35.5188 0.952896C33.9972 2.47455 33.3148 4.56433 33.6182 6.66497L15.2976 24.9856L9.58041 19.2684L8.62761 20.2213C5.90816 22.9408 3.79413 25.8948 2.34444 29.0014C1.17584 31.5057 0.434782 34.1118 0.141915 36.7476C-0.361529 41.2775 0.636465 44.3407 0.679138 44.4689L0.89223 45.1081L1.53142 45.3212C1.63392 45.3553 3.61203 46.0001 6.71633 46C10.1069 45.9998 13.6106 45.2372 16.999 43.6559C20.1055 42.2062 23.0596 40.0923 25.779 37.3727L26.7318 36.4199L21.0146 30.7027L39.3354 12.382C41.4719 12.6902 43.5491 11.9797 45.0473 10.4815L46.0002 9.5286L36.4716 0ZM22.9021 36.4015C18.6792 40.3074 14.0398 42.5808 9.09413 43.1639C6.28287 43.4954 4.10604 43.1629 3.06223 42.9364C2.53372 40.5057 1.4467 31.9305 9.59928 23.0987L13.3919 26.8913L13.2284 27.0548C11.2359 29.0473 10.1386 31.6964 10.1386 34.5142V35.8618H11.4861C14.3039 35.8618 16.953 34.7645 18.9454 32.7719L19.1089 32.6084L22.9021 36.4015ZM17.0398 30.8662C15.9133 31.9928 14.5047 32.7349 12.9735 33.0269C13.2654 31.4956 14.0076 30.087 15.1341 28.9604L34.6623 9.43221C34.664 9.43472 34.6658 9.43715 34.6675 9.43966C34.9206 9.82165 35.2175 10.1802 35.5187 10.4815C35.8448 10.8075 36.2076 11.0991 36.5613 11.3333C36.5635 11.3349 36.5657 11.3365 36.568 11.338L17.0398 30.8662ZM37.4244 8.5758C36.2223 7.3736 35.9005 5.5077 36.6336 3.97356L42.0267 9.36654C40.4921 10.0999 38.6253 9.77664 37.4244 8.5758Z"/>
</g>
<defs>
<clipPath id="clip0_576_12337">
<rect width="46" height="46"/>
</clipPath>
</defs>
</svg>
