<svg width="46" height="46" viewBox="0 0 46 46" xmlns="http://www.w3.org/2000/svg">
<path d="M15.6519 10.9231L21.04 8.22904L22.2448 10.6387L16.8567 13.3327L15.6519 10.9231Z"/>
<path d="M23.7342 10.6484L24.939 8.23883L30.3271 10.9329L29.1223 13.3425L23.7342 10.6484Z"/>
<path d="M33.7812 27.1328H24.3476V24.2578H29.7382V18.8672H35.1289V12.1289C35.1289 5.44103 29.6878 0 23 0C16.3121 0 10.871 5.44103 10.871 12.1289V18.8672H16.2617V24.2578H21.6523V27.1328H12.2187C8.50322 27.1328 5.48042 30.1556 5.48042 33.8711V46H8.17574V33.8711C8.17574 31.6418 9.98941 29.8281 12.2187 29.8281H21.6523V32.5234H13.5664V35.2188H21.6523V37.9141H10.871V40.6094H21.6523V43.3047H10.871V46H35.1289V43.3047H24.3476V40.6094H35.1289V37.9141H24.3476V35.2188H32.4335V32.5234H24.3476V29.8281H33.7812C36.0105 29.8281 37.8242 31.6418 37.8242 33.8711V46H40.5195V33.8711C40.5195 30.1556 37.4967 27.1328 33.7812 27.1328ZM13.5664 16.1719V12.1289C13.5664 6.92722 17.7983 2.69531 23 2.69531C28.2016 2.69531 32.4335 6.92722 32.4335 12.1289V16.1719H27.0429V21.5625H24.3476V16.1719H21.6523V21.5625H18.957V16.1719H13.5664Z"/>
</svg>
