<svg width="46" height="46" viewBox="0 0 46 46" xmlns="http://www.w3.org/2000/svg">
<path d="M27.043 32.5234H29.7383V35.2188H27.043V32.5234Z"/>
<path d="M27.043 37.9141H29.7383V40.6094H27.043V37.9141Z"/>
<path d="M28.5809 0H17.489L2.78519 4.77609V40.6094H8.17581V46H17.6094C19.8113 46 21.7696 44.9382 23 43.3C24.2304 44.9382 26.1888 46 28.3907 46H37.8242V40.6094H43.2149C43.2149 39.0058 43.2149 7.37357 43.2149 4.21466L28.5809 0ZM30.9411 18.4538L25.1944 24.2006L29.102 4.66226L33.2233 10.432L29.5482 12.8821L30.9411 18.4538ZM12.7767 10.432L16.8979 4.66226L20.8056 24.2006L15.0588 18.4538L16.4518 12.8821L12.7767 10.432ZM19.2533 2.69531H26.7468L23 21.4291L19.2533 2.69531ZM5.4805 37.9141V35.2188H8.17581V37.9141H5.4805ZM17.6094 43.3047H10.8711C10.8711 41.8089 10.8711 17.7096 10.8711 16.1719H8.17581V32.5234H5.4805V6.7346L14.1069 3.93255L8.96554 11.1305L13.3764 14.0711L12.074 19.2806L21.6524 28.859V39.2617C21.6524 41.491 19.8387 43.3047 17.6094 43.3047ZM40.5196 37.9141H37.8242V35.2188H40.5196V37.9141ZM37.8242 32.5234V16.1719H35.1289V43.3047H28.3907C26.1614 43.3047 24.3477 41.491 24.3477 39.2617C24.3477 37.149 24.3477 31.3051 24.3477 28.859L33.9261 19.2806L32.6237 14.0711L37.0346 11.1305L31.737 3.71378L40.5196 6.24324V32.5234H37.8242Z"/>
</svg>
