<svg width="46" height="46" viewBox="0 0 46 46" xmlns="http://www.w3.org/2000/svg">
<g clip-path="url(#clip0_576_12319)">
<path d="M16.1719 12.6134H18.8672V9.91809H16.1719V7.22278H13.4766V9.91809H10.7812V12.6134H13.4766V20.6993H16.1719V12.6134Z"/>
<path d="M32.3438 11.2657H29.6484C29.5585 11.2657 29.4683 11.2679 29.3782 11.2696C28.1277 5.12385 22.6815 0.484497 16.1719 0.484497H13.4766C6.04559 0.484497 0 6.53008 0 13.9611C0 19.3395 3.212 24.1887 8.08594 26.3161V34.7341L15.3824 27.4376H16.1719C16.2621 27.4376 16.3519 27.436 16.4418 27.4342C17.6997 33.6322 23.1708 38.2189 29.6484 38.2189H30.4379L37.7344 45.5154V37.0972C42.5785 34.9827 46 30.2118 46 24.7423C46 17.2572 39.7527 11.2657 32.3438 11.2657ZM14.266 24.7423L10.7812 28.2271V24.4468L9.88272 24.1292C5.5837 22.6097 2.69531 18.5235 2.69531 13.9611C2.69531 8.01628 7.53178 3.17981 13.4766 3.17981H16.1719C22.1167 3.17981 26.9531 8.01628 26.9531 13.9611C26.9531 19.9155 22.1061 24.7423 16.1719 24.7423H14.266ZM35.9376 34.9105L35.0391 35.2281V39.0083L31.5543 35.5236H29.6484C24.5312 35.5236 20.209 31.9852 19.1267 27.1104C25.1412 25.7598 29.6484 20.3773 29.6484 13.9611H32.3438C38.3876 13.9611 43.3047 18.7975 43.3047 24.7423C43.3047 29.2668 40.3441 33.353 35.9376 34.9105Z"/>
</g>
<defs>
<clipPath id="clip0_576_12319">
<rect width="46" height="46"/>
</clipPath>
</defs>
</svg>
