<svg width="46" height="46" viewBox="0 0 46 46" xmlns="http://www.w3.org/2000/svg">
<path d="M0 46H35.0391V0H0V46ZM2.69531 2.69531H32.3438V43.3047H2.69531V2.69531Z"/>
<path d="M16.1719 19.0469H18.8672V10.9609H21.5625V8.26562H18.8672V5.57031H16.1719V8.26562H13.4766V10.9609H16.1719V19.0469Z"/>
<path d="M8.08594 21.7422H26.9531V24.4375H8.08594V21.7422Z"/>
<path d="M5.39062 27.1328H29.6484V29.8281H5.39062V27.1328Z"/>
<path d="M9.43359 32.5234C7.2043 32.5234 5.39062 34.3371 5.39062 36.5664C5.39062 38.7957 7.2043 40.6094 9.43359 40.6094C11.6629 40.6094 13.4766 38.7957 13.4766 36.5664C13.4766 34.3371 11.6629 32.5234 9.43359 32.5234ZM9.43359 37.9141C8.6905 37.9141 8.08594 37.3095 8.08594 36.5664C8.08594 35.8233 8.6905 35.2188 9.43359 35.2188C10.1767 35.2188 10.7812 35.8233 10.7812 36.5664C10.7812 37.3095 10.1767 37.9141 9.43359 37.9141Z"/>
<path d="M28.1586 35.9637C27.7672 35.181 27.1122 33.8711 25.6055 33.8711C24.0987 33.8711 23.4437 35.181 23.0524 35.9637C23.0104 36.0476 22.9609 36.1466 22.9102 36.2436C22.8593 36.1466 22.8098 36.0476 22.7679 35.9637C22.3766 35.181 21.7216 33.8711 20.2148 33.8711C18.7081 33.8711 18.0531 35.181 17.6618 35.9637C17.5671 36.153 17.4339 36.4194 17.3336 36.5664H16.1719V39.2617H17.5195C19.0263 39.2617 19.6813 37.9518 20.0726 37.1691C20.1146 37.0853 20.1641 36.9862 20.2148 36.8892C20.2657 36.9862 20.3152 37.0853 20.3571 37.1691C20.7484 37.9518 21.4034 39.2617 22.9102 39.2617C24.4169 39.2617 25.0719 37.9518 25.4632 37.1691C25.5052 37.0853 25.5547 36.9862 25.6055 36.8892C25.6563 36.9862 25.7058 37.0853 25.7477 37.1691C26.1391 37.9518 26.794 39.2617 28.3008 39.2617H29.6484V36.5664H28.4867C28.3864 36.4194 28.2532 36.153 28.1586 35.9637Z"/>
<path d="M43.3047 8.26562V5.57031H40.6094V8.26562H37.9141V36.8845L41.957 44.9705L46 36.8845C46 35.7229 46 9.30215 46 8.26562H43.3047ZM43.3047 36.2483L41.957 38.9436L40.6094 36.2483V35.2188H43.3047V36.2483ZM40.6094 32.5234V10.9609H43.3047V32.5234H40.6094Z"/>
</svg>
