<svg width="46" height="46" viewBox="0 0 46 46" xmlns="http://www.w3.org/2000/svg">
<g clip-path="url(#clip0_576_12315)">
<path d="M45.9999 5.74533L40.283 0.0283813L38.3773 1.93409L36.4717 0.0284712L34.5661 1.93409L36.4717 3.83971L34.5661 5.74533L32.6604 3.83971L30.7547 5.74533L32.6604 7.65096L25.4457 14.8656C23.9312 14.0238 22.3734 13.5292 20.8881 13.4266C19.1847 13.3092 17.6383 13.7145 16.3472 14.6024L6.73356 4.98885L4.82794 6.89447L14.4281 16.4946C13.7859 17.3361 13.2148 18.3178 12.7461 19.3927L12.4814 19.9998L12.8003 20.5802C13.6969 22.2118 13.2439 23.3695 12.5837 23.8651C11.9399 24.3483 10.7414 24.4658 9.48226 23.2067C9.26119 22.9857 9.10335 22.7077 9.01298 22.3806L8.65077 21.0691L7.34281 21.444C5.65476 21.9278 4.13048 22.8414 2.81246 24.1595C0.96864 26.0033 -0.00397914 28.3589 -0.000116331 30.9717C0.00455497 34.102 1.39723 37.5002 3.77474 40.2875L0.390836 43.6714L2.29646 45.5771L5.67731 42.1962C8.27608 44.4177 11.6967 45.9706 15.0612 45.9706C17.6932 45.9706 20.0614 45.0234 21.8689 43.2158C23.1871 41.8977 24.1007 40.3734 24.5845 38.6855L24.9594 37.3778L23.6481 37.0155C23.3208 36.9251 23.0429 36.7672 22.8218 36.5461C21.562 35.2862 21.6781 34.0888 22.1604 33.4463C22.6569 32.785 23.8161 32.331 25.4483 33.2279L26.0287 33.5468L26.6358 33.2822C27.7107 32.8136 28.6924 32.2425 29.5339 31.6002L39.0735 41.1399L40.9791 39.2342L31.4259 29.6812C32.3139 28.39 32.7195 26.8435 32.6017 25.1403C32.499 23.6548 32.0045 22.097 31.1626 20.5826L38.3773 13.3678L40.283 15.2734L42.1886 13.3678L40.2829 11.4622L42.1886 9.55658L44.0942 11.4623L45.9998 9.55667L44.0942 7.65096L45.9999 5.74533ZM42.1886 5.74533L38.3773 9.55667L36.4717 7.65105L40.283 3.83971L42.1886 5.74533ZM22.9851 21.1375L34.5661 9.55658L36.4717 11.4622L24.8908 23.0432L22.9851 21.1375ZM4.71817 26.0651C5.42901 25.3543 6.18819 24.8139 7.01788 24.4306C7.1803 24.6748 7.36679 24.9024 7.57673 25.1123C9.72571 27.2613 12.4156 27.3611 14.2017 26.0204C15.7261 24.8762 16.6403 22.5891 15.4741 19.9152C16.3095 18.2229 17.1622 17.4573 17.2767 17.3185C18.9475 15.6564 21.3535 15.9107 23.4406 16.871L19.174 21.1376L21.0493 23.013L12.3105 31.7518L10.435 29.8764L4.16938 36.142C3.22991 34.4355 2.69729 32.6225 2.69477 30.9677C2.69208 29.0867 3.39179 27.3915 4.71817 26.0651ZM5.71567 38.407L10.435 33.6876L12.3407 35.5932L7.62264 40.3113C7.27543 40.0247 6.94126 39.722 6.6237 39.4045C6.30452 39.0854 6.0017 38.7517 5.71567 38.407ZM28.7093 28.7525L28.6926 28.7692C28.0216 29.4378 27.1381 30.0485 26.1132 30.5543C23.4384 29.3879 21.1499 30.3032 20.005 31.8285C18.7859 33.4527 18.5947 36.1305 20.9161 38.4518C21.126 38.6617 21.3537 38.8482 21.5978 39.0106C21.2145 39.8402 20.6742 40.5994 19.9633 41.3103C17.3086 43.9649 13.3137 43.6936 9.89819 41.8472L16.1521 35.5933L14.2162 33.6574L22.955 24.9186L24.8909 26.8545L29.1575 22.5879C30.1179 24.6752 30.3722 27.0816 28.7093 28.7525Z"/>
</g>
<defs>
<clipPath id="clip0_576_12315">
<rect width="46" height="46"/>
</clipPath>
</defs>
</svg>
