<svg width="46" height="46" viewBox="0 0 46 46" xmlns="http://www.w3.org/2000/svg">
<path d="M10.7812 26.9463C15.3468 26.2903 18.8672 22.3536 18.8672 17.6094V2.78516H0V17.6094C0 22.3536 3.52044 26.2903 8.08594 26.9463V40.5195H2.69531V43.2148H16.1719V40.5195H10.7812V26.9463ZM2.69531 5.48047H16.1719V13.5664C13.0623 13.5664 11.5428 12.9586 9.93411 12.3152C8.15925 11.6052 6.32401 10.8711 2.69531 10.8711V5.48047ZM2.69531 17.6094V13.5664C5.80489 13.5664 7.32442 14.1742 8.93307 14.8177C10.7079 15.5276 12.5432 16.2617 16.1719 16.2617V17.6094C16.1719 21.3249 13.1491 24.3477 9.43359 24.3477C5.71811 24.3477 2.69531 21.3249 2.69531 17.6094Z"/>
<path d="M33.8711 21.6523H28.4805C21.7926 21.6523 16.3516 27.0934 16.3516 33.7812C16.3516 36.0105 18.1652 37.8242 20.3945 37.8242H41.957C44.1863 37.8242 46 36.0105 46 33.7812C46 27.0934 40.559 21.6523 33.8711 21.6523ZM41.957 35.1289H20.3945C19.6514 35.1289 19.0469 34.5243 19.0469 33.7812C19.0469 30.0256 21.2532 26.7759 24.4375 25.2591V29.7383H27.1328V24.4443C27.5731 24.3811 28.0229 24.3477 28.4805 24.3477H29.8281V29.7383H32.5234V24.3477H33.8711C34.3287 24.3477 34.7784 24.3811 35.2188 24.4443V29.7383H37.9141V25.2591C41.0984 26.7759 43.3047 30.0256 43.3047 33.7812C43.3047 34.5243 42.7001 35.1289 41.957 35.1289Z"/>
</svg>
