<svg width="46" height="46" viewBox="0 0 46 46" fill="none" xmlns="http://www.w3.org/2000/svg">
<g clip-path="url(#clip0_689_1990)">
<path d="M19.9989 6.40121C14.506 6.40121 10.0371 10.919 10.0371 16.472C10.0371 22.025 14.506 26.5428 19.9989 26.5428C25.4919 26.5428 29.9607 22.025 29.9607 16.472C29.9607 10.919 25.4919 6.40121 19.9989 6.40121ZM19.9989 24.3049C15.7266 24.3049 12.2508 20.791 12.2508 16.472C12.2508 12.153 15.7266 8.63917 19.9989 8.63917C24.2712 8.63917 27.747 12.153 27.747 16.472C27.747 20.791 24.2712 24.3049 19.9989 24.3049Z" fill="#6682D5"/>
<path fill-rule="evenodd" clip-rule="evenodd" d="M9.64062 16.4721C9.64062 10.6974 14.2872 6 19.9994 6C25.7116 6 30.3582 10.6974 30.3582 16.4721C30.3582 22.2468 25.7116 26.9442 19.9994 26.9442C14.2872 26.9442 9.64062 22.2468 9.64062 16.4721ZM19.9994 6.80264C14.7257 6.80264 10.4346 11.1407 10.4346 16.4721C10.4346 21.8035 14.7257 26.1416 19.9994 26.1416C25.2731 26.1416 29.5643 21.8035 29.5643 16.4721C29.5643 11.1407 25.2731 6.80264 19.9994 6.80264ZM19.9994 9.04059C15.9464 9.04059 12.6483 12.3747 12.6483 16.4721C12.6483 20.5695 15.9464 23.9036 19.9994 23.9036C24.0525 23.9036 27.3505 20.5695 27.3505 16.4721C27.3505 12.3747 24.0525 9.04059 19.9994 9.04059ZM11.8544 16.4721C11.8544 11.9314 15.5079 8.23795 19.9994 8.23795C24.4909 8.23795 28.1445 11.9314 28.1445 16.4721C28.1445 21.0128 24.4909 24.7063 19.9994 24.7063C15.5079 24.7063 11.8544 21.0128 11.8544 16.4721Z" fill="#6682D5"/>
<path d="M32.3939 34.1253C29.6666 31.3258 26.0511 29.784 22.2132 29.784H17.7858C13.948 29.784 10.3324 31.3258 7.60509 34.1253C4.89113 36.9111 3.39648 40.5884 3.39648 44.4799C3.39648 45.0979 3.89207 45.5989 4.50335 45.5989H35.4957C36.107 45.5989 36.6025 45.0979 36.6025 44.4799C36.6025 40.5884 35.1079 36.9111 32.3939 34.1253ZM5.65892 43.361C6.21346 37.0137 11.4405 32.022 17.7858 32.022H22.2132C28.5585 32.022 33.7856 37.0137 34.3401 43.361H5.65892Z" fill="#6682D5"/>
<path fill-rule="evenodd" clip-rule="evenodd" d="M7.32275 33.8438C10.1236 30.9688 13.8407 29.3828 17.7863 29.3828H22.2137C26.1594 29.3828 29.8764 30.9688 32.6772 33.8438C35.464 36.7043 37 40.4825 37 44.48C37 45.3197 36.3267 46.0003 35.4962 46.0003H4.50384C3.67331 46.0003 3 45.3197 3 44.48C3 40.4825 4.53603 36.7043 7.32275 33.8438ZM17.7863 30.1854C14.0564 30.1854 10.5422 31.683 7.88842 34.407C5.2472 37.1181 3.79395 40.6944 3.79395 44.48C3.79395 44.8764 4.1118 45.1977 4.50384 45.1977H35.4962C35.8882 45.1977 36.206 44.8764 36.206 44.48C36.206 40.6944 34.7528 37.1181 32.1116 34.407C29.4578 31.683 25.9437 30.1854 22.2137 30.1854H17.7863ZM6.10084 42.9597H33.8992C33.1666 37.0232 28.2014 32.4234 22.2137 32.4234H17.7863C11.7986 32.4234 6.83336 37.0232 6.10084 42.9597ZM5.26398 43.3257C5.83609 36.7773 11.2294 31.6208 17.7863 31.6208H22.2137C28.7706 31.6208 34.1639 36.7773 34.736 43.3257L34.7742 43.7624H5.22583L5.26398 43.3257Z" fill="#6682D5"/>
</g>
<defs>
<clipPath id="clip0_689_1990">
<rect width="46" height="46" fill="white"/>
</clipPath>
</defs>
</svg>
