<?xml version="1.0" encoding="utf-8"?>
<!-- Generator: Adobe Illustrator 26.0.2, SVG Export Plug-In . SVG Version: 6.00 Build 0)  -->
<svg version="1.1" id="Layer_1" xmlns="http://www.w3.org/2000/svg" xmlns:xlink="http://www.w3.org/1999/xlink" x="0px" y="0px"
	 viewBox="0 0 59.6 57.1" style="enable-background:new 0 0 59.6 57.1;" xml:space="preserve">
<style type="text/css">
	.st0{clip-path:url(#SVGID_00000042007833850298720440000003488974365109219239_);}
	.st1{fill:#6682D5;stroke:#6682D5;stroke-width:0.6;}
	.st2{fill:#6682D5;stroke:#6682D5;stroke-width:0.5;}
</style>
<g>
	<g>
		<defs>
			<rect id="SVGID_1_" x="0.3" y="0.8" width="59" height="56"/>
		</defs>
		<clipPath id="SVGID_00000055702048814816741630000001268535517760573588_">
			<use xlink:href="#SVGID_1_"  style="overflow:visible;"/>
		</clipPath>
		<g style="clip-path:url(#SVGID_00000055702048814816741630000001268535517760573588_);">
			<path class="st1" d="M9.7,52.4V17.1L3.4,19v33.4H9.7z M9.7,55.4v-1.5H3.4v1.5H9.7z M17.4,55.4v-1.5h-6.3v1.5H17.4z M18.9,53.9
				v1.5h6.3v-1.5H18.9z M25.9,0.8l-1.3,3.4l0.6,1.6h1.5l0.6-1.6L25.9,0.8z M2.6,8l-1.3,3.4L1.9,13h1.5L4,11.4L2.6,8z M23.6,6.8h4.7
				v1.5h-1.6v14.1h-1.4V12.3L19,14.2v8.4h-1.4v-7.9l-6.3,2v35.8h6.3V46H19v6.5h6.3V46h1.4v10.8H1.9V15.6H0.3v-1.4H5v1.4H3.4v1.9
				l6.3-1.9v-3.2h1.4v2.8l6.3-1.9V10h1.4v2.8l6.3-1.9V8.3h-1.6V6.8H23.6z"/>
			<path class="st1" d="M49.9,52.4V17.1l6.3,1.9v33.4H49.9z M49.9,55.4v-1.5h6.3v1.5H49.9z M42.2,55.4v-1.5h6.3v1.5H42.2z
				 M40.7,53.9v1.5h-6.3v-1.5H40.7z M33.7,0.8L35,4.2l-0.6,1.6h-1.5l-0.6-1.6L33.7,0.8z M57,8l1.3,3.4L57.7,13h-1.5l-0.6-1.6L57,8z
				 M36,6.8h-4.7v1.5H33v14.1h1.4V12.3l6.3,1.9v8.4h1.4v-7.9l6.3,2v35.8h-6.3V46h-1.4v6.5h-6.3V46H33v10.8h24.7V15.6h1.6v-1.4h-4.7
				v1.4h1.6v1.9l-6.3-1.9v-3.2h-1.4v2.8l-6.3-1.9V10h-1.4v2.8l-6.4-2V8.3H36C36,8.3,36,6.8,36,6.8z"/>
			<path class="st1" d="M40.7,22.9H18.9v22.2h21.9L40.7,22.9L40.7,22.9z M18.1,21.5h24v25.1H17.4V21.5H18.1z"/>
			<path class="st2" d="M30.2,43.2l-2.7-3l1.2-1.3v-5.6h-1.3l-1.1,1.4l-2.7-3l2.7-3l1.2,1.3h1.3v-1.2l-1.2-1.3l2.7-3l2.7,3l-1.3,1.3
				V30H33l1.2-1.3l2.7,3l-2.7,3L33,33.4h-1.3V39l1.2,1.3L30.2,43.2z M28.9,40.3l1.3,1.4l1.3-1.4l-0.8-0.9v-7.1h2.7l0.8,0.9l1.3-1.4
				l-1.3-1.4l-0.8,0.9h-2.7v-2.8l0.8-0.9l-1.3-1.4l-1.3,1.4l0.8,0.9v2.8H27l-0.7-1L25,31.7l1.3,1.4l0.8-0.9h2.7v7.1L28.9,40.3z"/>
		</g>
	</g>
</g>
</svg>
