<?xml version="1.0" encoding="UTF-8"?><!DOCTYPE svg PUBLIC "-//W3C//DTD SVG 1.1//EN" "http://www.w3.org/Graphics/SVG/1.1/DTD/svg11.dtd"><svg xmlns="http://www.w3.org/2000/svg" xmlns:xlink="http://www.w3.org/1999/xlink"><defs>
<clipPath id="clip0_576_12427">
<rect width="46" height="46"/>
</clipPath>

<clipPath id="clip0_576_12406">
<rect width="46" height="46"/>
</clipPath>

<clipPath id="clip0_576_12432">
<rect width="46" height="46"/>
</clipPath>

<clipPath id="clip0_576_12384">
<rect width="46" height="46"/>
</clipPath>

<clipPath id="clip0_576_12408">
<rect width="46" height="46"/>
</clipPath>

<clipPath id="clip0_576_12271">
<rect width="46" height="46"/>
</clipPath>

<clipPath id="clip0_576_12391">
<rect width="46" height="46"/>
</clipPath>

<clipPath id="clip0_576_12399">
<rect width="46" height="46"/>
</clipPath>

<clipPath id="clip0_576_12365">
<rect width="46" height="46"/>
</clipPath>

<clipPath id="clip0_576_12372">
<rect width="46" height="46"/>
</clipPath>

<clipPath id="clip0_576_12248">
<rect width="46" height="46"/>
</clipPath>

<clipPath id="clip0_576_12337">
<rect width="46" height="46"/>
</clipPath>

<clipPath id="clip0_576_12319">
<rect width="46" height="46"/>
</clipPath>

<clipPath id="clip0_576_12311">
<rect width="46" height="46"/>
</clipPath>

<clipPath id="clip0_576_12370">
<rect width="46" height="46"/>
</clipPath>

<clipPath id="clip0_576_12317">
<rect width="46" height="46"/>
</clipPath>

<clipPath id="clip0_576_12315">
<rect width="46" height="46"/>
</clipPath>

<clipPath id="clip0_576_12397">
<rect width="46" height="46"/>
</clipPath>
</defs><symbol id="arrow-left" viewBox="0 0 29.5 12.3"><g style="enable-background:new 0 0 29.5 12.3;">
<polygon points="22.8,12.3 21.5,10.8 25.4,7.4 0,7.4 0,5.4 25.5,5.4 21.4,1.5 22.8,0 28.7,5.7 29.5,6.4 28.7,7.1 "/>
</g></symbol><symbol id="clock" viewBox="0 0 24 24">
<path d="M11.99 2C6.47 2 2 6.48 2 12C2 17.52 6.47 22 11.99 22C17.52 22 22 17.52 22 12C22 6.48 17.52 2 11.99 2ZM12 20C7.58 20 4 16.42 4 12C4 7.58 7.58 4 12 4C16.42 4 20 7.58 20 12C20 16.42 16.42 20 12 20Z"/>
<path d="M12.5 7H11V13L16.25 16.15L17 14.92L12.5 12.25V7Z"/>
</symbol><symbol id="email" viewBox="0 0 24 24">
<path d="M12 2C6.48 2 2 6.48 2 12C2 17.52 6.48 22 12 22H17V20H12C7.66 20 4 16.34 4 12C4 7.66 7.66 4 12 4C16.34 4 20 7.66 20 12V13.43C20 14.22 19.29 15 18.5 15C17.71 15 17 14.22 17 13.43V12C17 9.24 14.76 7 12 7C9.24 7 7 9.24 7 12C7 14.76 9.24 17 12 17C13.38 17 14.64 16.44 15.54 15.53C16.19 16.42 17.31 17 18.5 17C20.47 17 22 15.4 22 13.43V12C22 6.48 17.52 2 12 2ZM12 15C10.34 15 9 13.66 9 12C9 10.34 10.34 9 12 9C13.66 9 15 10.34 15 12C15 13.66 13.66 15 12 15Z"/>
</symbol><symbol id="info" viewBox="0 0 12 12"><g style="enable-background:new 0 0 12 12;">
<path d="M6,0C2.7,0,0,2.5,0,5.5c0,1.4,0.6,2.7,1.5,3.7L1.1,12l3.2-1.2C4.8,10.9,5.4,11,6,11c3.3,0,6-2.5,6-5.5S9.3,0,6,0z M6.7,3.1
	L6.5,6.4H5.8L5.6,3.1H6.7z M6.6,8C6.5,8.1,6.3,8.2,6.2,8.2C6,8.2,5.9,8.1,5.7,8C5.6,7.9,5.6,7.8,5.6,7.6c0-0.2,0.1-0.3,0.2-0.4
	C5.9,7.1,6,7.1,6.2,7.1c0.2,0,0.3,0.1,0.4,0.2c0.1,0.1,0.2,0.2,0.2,0.4C6.7,7.8,6.7,7.9,6.6,8z"/>
</g></symbol><symbol id="load_icon" viewBox="0 0 28 28"><g style="enable-background:new 0 0 28 28;">
<path d="M19.6,8.4C18.2,6.9,16.2,6,14,6c-4.4,0-8,3.6-8,8s3.6,8,8,8c3.7,0,6.8-2.5,7.7-6h-2.1c-0.8,2.3-3,4-5.6,4c-3.3,0-6-2.7-6-6
	s2.7-6,6-6c1.7,0,3.1,0.7,4.2,1.8L15,13h7V6L19.6,8.4z"/>
</g></symbol><symbol id="map" viewBox="0 0 28 28">
<path d="M13.9987 6.00049C10.3228 6.00049 7.33203 8.96205 7.33203 12.6021C7.33203 14.0425 7.79152 15.4113 8.66195 16.5596L13.5878 23.129C13.6001 23.145 13.6189 23.151 13.6325 23.1653C13.8787 23.4263 14.2339 23.3606 14.4093 23.129C15.8278 21.2549 18.4278 17.7547 19.4274 16.4343C19.4274 16.4343 19.4278 16.4333 19.4281 16.4327L19.4343 16.4245C20.2397 15.304 20.6654 13.9823 20.6654 12.6021C20.6654 8.96205 17.6746 6.00049 13.9987 6.00049ZM13.9987 16.1635C12.0196 16.1635 10.4021 14.5619 10.4021 12.6021C10.4021 10.6422 12.0196 9.04059 13.9987 9.04059C15.9778 9.04059 17.5953 10.6422 17.5953 12.6021C17.5953 14.5619 15.9778 16.1635 13.9987 16.1635Z"/>
</symbol><symbol id="phone" viewBox="0 0 28 28">
<path d="M18.656 16.7442C17.8782 16.0208 17.0888 15.5827 16.3205 16.3049L15.8618 16.7415C15.5261 17.0584 14.9021 18.539 12.4892 15.5209C10.0769 12.5067 11.5124 12.0374 11.8486 11.7233L12.3098 11.2862C13.0741 10.5623 12.7857 9.65096 12.2345 8.71288L11.9018 8.14468C11.3481 7.20878 10.7452 6.59414 9.9789 7.31696L9.56486 7.71033C9.2262 7.97859 8.27956 8.85056 8.04993 10.5071C7.77357 12.4947 8.64535 14.7708 10.6427 17.2682C12.6374 19.7666 14.5905 21.0216 16.4406 20.9997C17.9782 20.9817 18.9067 20.0846 19.1971 19.7584L19.6127 19.3645C20.3769 18.6422 19.9021 17.9068 19.1238 17.1818L18.656 16.7442Z"/>
</symbol><symbol id="rur" viewBox="0 0 24 24">
<path d="M13.5 3H7V12H5V14H7V16H5V18H7V21H9V18H13V16H9V14H13.5C16.54 14 19 11.54 19 8.5C19 5.46 16.54 3 13.5 3ZM13.5 12H9V5H13.5C15.43 5 17 6.57 17 8.5C17 10.43 15.43 12 13.5 12Z"/>
</symbol><symbol id="search" viewBox="0 0 28 28">
<path d="M16.73 15.31C17.52 14.24 18 12.93 18 11.5C18 7.91 15.09 5 11.5 5C7.91 5 5 7.91 5 11.5C5 15.09 7.91 18 11.5 18C12.93 18 14.24 17.52 15.31 16.73L20.8844 22.2956C21.2742 22.6847 21.9055 22.6845 22.295 22.295V22.295C22.6845 21.9055 22.6847 21.2742 22.2956 20.8844L16.73 15.31ZM11.5 16C9.01 16 7 13.99 7 11.5C7 9.01 9.01 7 11.5 7C13.99 7 16 9.01 16 11.5C16 13.99 13.99 16 11.5 16Z"/>
</symbol><symbol id="angel" viewBox="0 0 46 46">
<path d="M46 29.2095C46 24.9785 43.4689 22.1235 43.3855 21.9698C39.9492 17.3879 33.6678 15.986 28.6124 18.6927C27.163 17.2384 25.1642 16.3516 23 16.3516C20.8358 16.3516 18.8369 17.2384 17.3875 18.6928C12.3387 15.9896 5.95709 17.3932 2.5247 21.9697C2.44061 22.1276 0 24.8336 0 29.2095V43.8233L14.6782 38.9596L13.2702 46H32.7298L31.3218 38.9597L46 43.8233V29.2095ZM8.17578 38.2748V31.1758H5.48047V39.1679L2.69531 40.0908V29.2095C2.69531 25.879 4.62462 23.6919 4.68095 23.5869C7.25533 20.1542 11.9886 19.0442 15.8249 20.9208C15.5599 21.4858 15.3574 22.0878 15.2308 22.7207L13.2702 32.5234H15.9655L15.2865 35.9187L8.17578 38.2748ZM16.5579 43.3047L19.2532 29.8281H16.5579L17.8738 23.2493C18.3606 20.8142 20.5165 19.0469 23 19.0469C25.4835 19.0469 27.6394 20.8142 28.1263 23.2493L29.4421 29.8281H26.7468L29.4421 43.3047H16.5579ZM43.3047 40.0908L40.5195 39.1679V31.1758H37.8242V38.2748L30.7135 35.9186L30.0345 32.5234H32.7298L30.7693 22.7208C30.6427 22.0879 30.4402 21.4858 30.1752 20.9208C33.9758 19.0641 38.67 20.1744 41.2294 23.5871C41.3093 23.7329 43.3048 25.9549 43.3048 29.2095V40.0908H43.3047Z"/>
<path d="M16.2617 0H29.7383V2.69531H16.2617V0Z"/>
<path d="M28.3906 10.9609C28.3906 7.98855 25.9724 5.57031 23 5.57031C20.0276 5.57031 17.6094 7.98855 17.6094 10.9609C17.6094 13.9333 20.0276 16.3516 23 16.3516C25.9724 16.3516 28.3906 13.9333 28.3906 10.9609ZM23 13.6562C21.5138 13.6562 20.3047 12.4471 20.3047 10.9609C20.3047 9.47474 21.5138 8.26562 23 8.26562C24.4862 8.26562 25.6953 9.47474 25.6953 10.9609C25.6953 12.4471 24.4862 13.6562 23 13.6562Z"/>
</symbol><symbol id="ashes" viewBox="0 0 46 46">
<path d="M37.814 25.6248C37.0844 19.5398 31.6854 15.5175 29.7376 14.2513V10.9609H32.4329V8.26562H29.6001C29.0636 5.65432 27.028 3.55781 24.3469 3.01372V0H21.6516V3.01372C18.973 3.55736 16.9354 5.65207 16.3985 8.26562H13.5657V10.9609H16.261V14.2513C14.3132 15.5175 8.91411 19.5398 8.18458 25.6248C7.81793 28.6837 9.12938 32.9732 12.0825 38.3742C13.4006 40.785 15.0114 43.3718 16.9239 46H29.0747C30.9836 43.3767 32.5948 40.7908 33.9161 38.3742C36.8692 32.9732 38.1806 28.6836 37.814 25.6248ZM35.1377 25.9455C35.3281 27.5337 34.8593 29.5711 34.0534 31.7197C33.0521 30.971 32.4329 29.7816 32.4329 28.4805C32.4329 26.8211 33.4442 25.3679 34.9101 24.7517C35.0109 25.1393 35.0887 25.5371 35.1377 25.9455ZM20.9778 6.11198C22.2247 5.39215 23.7739 5.39206 25.0208 6.11198C25.8645 6.5992 26.4909 7.37141 26.8084 8.26571H19.1902C19.5078 7.37141 20.1341 6.59911 20.9778 6.11198ZM11.9452 31.7198C11.1393 29.5712 10.6705 27.5338 10.8608 25.9456C10.9098 25.5375 10.9878 25.1396 11.0891 24.752C12.5548 25.3684 13.5657 26.8214 13.5657 28.4805C13.5657 29.7817 12.9465 30.9711 11.9452 31.7198ZM27.697 43.3047H18.3015C16.9 41.3107 14.6744 37.8037 13.014 34.245C15.0008 33.0433 16.261 30.8758 16.261 28.4805C16.261 25.71 14.5678 23.2843 12.1151 22.2602C14.245 18.4931 18.2182 16.2075 18.2686 16.179L18.9563 15.7927V10.9609H27.0422V15.7926L27.73 16.1789C27.7817 16.2079 31.7588 18.4807 33.8876 22.2585C31.4326 23.2816 29.7376 25.7084 29.7376 28.4805C29.7376 30.8758 30.9978 33.0433 32.9845 34.245C31.3242 37.8037 29.0985 41.3108 27.697 43.3047Z"/>
<path d="M24.3477 21.7422H21.6523V24.4375H18.957V27.1328H21.6523V35.2188H24.3477V27.1328H27.043V24.4375H24.3477V21.7422Z"/>
</symbol><symbol id="bible-open" viewBox="0 0 46 46">
<path d="M28.3906 5.48047C26.1887 5.48047 24.2304 6.54224 23 8.18045C21.7696 6.54224 19.8113 5.48047 17.6094 5.48047H0V40.5195H46C46 38.8908 46 7.12003 46 5.48047H28.3906ZM2.69531 37.8242V35.1289H17.6094C19.3664 35.1289 20.8652 36.2555 21.4214 37.8242H2.69531ZM17.6094 32.4336H2.69531V8.17578H17.6094C19.8387 8.17578 21.6523 9.98946 21.6523 12.2188V13.5664V33.7849C20.5253 32.937 19.1251 32.4336 17.6094 32.4336ZM43.3047 37.8242H24.5786C25.1347 36.2555 26.6336 35.1289 28.3906 35.1289H43.3047V37.8242ZM28.3906 32.4336C26.8749 32.4336 25.4747 32.937 24.3477 33.7849V13.5664V12.2188C24.3477 9.98946 26.1613 8.17578 28.3906 8.17578H43.3047V32.4336H28.3906Z"/>
<path d="M13.5665 13.5664H10.8712V16.2617H8.17584V18.957H10.8712V27.043H13.5665V18.957H16.2618V16.2617H13.5665V13.5664Z"/>
<path d="M27.0429 13.5664H40.5195V16.2617H27.0429V13.5664Z"/>
<path d="M27.0429 18.957H40.5195V21.6523H27.0429V18.957Z"/>
<path d="M27.0429 24.3477H40.5195V27.043H27.0429V24.3477Z"/>
</symbol><symbol id="bible" viewBox="0 0 46 46">
<g clip-path="url(#clip0_576_12427)">
<path d="M12.2188 0C8.50363 0 5.48111 3.02252 5.48111 6.73766V38.3598C5.48111 41.3319 7.89912 43.7499 10.8712 43.7499H16.2614V46L20.304 43.9181L24.3466 46V43.7499H40.517C40.517 42.0757 40.517 2.1662 40.517 0H12.2188ZM10.8712 2.92684V32.9696C9.88979 32.9696 8.96969 33.2346 8.17618 33.6948V6.73766C8.17618 4.98093 9.3028 3.4831 10.8712 2.92684ZM10.8712 41.0548C9.38518 41.0548 8.17618 39.8458 8.17618 38.3598C8.17618 36.8737 9.38518 35.6647 10.8712 35.6647H16.2614V41.0548H10.8712ZM21.6515 41.5806L20.304 40.8867L18.9564 41.5806V35.6647H21.6515V41.5806ZM37.8219 41.0548H24.3466V35.6647H37.8219V41.0548ZM13.5663 32.9696V2.69507H37.8219V32.9696C36.6756 32.9696 14.7049 32.9696 13.5663 32.9696Z"/>
<path d="M27.0434 10.7801V5.39001H24.3483V10.7801H18.9582V13.4752H24.3483V24.2555H27.0434V13.4752H32.4335V10.7801H27.0434Z"/>
<path d="M18.9582 26.9505H32.4335V29.6456H18.9582V26.9505Z"/>
</g>

</symbol><symbol id="broken-heart" viewBox="0 0 46 46">
<path d="M15.954 20.8666L22.0128 6.72789L21.2092 6.08758C19.3868 4.63525 16.3478 2.90405 12.2188 2.90405C5.02981 2.90405 0 9.37119 0 16.8298C0 25.7577 7.08589 34.652 19.9524 41.8746L21.2925 42.6269L26.7564 28.9684L15.954 20.8666ZM19.9376 38.757C14.2192 35.3866 9.8307 31.7144 6.87987 27.8279C4.10316 24.1707 2.69531 20.4705 2.69531 16.8298C2.69531 10.5324 6.87853 5.59937 12.2188 5.59937C14.5739 5.59937 16.7529 6.26915 18.7099 7.59255L12.6423 21.752L23.4867 29.8853L19.9376 38.757Z"/>
<path d="M33.7796 2.90405C30.8791 2.90405 28.1789 3.73637 25.754 5.37781L25.4266 5.59946L19.263 19.9805L30.0232 28.0507L24.0057 43.0964L27.4075 41.0915C33.644 37.4162 38.4113 33.3602 41.577 29.0363C44.5107 25.0292 45.9983 20.9224 45.9983 16.8298C45.9983 9.35546 40.955 2.90405 33.7796 2.90405ZM29.5194 36.5688L33.2929 27.1337L22.5749 19.0952L27.5881 7.39831C29.4744 6.20428 31.5553 5.59946 33.7796 5.59946C39.1198 5.59946 43.303 10.5325 43.303 16.8299C43.303 23.5852 38.4434 30.5021 29.5194 36.5688Z"/>
</symbol><symbol id="candles" viewBox="0 0 46 46">
<g clip-path="url(#clip0_576_12406)">
<path d="M37.8248 43.3044C37.8248 40.025 37.8248 16.017 37.8248 10.9571C37.1725 10.9571 33.0901 10.9571 32.4336 10.9571V10.7253C34.0023 10.1689 35.1292 8.67078 35.1292 6.91369C35.1292 6.33899 34.966 5.33029 33.5547 3.21505C32.6951 1.92655 32.0223 1.14635 31.0857 0C30.1496 1.1459 29.4764 1.92655 28.6167 3.21505C27.2055 5.33029 27.0423 6.33899 27.0423 6.91369C27.0423 8.67078 28.1692 10.1689 29.7379 10.7253V10.9571C29.0857 10.9571 25.0033 10.9571 24.3467 10.9571V43.3044H21.6511C21.6511 42.4016 21.6511 22.7565 21.6511 21.7395H16.2599V21.5077C17.8287 20.9513 18.9555 19.4532 18.9555 17.6961C18.9555 17.141 18.7969 16.1296 17.4258 13.7659C16.5643 12.2808 15.8873 11.3464 14.9121 9.9334C13.9368 11.3464 13.26 12.2808 12.3984 13.7659C11.0272 16.1296 10.8687 17.141 10.8687 17.6961C10.8687 19.4532 11.9955 20.9513 13.5643 21.5077V21.7395H8.17308V43.3044H2.78187V46H43.216V43.3044H37.8248ZM14.9124 14.8028C15.6882 16.1096 16.2484 17.2836 16.2599 17.6971C16.2593 18.4398 15.6549 19.0438 14.9121 19.0438C14.1689 19.0438 13.5643 18.4392 13.5643 17.6976C13.5753 17.2856 14.1359 16.111 14.9124 14.8028ZM10.8687 24.4351H18.9555V27.1307H17.6077C15.3782 27.1307 13.5643 28.9446 13.5643 31.1742V33.8698C13.5643 34.6129 12.9597 35.2176 12.2165 35.2176H10.8687V24.4351ZM10.8687 43.3044V37.9132H12.2165C14.446 37.9132 16.2599 36.0993 16.2599 33.8698V31.1742C16.2599 30.431 16.8645 29.8264 17.6077 29.8264H18.9555V43.3044H10.8687ZM31.0862 4.37371C31.8515 5.48304 32.4199 6.52651 32.4336 6.91495C32.4328 7.65759 31.8286 8.2615 31.0857 8.2615C30.3426 8.2615 29.7379 7.65687 29.7379 6.91567C29.7508 6.52912 30.32 5.48475 31.0862 4.37371ZM27.0423 13.6527H35.1292V24.4351H33.7814C33.0382 24.4351 32.4336 23.8305 32.4336 23.0873V20.3917C32.4336 18.1622 30.6197 16.3483 28.3901 16.3483H27.0423V13.6527ZM27.0423 43.3044V19.0439H28.3901C29.1333 19.0439 29.7379 19.6486 29.7379 20.3917V23.0873C29.7379 25.3169 31.5518 27.1307 33.7814 27.1307H35.1292V43.3044H27.0423Z"/>
</g>

</symbol><symbol id="christian-cross" viewBox="0 0 46 46">
<g clip-path="url(#clip0_576_12432)">
<path d="M23.0001 46L15.7025 38.7025L18.9565 35.4485V21.6521H15.4713L12.2173 24.9061L4.91974 17.6086L12.2173 10.3111L15.4713 13.565H18.9565V10.5515L15.7025 7.29753L23.0001 0L30.2976 7.29753L27.0436 10.5515V13.565H30.5289L33.7829 10.3111L41.0804 17.6086L33.7829 24.9061L30.5289 21.6521H27.0436V35.4485L30.2976 38.7025L23.0001 46ZM19.5148 38.7025L23.0001 42.1877L26.4854 38.7025L24.3479 36.565V18.9564H31.6455L33.7829 21.0939L37.2682 17.6086L33.7829 14.1233L31.6455 16.2607H24.3479V9.43496L26.4854 7.29753L23.0001 3.81226L19.5148 7.29753L21.6522 9.43496V16.2607H14.3547L12.2173 14.1233L8.732 17.6086L12.2173 21.0939L14.3547 18.9564H21.6522V36.565L19.5148 38.7025Z"/>
</g>

</symbol><symbol id="church" viewBox="0 0 46 46">
<path d="M23 21.7422C20.7707 21.7422 18.9571 23.5559 18.9571 25.7852C18.9571 28.0144 20.7707 29.8281 23 29.8281C25.2293 29.8281 27.043 28.0144 27.043 25.7852C27.043 23.5559 25.2293 21.7422 23 21.7422ZM23 27.1328C22.2569 27.1328 21.6524 26.5283 21.6524 25.7852C21.6524 25.0421 22.2569 24.4375 23 24.4375C23.7431 24.4375 24.3477 25.0421 24.3477 25.7852C24.3477 26.5283 23.7431 27.1328 23 27.1328Z"/>
<path d="M46 29.8281V27.1328C44.7567 27.1328 43.8789 27.1328 42.7001 27.1328L40.0048 21.7422H32.4336V19.0469H35.1289V16.3516H31.6441L24.3477 9.05508V5.57031H27.043V2.875H24.3477V0H21.6523V2.875H18.957V5.57031H21.6523V9.05508L14.3559 16.3516H10.8711V19.0469H13.5664V21.7422H5.99518L3.29987 27.1328C2.12921 27.1328 1.24865 27.1328 0 27.1328V29.8281H2.78516V43.3047H0V46H46V43.3047H43.2148V29.8281H46ZM38.3389 24.4375L39.6866 27.1328H32.4336V24.4375H38.3389ZM23 11.5191L27.8324 16.3516H18.1676L23 11.5191ZM13.5664 24.4375V27.1328H6.31341L7.66107 24.4375H13.5664ZM10.8711 43.3047V37.9141H8.17578V43.3047H5.48047V29.8281H13.5664V43.3047H10.8711ZM21.6523 43.3047V36.5664C21.6523 35.8233 22.2569 35.2188 23 35.2188C23.7431 35.2188 24.3477 35.8233 24.3477 36.5664V43.3047H21.6523ZM27.043 43.3047V36.5664C27.043 34.3371 25.2293 32.5234 23 32.5234C20.7707 32.5234 18.957 34.3371 18.957 36.5664V43.3047H16.2617C16.2617 42.1986 16.2617 20.601 16.2617 19.0469H29.7383V43.3047H27.043ZM37.8242 43.3047V37.9141H35.1289V43.3047H32.4336V29.8281H40.5195V43.3047H37.8242Z"/>
<path d="M8.17583 32.5234H10.8711V35.2188H8.17583V32.5234Z"/>
<path d="M35.1289 32.5234H37.8243V35.2188H35.1289V32.5234Z"/>
</symbol><symbol id="coffin-2" viewBox="0 0 46 46">
<path d="M46 16.2617V13.5664H43.2148H43.0793C42.4531 10.4945 39.7307 8.17578 36.4766 8.17578H9.52344C6.26939 8.17578 3.54685 10.4945 2.92073 13.5664H2.78516H0V16.2617H2.78516V29.7383H0V37.8242H46V29.7383H43.2148V16.2617H46ZM9.52344 10.8711H36.4766C38.2336 10.8711 39.7324 11.9976 40.2886 13.5664H5.71137C6.26759 11.9976 7.76645 10.8711 9.52344 10.8711ZM43.3047 32.4336V35.1289H2.69531V32.4336H2.78516H43.2148H43.3047ZM40.5195 29.7383H5.48047V16.2617H40.5195V29.7383Z"/>
<path d="M13.5663 24.3477H21.6523V27.043H24.3476V24.3477H32.4335V27.043H35.1288V24.3477V21.6523V18.957H32.4335V21.6523H24.3476V18.957H21.6523V21.6523H13.5663V18.957H10.871V21.6523V24.3477V27.043H13.5663V24.3477Z"/>
</symbol><symbol id="coffin" viewBox="0 0 46 46">
<path d="M31.8485 0H14.1506L5.37677 14.623L13.8826 46H32.1164L40.6223 14.623L31.8485 0ZM30.0545 43.3047H15.9446L8.27854 15.0255L15.6766 2.69531H30.3225L37.7206 15.0255L30.0545 43.3047Z"/>
<path d="M28.7949 5.39062H17.2008L11.1818 15.4242L17.9985 40.6094H27.9972L34.8139 15.4242L28.7949 5.39062ZM25.9344 37.9141H20.0613L14.0831 15.8271L18.7269 8.08594H27.2686L31.9125 15.8271L25.9344 37.9141Z"/>
<path d="M24.3477 10.7812H21.6524V13.4766H18.9571V16.1719H21.6524V24.2578H24.3477V16.1719H27.043V13.4766H24.3477V10.7812Z"/>
</symbol><symbol id="cremation" viewBox="0 0 46 46">
<path d="M40.5195 18.957H35.1289V8.08594H37.8242V5.39062H35.1289H34.9933C34.3672 2.31869 31.6448 0 28.3906 0H17.6094C14.3553 0 11.6328 2.31869 11.0067 5.39062H10.8711H8.17578V8.08594H10.8711V18.957H5.48047V43.3047H0V46H46V43.3047H40.5195V18.957ZM17.6094 2.69531H28.3906C30.1477 2.69531 31.6465 3.82186 32.2027 5.39062H13.7973C14.3535 3.82186 15.8524 2.69531 17.6094 2.69531ZM13.5664 8.08594H32.4336V18.957H13.5664V8.08594ZM21.4382 31.8156C21.6306 31.3541 21.7867 30.8863 21.9062 30.414C23.1432 31.9981 23.8139 33.9369 23.8139 35.9788V39.2324L26.1144 36.9317C26.578 36.4681 26.9881 35.9515 27.3359 35.3961C27.8481 36.2033 28.1264 37.1463 28.1264 38.1351C28.1264 41.0755 25.7516 43.1794 23.0593 43.1794C20.184 43.1794 17.8688 40.8187 17.9272 37.9288C18.07 36.939 18.5799 35.9425 19.4433 34.9659C20.2991 33.9979 20.9704 32.9379 21.4382 31.8156ZM28.8637 43.3047C28.899 43.266 28.9344 43.2271 28.969 43.1876L28.9859 43.168C30.1698 41.7625 30.8218 39.9751 30.8218 38.1351C30.8218 35.7012 29.7176 33.4488 27.7924 31.9557L26.271 30.7757L25.8517 32.0833C25.2762 30.4392 24.3333 28.9322 23.0651 27.6641L19.5016 24.1004L19.5014 28.0974C19.5014 28.9994 19.316 29.9015 18.9505 30.7785C18.5968 31.6267 18.0833 32.4349 17.4239 33.1806C16.1783 34.5895 15.4454 36.0925 15.2452 37.6478L15.2371 37.7116L15.235 37.7761C15.1682 39.8371 15.8891 41.7894 17.2663 43.3046H8.17578V21.6523H10.8711H13.5664H32.4336H35.1289H37.8242V43.3047H28.8637Z"/>
<path d="M16.2617 10.7812H29.7382V13.4766H16.2617V10.7812Z"/>
<path d="M46 6.82812C46 4.59883 44.1863 2.78516 41.957 2.78516H40.6094V5.48047H41.957C42.7001 5.48047 43.3047 6.08503 43.3047 6.82812C43.3047 7.57122 42.7001 8.17578 41.957 8.17578H40.6094V10.8711H41.957C44.1863 10.8711 46 9.05742 46 6.82812Z"/>
<path d="M4.04297 10.8711H5.39062V8.17578H4.04297C3.29987 8.17578 2.69531 7.57122 2.69531 6.82812C2.69531 6.08503 3.29987 5.48047 4.04297 5.48047H5.39062V2.78516H4.04297C1.81368 2.78516 0 4.59883 0 6.82812C0 9.05742 1.81368 10.8711 4.04297 10.8711Z"/>
</symbol><symbol id="cry" viewBox="0 0 46 46">
<g clip-path="url(#clip0_576_12384)">
<path d="M45.173 12.6631C45.0751 12.5338 42.7298 9.46191 38.8574 6.36088C34.3334 2.73788 28.868 0.000976562 23 0.000976562C17.1306 0.000976562 11.6654 2.73878 7.14251 6.36097C3.27011 9.462 0.924819 12.5339 0.826893 12.6632L0 13.7543L1.10414 14.5638C1.20279 14.636 3.56317 16.3537 7.43709 18.0773C11.0109 19.6673 16.612 21.5626 23 21.5626C29.388 21.5626 34.989 19.6673 38.5629 18.0773C42.4368 16.3538 44.7973 14.6361 44.8959 14.5638L46 13.7543L45.173 12.6631ZM23 2.69619C28.7387 2.69619 33.8468 5.81097 37.1217 8.42389C37.5472 8.7634 37.9538 9.10354 38.3401 9.43972C33.372 7.64587 28.2359 6.73902 23 6.73902C17.7641 6.73902 12.6281 7.64578 7.65999 9.43963C8.0463 9.10354 8.45283 8.76331 8.87841 8.4238C12.1531 5.81088 17.2613 2.69619 23 2.69619ZM28.3904 13.4771C28.3904 16.4494 25.9723 18.8675 23 18.8675C20.0277 18.8675 17.6096 16.4494 17.6096 13.4771C17.6096 12.0211 18.1933 10.6453 19.2226 9.63422C21.7371 9.40819 24.2629 9.40819 26.7774 9.63422C27.8067 10.6453 28.3904 12.0211 28.3904 13.4771ZM4.62958 13.6179C8.20227 11.9403 11.9 10.7708 15.6473 10.1098C15.1698 11.1524 14.9143 12.2973 14.9143 13.4771C14.9143 15.2261 15.4727 16.8471 16.4203 18.1714C13.3031 17.5259 10.6087 16.5341 8.60053 15.6449C6.97397 14.9248 5.62591 14.2004 4.62958 13.6179ZM37.3995 15.6449C35.3912 16.5341 32.6969 17.5259 29.5797 18.1714C30.5273 16.8471 31.0857 15.2261 31.0857 13.4771C31.0857 12.2973 30.8302 11.1524 30.3527 10.1098C34.1 10.7708 37.7976 11.9403 41.3704 13.6179C40.374 14.2004 39.0259 14.9248 37.3995 15.6449Z"/>
<path d="M21.6529 12.1296H24.3482V14.8248H21.6529V12.1296Z"/>
<path d="M17.4275 27.0666C16.5662 25.5817 15.8892 24.6474 14.9142 23.2346C13.939 24.6475 13.2623 25.5817 12.4009 27.0666C11.0298 29.4299 10.8713 30.4412 10.8713 30.9962C10.8713 33.2254 12.6849 35.039 14.9142 35.039C17.1434 35.039 18.957 33.2254 18.957 30.9962C18.9571 30.4412 18.7985 29.4299 17.4275 27.0666ZM14.9143 32.3438C14.1712 32.3438 13.5666 31.7393 13.5666 30.9977C13.5776 30.5857 14.1382 29.4113 14.9145 28.1033C15.6902 29.4099 16.2504 30.5838 16.2619 30.9972C16.2612 31.7398 15.6569 32.3438 14.9143 32.3438Z"/>
<path d="M31.0842 23.2346C30.1091 24.6475 29.4323 25.5817 28.5709 27.0666C27.1998 29.4299 27.0414 30.4412 27.0414 30.9962C27.0414 33.2254 28.855 35.039 31.0842 35.039C33.3134 35.039 35.127 33.2254 35.127 30.9962C35.127 30.4412 34.9684 29.4299 33.5975 27.0666C32.7361 25.5817 32.0591 24.6474 31.0842 23.2346ZM31.0842 32.3438C30.3411 32.3438 29.7366 31.7393 29.7366 30.9977C29.7475 30.5857 30.3081 29.4113 31.0844 28.1033C31.8601 29.4099 32.4203 30.5838 32.4318 30.9972C32.4312 31.7398 31.8268 32.3438 31.0842 32.3438Z"/>
<path d="M23.0015 34.1948C22.0263 35.6077 21.3496 36.5419 20.4882 38.0268C19.1171 40.3901 18.9586 41.4014 18.9586 41.9564C18.9586 44.1856 20.7723 45.9992 23.0015 45.9992C25.2307 45.9992 27.0443 44.1856 27.0443 41.9564C27.0443 41.4014 26.8857 40.3901 25.5148 38.0268C24.6534 36.5419 23.9764 35.6076 23.0015 34.1948ZM23.0015 43.304C22.2584 43.304 21.6539 42.6995 21.6539 41.958C21.6648 41.5459 22.2254 40.3715 23.0017 39.0636C23.7774 40.3701 24.3376 41.544 24.3491 41.9574C24.3485 42.7 23.7441 43.304 23.0015 43.304Z"/>
</g>

</symbol><symbol id="door" viewBox="0 0 46 46">
<path d="M40.6094 32.5234H35.2188V27.1328H29.7383C29.7383 26.2886 29.7383 7.3998 29.7383 6.73828C29.7383 3.02279 26.7155 0 23 0C19.2845 0 16.2617 3.02279 16.2617 6.73828V27.1328H10.7812V32.5234H5.39062V37.9141H0V46H46V37.9141H40.6094V32.5234ZM27.043 21.5625H24.3477V13.4766H27.043V21.5625ZM27.043 6.73828V10.7812H24.3477V2.92711C25.9162 3.48342 27.043 4.98139 27.043 6.73828ZM21.6523 2.92711V10.7812H18.957V6.73828C18.957 4.98139 20.0838 3.48342 21.6523 2.92711ZM18.957 13.4766H21.6523V21.5625H18.957V13.4766ZM18.957 24.2578H27.043V27.1328H18.957V24.2578ZM13.4766 29.8281H32.5234V32.5234H13.4766V29.8281ZM8.08594 35.2188H37.9141V37.9141H8.08594V35.2188ZM43.3047 43.3047H2.69531V40.6094H43.3047V43.3047Z"/>
<path d="M4.04297 18.8672H9.43359C11.6629 18.8672 13.4766 17.0535 13.4766 14.8242C13.4766 13.003 12.2662 11.4591 10.6075 10.955C10.1034 9.29631 8.5595 8.08594 6.73828 8.08594C4.91706 8.08594 3.37318 9.29631 2.86907 10.955C1.21038 11.4591 0 13.003 0 14.8242C0 17.0535 1.81368 18.8672 4.04297 18.8672ZM4.04297 13.4766H5.39062V12.1289C5.39062 11.3858 5.99518 10.7812 6.73828 10.7812C7.48138 10.7812 8.08594 11.3858 8.08594 12.1289V13.4766H9.43359C10.1767 13.4766 10.7812 14.0811 10.7812 14.8242C10.7812 15.5673 10.1767 16.1719 9.43359 16.1719H4.04297C3.29987 16.1719 2.69531 15.5673 2.69531 14.8242C2.69531 14.0811 3.29987 13.4766 4.04297 13.4766Z"/>
<path d="M36.5664 16.1719H41.957C44.1863 16.1719 46 14.3582 46 12.1289C46 10.3077 44.7896 8.76381 43.1309 8.2597C42.6268 6.601 41.0829 5.39062 39.2617 5.39062C37.4405 5.39062 35.8966 6.601 35.3925 8.2597C33.7338 8.76381 32.5234 10.3077 32.5234 12.1289C32.5234 14.3582 34.3371 16.1719 36.5664 16.1719ZM36.5664 10.7812H37.9141V9.43359C37.9141 8.6905 38.5186 8.08594 39.2617 8.08594C40.0048 8.08594 40.6094 8.6905 40.6094 9.43359V10.7812H41.957C42.7001 10.7812 43.3047 11.3858 43.3047 12.1289C43.3047 12.872 42.7001 13.4766 41.957 13.4766H36.5664C35.8233 13.4766 35.2188 12.872 35.2188 12.1289C35.2188 11.3858 35.8233 10.7812 36.5664 10.7812Z"/>
</symbol><symbol id="dove" viewBox="0 0 46 46">
<path d="M39.2617 5.29456C34.5736 5.29456 30.4985 7.9684 28.4805 11.8709C26.4624 7.9684 22.3874 5.29456 17.6992 5.29456H2.875V6.64221C2.875 16.2285 8.855 24.8457 17.9344 28.1691C16.2107 29.071 14.2803 29.5524 12.3086 29.5524H0V40.7051L12.4718 37.6383H23.0898C32.7501 37.6383 40.6094 29.779 40.6094 20.1188V14.7282C40.6094 13.9851 41.2139 13.3805 41.957 13.3805H46V12.0328C46 8.31735 42.9772 5.29456 39.2617 5.29456ZM41.957 10.6852C39.7277 10.6852 37.9141 12.4989 37.9141 14.7282V20.1188C37.9141 28.2928 31.2639 34.943 23.0898 34.943H12.1453L2.69531 37.2668V32.2477H12.3086C15.8311 32.2477 19.2453 30.9907 21.9222 28.7082L23.9751 26.9579L21.3427 26.3678C19.3313 25.9168 17.4417 25.1629 15.7171 24.1618H21.7422V21.4665H12.0814C11.1944 20.6411 10.3823 19.7385 9.65488 18.7712H19.0469V16.0759H7.93841C7.47761 15.2102 7.07861 14.3094 6.74574 13.3806H16.3516V10.6853H5.98665C5.80355 9.803 5.67812 8.90313 5.61604 7.98996H17.6992C22.9009 7.98996 27.1328 12.2219 27.1328 17.4236H29.8281C29.8281 12.2219 34.06 7.98996 39.2617 7.98996C41.0188 7.98996 42.5176 9.11651 43.0738 10.6853H41.957V10.6852Z"/>
</symbol><symbol id="fence" viewBox="0 0 46 46">
<g clip-path="url(#clip0_576_12408)">
<path d="M46 5.39062V2.69531H43.3047V0H40.6094V2.69531H37.9141V5.39062H40.6094V10.9609H37.9141V16.2907C35.1409 16.0423 32.4643 15.031 30.2612 13.3798C28.1499 11.7974 25.6391 10.9609 23 10.9609C19.0938 10.9609 17.9148 11.7172 16.1675 13.054C16.0298 13.1593 15.8867 13.2688 15.7355 13.3822C13.5338 15.0336 10.8582 16.0443 8.08594 16.2915V10.9609H5.39062V5.39062H8.08594V2.69531H5.39062V0H2.69531V2.69531H0V5.39062H2.69531V10.9609H0V46H8.08594V43.3047H37.9141V46H46V10.9609H43.3047V5.39062H46ZM32.4336 17.6878V40.6094H29.7383V16.2906C30.5931 16.833 31.496 17.3001 32.4336 17.6878ZM18.957 14.3837C19.6138 14.003 20.3453 13.7777 21.6523 13.694V40.6094H18.957V14.3837ZM24.3477 13.7533C25.2856 13.8871 26.1915 14.1596 27.043 14.5661V40.6094H24.3477V13.7533ZM16.2617 16.2913V40.6094H13.5664V17.6894C14.504 17.3017 15.4069 16.8342 16.2617 16.2913ZM5.39062 43.3047H2.69531V13.6562H5.39062V43.3047ZM8.08594 18.9957C9.02615 18.9245 9.95801 18.7784 10.8711 18.5612V40.6094H8.08594V18.9957ZM35.1289 40.6094V18.5594C36.0418 18.7767 36.9736 18.9231 37.9141 18.9948V40.6094H35.1289ZM43.3047 43.3047H40.6094V13.6562H43.3047V43.3047Z"/>
</g>

</symbol><symbol id="flower-bouquet" viewBox="0 0 46 46">
<path d="M8.17581 16.1719V17.5195C8.17581 26.571 11.1709 32.6151 16.0406 39.2302L12.7649 46H33.2352L29.9595 39.2302C34.8291 32.6151 37.8242 26.571 37.8242 17.5195V16.1719H31.086H14.9141H8.17581ZM17.0633 43.3047L18.4545 40.4297H27.5457L28.9368 43.3047H17.0633ZM35.1049 18.8672C34.8277 26.5204 32.1613 31.7158 27.7139 37.7344H18.2862C13.8388 31.7158 11.1725 26.5204 10.8951 18.8672H35.1049Z"/>
<path d="M21.6524 35.0391H24.3477V26.9531H27.043V24.2578H24.3477V21.5625H21.6524V24.2578H18.9571V26.9531H21.6524V35.0391Z"/>
<path d="M18.3898 14.1048C19.8189 14.1284 21.182 13.4027 21.9173 12.1289C22.6528 10.855 22.5991 9.31051 21.8647 8.08594C22.5992 6.86137 22.6529 5.31686 21.9173 4.04306C21.1819 2.76916 19.8184 2.04502 18.3898 2.06712C17.6965 0.818656 16.3856 0 14.9147 0C13.4438 0 12.133 0.818656 11.4397 2.06712C10.0133 2.0452 8.64749 2.76925 7.91221 4.04297C7.17665 5.31686 7.23029 6.86137 7.96485 8.08594C7.23029 9.31051 7.17665 10.8549 7.91212 12.1288C8.64749 13.4027 10.0119 14.1266 11.4397 14.1048C12.133 15.3532 13.4437 16.1719 14.9147 16.1719C16.3857 16.1719 17.6965 15.3532 18.3898 14.1048ZM16.1903 12.353C16.071 13.0145 15.5464 13.4766 14.9147 13.4766C14.283 13.4766 13.7584 13.0145 13.6391 12.353L13.3562 10.7853L11.8571 11.3241C11.2244 11.5515 10.5621 11.3282 10.2464 10.7812C9.93055 10.2342 10.0685 9.54895 10.5816 9.11492L11.7983 8.08594L10.5816 7.05696C10.0684 6.62283 9.93046 5.93768 10.2464 5.39054C10.5621 4.84366 11.2244 4.62057 11.8571 4.8477L13.3562 5.38658L13.6391 3.8189C13.7584 3.15738 14.283 2.69531 14.9147 2.69531C15.5464 2.69531 16.071 3.15738 16.1903 3.8189L16.4732 5.38658L17.9724 4.8477C18.6051 4.62048 19.2673 4.84357 19.5831 5.39062C19.899 5.93759 19.7611 6.62283 19.2479 7.05687L18.0312 8.08594L19.2479 9.11492C19.7611 9.54895 19.8989 10.2342 19.583 10.7813C19.2673 11.3282 18.6051 11.5514 17.9724 11.3242L16.4732 10.7854L16.1903 12.353Z"/>
<path d="M38.0883 4.04306C37.3529 2.76916 35.9887 2.04502 34.5607 2.06712C33.8674 0.818656 32.5566 0 31.0857 0C29.6148 0 28.3039 0.818656 27.6106 2.06712C26.1822 2.04511 24.8184 2.76925 24.0831 4.04288C23.3475 5.31677 23.4012 6.86128 24.1357 8.08585C23.4012 9.31042 23.3475 10.8548 24.083 12.1287C24.8184 13.4026 26.1822 14.1265 27.6105 14.1047C28.3039 15.3532 29.6147 16.1719 31.0857 16.1719C32.5567 16.1719 33.8674 15.3532 34.5607 14.1048C35.9905 14.1284 37.353 13.4027 38.0883 12.1289C38.8237 10.855 38.7701 9.31051 38.0356 8.08594C38.7702 6.86137 38.8237 5.31686 38.0883 4.04306ZM35.4188 9.11492C35.932 9.54895 36.0698 10.2342 35.754 10.7813C35.4382 11.3282 34.776 11.5514 34.1433 11.3242L32.6442 10.7854L32.3613 12.3531C32.242 13.0145 31.7174 13.4766 31.0857 13.4766C30.454 13.4766 29.9294 13.0145 29.8101 12.353L29.5272 10.7853L28.028 11.3241C27.3954 11.5515 26.7331 11.3282 26.4174 10.7812C26.1015 10.2342 26.2394 9.54895 26.7525 9.11492L27.9693 8.08594L26.7525 7.05696C26.2393 6.62283 26.1014 5.93768 26.4174 5.39054C26.7332 4.84366 27.3954 4.62057 28.028 4.8477L29.5272 5.38658L29.8101 3.8189C29.9294 3.15738 30.454 2.69531 31.0857 2.69531C31.7174 2.69531 32.242 3.15738 32.3613 3.8189L32.6442 5.38658L34.1433 4.8477C34.776 4.62048 35.4382 4.84357 35.754 5.39062C36.0699 5.93759 35.932 6.62283 35.4188 7.05687L34.2022 8.08594L35.4188 9.11492Z"/>
<path d="M29.7383 6.73828H32.4336V9.43359H29.7383V6.73828Z"/>
<path d="M13.5664 6.73828H16.2617V9.43359H13.5664V6.73828Z"/>
</symbol><symbol id="ghost" viewBox="0 0 46 46">
<path d="M19.3513 15.7771L21.2571 13.8713L19.5147 12.1289L21.2571 10.3864L19.3513 8.48068L17.6089 10.223L15.8664 8.48068L13.9607 10.3864L15.703 12.1289L13.9607 13.8713L15.8664 15.7771L17.6089 14.0347L19.3513 15.7771Z"/>
<path d="M30.1326 8.48068L28.3901 10.223L26.6477 8.48068L24.7419 10.3864L26.4843 12.1289L24.7419 13.8713L26.6477 15.7771L28.3901 14.0347L30.1326 15.7771L32.0383 13.8713L30.296 12.1289L32.0383 10.3864L30.1326 8.48068Z"/>
<path d="M37.8243 14.8242C37.8243 6.65014 31.1741 0 23 0C14.826 0 8.17583 6.65014 8.17583 14.8242V20.2148C8.17583 24.6943 9.15674 28.4276 11.1745 31.6282C12.9171 34.392 15.1388 36.3069 17.099 37.9964C19.7425 40.2746 21.6524 41.9206 21.6524 44.6523V46H24.3477V44.6523C24.3477 41.9206 26.2576 40.2746 28.9011 37.9964C30.8613 36.3068 33.0831 34.392 34.8255 31.6282C36.8433 28.4276 37.8243 24.6943 37.8243 20.2148C37.8243 18.6114 37.8243 16.4612 37.8243 14.8242ZM27.1414 35.9547C25.5669 37.3117 24.0416 38.6271 23 40.2132C21.9585 38.6271 20.4333 37.3117 18.8587 35.9547C15.1146 32.7278 10.8711 29.0705 10.8711 20.2148C10.8711 18.6114 10.8711 16.4612 10.8711 14.8242C10.8711 8.13634 16.3122 2.69531 23 2.69531C29.6879 2.69531 35.1289 8.13634 35.1289 14.8242V20.2148C35.1289 29.0705 30.8854 32.7278 27.1414 35.9547Z"/>
<path d="M23 17.5195C19.2845 17.5195 16.2617 20.5423 16.2617 24.2578V28.3008H29.7382V24.2578C29.7382 20.5423 26.7154 17.5195 23 17.5195ZM27.0429 25.6055H18.957V24.2578C18.957 22.0285 20.7707 20.2148 23 20.2148C25.2293 20.2148 27.0429 22.0285 27.0429 24.2578V25.6055Z"/>
<path d="M5.39062 30.9961H2.69531C2.69531 32.6994 2.13666 33.8166 1.48997 35.1102C0.791613 36.5069 0 38.0901 0 40.4297C0 43.4021 2.41823 45.8203 5.39062 45.8203C8.36302 45.8203 10.7812 43.4021 10.7812 40.4297C10.7812 37.85 9.13963 36.2084 7.69116 34.76C6.45671 33.5255 5.39062 32.4594 5.39062 30.9961ZM5.39062 43.125C3.90443 43.125 2.69531 41.9159 2.69531 40.4297C2.69531 38.7263 3.25396 37.6091 3.90066 36.3156C4.07477 35.9676 4.25446 35.608 4.42642 35.2281C4.86091 35.7414 5.33259 36.2131 5.7854 36.6659C7.01985 37.9003 8.08594 38.9664 8.08594 40.4297C8.08594 41.9159 6.87682 43.125 5.39062 43.125Z"/>
<path d="M44.51 32.4149C43.8633 31.1213 43.3047 30.0041 43.3047 28.3008H40.6094C40.6094 29.7641 39.5433 30.8302 38.3088 32.0647C36.8604 33.5131 35.2188 35.1547 35.2188 37.7344C35.2188 40.7068 37.637 43.125 40.6094 43.125C43.5818 43.125 46 40.7068 46 37.7344C46 35.3948 45.2084 33.8116 44.51 32.4149ZM40.6094 40.4297C39.1232 40.4297 37.9141 39.2206 37.9141 37.7344C37.9141 36.2711 38.9801 35.205 40.2146 33.9705C40.6674 33.5176 41.1391 33.046 41.5736 32.5327C41.7454 32.9126 41.9252 33.2722 42.0993 33.6202C42.746 34.9138 43.3047 36.031 43.3047 37.7344C43.3047 39.2206 42.0956 40.4297 40.6094 40.4297Z"/>
</symbol><symbol id="gong" viewBox="0 0 46 46">
<path d="M46 8.08594V0H37.9141V2.69531H8.08594V0H0V8.08594H2.69531V43.3047H0V46H8.08594V43.3047H5.39062V8.08594H8.08594V5.39062H13.9042L15.9969 12.5428C11.3452 15.0468 8.17578 19.9627 8.17578 25.6055C8.17578 33.7795 14.8259 40.4297 23 40.4297C31.1741 40.4297 37.8242 33.7795 37.8242 25.6055C37.8242 19.9627 34.6548 15.0468 30.003 12.5428L32.0958 5.39062H37.9141V8.08594H40.6094V43.3047H37.9141V46H46V43.3047H43.3047V8.08594H46ZM5.39062 5.39062H2.69531V2.69531H5.39062V5.39062ZM35.1289 25.6055C35.1289 32.2933 29.6879 37.7344 23 37.7344C16.3121 37.7344 10.8711 32.2933 10.8711 25.6055C10.8711 18.9176 16.3121 13.4766 23 13.4766C29.6879 13.4766 35.1289 18.9176 35.1289 25.6055ZM27.5051 11.4819C26.0837 11.0275 24.5702 10.7812 23 10.7812C21.4298 10.7812 19.9163 11.0275 18.4949 11.4819L16.7126 5.39062H29.2874L27.5051 11.4819ZM40.6094 2.69531H43.3047V5.39062H40.6094V2.69531Z"/>
<path d="M16.2617 25.6055C16.2617 29.321 19.2845 32.3438 22.9999 32.3438C26.7154 32.3438 29.7382 29.321 29.7382 25.6055C29.7382 21.89 26.7154 18.8672 22.9999 18.8672C19.2845 18.8672 16.2617 21.89 16.2617 25.6055ZM27.0429 25.6055C27.0429 27.8348 25.2292 29.6484 22.9999 29.6484C20.7706 29.6484 18.957 27.8348 18.957 25.6055C18.957 23.3762 20.7706 21.5625 22.9999 21.5625C25.2292 21.5625 27.0429 23.3762 27.0429 25.6055Z"/>
<path d="M13.5665 43.3047H32.4337V46H13.5665V43.3047Z"/>
</symbol><symbol id="grave" viewBox="0 0 46 46">
<path d="M13.5665 37.9141H16.2618V40.6094H13.5665V37.9141Z"/>
<path d="M21.6523 37.9141H24.3476V40.6094H21.6523V37.9141Z"/>
<path d="M29.7383 37.9141H32.4337V40.6094H29.7383V37.9141Z"/>
<path d="M44.6523 29.8281H46V27.1328H44.6523C42.4505 27.1328 40.492 28.1942 39.2617 29.8323C38.0314 28.1942 36.0729 27.1328 33.8711 27.1328H32.5234V29.8281H33.8711C36.1004 29.8281 37.9141 31.6418 37.9141 33.8711V34.8131C35.1769 33.9325 31.4804 33.042 27.043 32.6858V16.3516H35.1289V8.26562H27.043V0H18.957V8.26562H10.8711V16.3516H18.957V32.6858C14.5196 33.042 10.8231 33.9325 8.08594 34.8131V33.8711C8.08594 31.6418 9.89961 29.8281 12.1289 29.8281H13.4766V27.1328H12.1289C9.92711 27.1328 7.9686 28.1942 6.73828 29.8323C5.50796 28.1942 3.54946 27.1328 1.34766 27.1328H0V29.8281H1.34766C3.57695 29.8281 5.39062 31.6418 5.39062 33.8711V35.7822C2.66387 36.8701 1.22987 37.7308 0 38.5361V46H46V38.5361C44.7659 37.728 43.3842 36.8892 40.6094 35.7822V33.8711C40.6094 31.6418 42.423 29.8281 44.6523 29.8281ZM13.5664 13.6562V10.9609H21.6523V2.69531H24.3477V10.9609H32.4336V13.6562H24.3477V32.5415C23.9045 32.5297 23.4553 32.5234 23 32.5234C22.5447 32.5234 22.0955 32.5297 21.6523 32.5415V13.6562H13.5664ZM43.3047 43.3047H2.69531V40.0269C6.35447 37.9646 13.5974 35.2188 23 35.2188C27.7291 35.2188 33.0936 35.9231 38.3264 37.7995C40.7578 38.6714 42.4611 39.5516 43.3047 40.0273V43.3047Z"/>
</symbol><symbol id="graveyard-2" viewBox="0 0 46 46">
<path d="M40.5195 21.8755V16.3516H43.2148V13.6562H40.5195V10.9609H37.8242V13.6562H35.1289V16.3516H37.8242V21.8778C36.718 22.1033 35.7096 22.6007 34.8719 23.2969C33.8107 18.2278 29.5751 14.3121 24.3477 13.7315V5.39062H27.043V2.69531H24.3477V0H21.6523V2.69531H18.957V5.39062H21.6523V13.7315C16.4249 14.3121 12.1893 18.2278 11.1281 23.297C10.2903 22.6008 9.28203 22.1033 8.17578 21.8779V16.3516H10.8711V13.6562H8.17578V10.9609H5.48047V13.6562H2.78516V16.3516H5.48047V21.8755C2.43593 22.4838 0 25.1697 0 28.4805V46H46V28.4805C46 25.1689 43.5633 22.4837 40.5195 21.8755ZM10.8711 43.3047H2.69531V28.4805C2.69531 26.2889 4.58787 24.4375 6.82812 24.4375C9.05742 24.4375 10.8711 26.2512 10.8711 28.4805V43.3047ZM32.4336 43.3047H13.5664V28.4805V25.7852C13.5664 20.5835 17.7983 16.3516 23 16.3516C28.2017 16.3516 32.4336 20.5835 32.4336 25.7852V28.4805V43.3047ZM43.3047 43.3047H35.1289V28.4805C35.1289 26.2512 36.9426 24.4375 39.1719 24.4375C41.4121 24.4375 43.3047 26.2889 43.3047 28.4805V43.3047Z"/>
<path d="M37.8242 27.1328H40.5195V29.8281H37.8242V27.1328Z"/>
<path d="M37.8242 32.5234H40.5195V35.2188H37.8242V32.5234Z"/>
<path d="M5.48041 32.5234H8.17572V35.2188H5.48041V32.5234Z"/>
<path d="M5.48041 27.1328H8.17572V29.8281H5.48041V27.1328Z"/>
<path d="M23.0001 27.1328C25.2294 27.1328 27.043 25.3191 27.043 23.0898C27.043 20.8606 25.2294 19.0469 23.0001 19.0469C20.7708 19.0469 18.9571 20.8606 18.9571 23.0898C18.9571 25.3191 20.7708 27.1328 23.0001 27.1328ZM23.0001 21.7422C23.7432 21.7422 24.3477 22.3467 24.3477 23.0898C24.3477 23.8329 23.7432 24.4375 23.0001 24.4375C22.257 24.4375 21.6524 23.8329 21.6524 23.0898C21.6524 22.3467 22.257 21.7422 23.0001 21.7422Z"/>
<path d="M16.2617 29.8281H29.7382V32.5234H16.2617V29.8281Z"/>
<path d="M18.9571 35.2188H27.043V37.9141H18.9571V35.2188Z"/>
</symbol><symbol id="graveyard" viewBox="0 0 46 46">
<path d="M37.8243 37.7344V5.39062H32.2523C31.8748 4.01557 30.9176 2.77348 29.4652 1.80523C27.719 0.641125 25.4231 0 23.0001 0C20.5771 0 18.2811 0.641125 16.5349 1.80523C15.0825 2.77348 14.1253 4.01557 13.7479 5.39062H8.17584V37.7344H2.78522V46H43.2149V37.7344H37.8243ZM10.8712 8.08594H16.2618V6.73828C16.2618 4.54672 19.3476 2.69531 23.0001 2.69531C26.6526 2.69531 29.7383 4.54672 29.7383 6.73828V8.08594H35.129V37.7344H10.8712V8.08594ZM40.5196 43.3047H5.48053V40.4297H8.17584H37.8243H40.5196V43.3047Z"/>
<path d="M21.6524 21.5625H24.3477V13.4766H27.043V10.7812H24.3477V8.08594H21.6524V10.7812H18.9571V13.4766H21.6524V21.5625Z"/>
<path d="M16.2618 24.2578H29.7383V26.9531H16.2618V24.2578Z"/>
<path d="M16.2618 29.6484H29.7383V32.3438H16.2618V29.6484Z"/>
</symbol><symbol id="grim-reaper" viewBox="0 0 46 46">
<g clip-path="url(#clip0_576_12271)">
<path d="M40.5175 27.0861V17.5194C40.5175 9.87447 35.527 3.10176 28.2641 0.80864C25.8263 0.0390568 23.2813 -0.183391 20.6992 0.147945C11.9924 1.26504 5.47921 9.05988 5.47921 18.082V27.0862C2.43538 27.6944 -0.00112915 30.3797 -0.00112915 33.6909V45.9993H45.9978V33.6909C45.9978 30.3794 43.561 27.6942 40.5175 27.0861ZM8.17446 18.082C8.17446 9.86962 14.4294 2.69388 23.0225 2.69388C31.3195 2.69388 37.8222 9.50235 37.8222 17.5195V28.3005C37.8222 30.0573 36.6955 31.5552 35.127 32.1115C35.127 30.5017 35.127 19.0429 35.127 17.5195C35.127 10.8317 29.6861 5.39083 22.9983 5.39083C16.3106 5.39083 10.8697 10.8317 10.8697 17.5195V32.1115C9.30116 31.5552 8.17446 30.0573 8.17446 28.3005V18.082ZM13.565 24.2575H16.2602V29.648H29.7365V24.2575H32.4317V32.3432H13.565V24.2575ZM32.4317 21.5622H27.0412V26.9527H24.346V21.5622H21.6507V26.9527H18.9555V21.5622H13.565V17.5194C13.565 12.3178 17.7968 8.08599 22.9983 8.08599C28.1999 8.08599 32.4317 12.3178 32.4317 17.5194V21.5622ZM43.3025 43.3039H37.8222V37.7337H35.127V43.3039H10.8697V37.7337H8.17446V43.3039H2.69412V33.6909C2.69412 31.8959 3.96412 30.3298 5.65449 29.8217C6.34627 32.8065 9.02508 35.0385 12.2173 35.0385H33.7793C36.9715 35.0385 39.6504 32.8065 40.3422 29.8217C42.0326 30.3299 43.3025 31.8959 43.3025 33.6909V43.3039Z"/>
<path d="M15.6472 16.035L16.852 13.6255L22.2399 16.3194L21.0352 18.729L15.6472 16.035Z"/>
<path d="M23.729 16.313L29.117 13.6191L30.3218 16.0286L24.9338 18.7226L23.729 16.313Z"/>
</g>

</symbol><symbol id="hearse" viewBox="0 0 46 46">
<g clip-path="url(#clip0_576_12391)">
<path d="M46 27.043C46 23.3275 42.9772 20.3047 39.2617 20.3047H37.2876L31.897 12.2188H3.07158L0 21.4337V31.0859H5.62242C6.17873 32.6545 7.6767 33.7812 9.43359 33.7812C11.1905 33.7812 12.6885 32.6545 13.2448 31.0859H32.7552C33.3115 32.6545 34.8095 33.7812 36.5664 33.7812C38.3233 33.7812 39.8213 32.6545 40.3776 31.0859H46V27.043ZM34.0484 20.3047H27.1328V14.9141H30.4546L34.0484 20.3047ZM19.0469 14.9141H24.4375V20.3047H19.0469V14.9141ZM9.43359 31.0859C8.6905 31.0859 8.08594 30.4814 8.08594 29.7383C8.08594 28.9952 8.6905 28.3906 9.43359 28.3906C10.1767 28.3906 10.7812 28.9952 10.7812 29.7383C10.7812 30.4814 10.1767 31.0859 9.43359 31.0859ZM36.5664 31.0859C35.8233 31.0859 35.2188 30.4814 35.2188 29.7383C35.2188 28.9952 35.8233 28.3906 36.5664 28.3906C37.3095 28.3906 37.9141 28.9952 37.9141 29.7383C37.9141 30.4814 37.3095 31.0859 36.5664 31.0859ZM36.5664 23H39.2617C41.491 23 43.3047 24.8137 43.3047 27.043V28.3906H40.3776C39.8213 26.822 38.3233 25.6953 36.5664 25.6953C34.8095 25.6953 33.3115 26.822 32.7552 28.3906H13.2448C12.6885 26.822 11.1905 25.6953 9.43359 25.6953C7.6767 25.6953 6.17873 26.822 5.62242 28.3906H2.69531V23H12.1289V20.3047H3.21739L5.01427 14.9141H16.3516V23H36.5664Z"/>
</g>

</symbol><symbol id="incense-burner" viewBox="0 0 46 46">
<path d="M40.5195 29.8281H32.4336V10.7812H29.7383V29.8281H24.3476V10.7812H21.6523V29.8281H16.2617V10.7812H13.5664V29.8281H5.48044V32.5234H8.17575V36.5664C8.17575 39.8205 10.4944 42.543 13.5664 43.1691V46H16.2617V43.3047H29.7383V46H32.4336V43.1691C35.5055 42.5431 37.8242 39.8205 37.8242 36.5664V32.5234H40.5195V29.8281ZM35.1289 36.5664C35.1289 38.7957 33.3152 40.6094 31.0859 40.6094C30.3654 40.6094 16.0798 40.6094 14.914 40.6094C12.6847 40.6094 10.8711 38.7957 10.8711 36.5664V32.5234H35.1289V36.5664Z"/>
<path d="M16.2617 6.73828C16.2617 5.99518 16.8662 5.39062 17.6093 5.39062C19.8386 5.39062 21.6523 3.57695 21.6523 1.34766V0H18.957V1.34766C18.957 2.09075 18.3524 2.69531 17.6093 2.69531C15.3801 2.69531 13.5664 4.50899 13.5664 6.73828V8.08594H16.2617V6.73828Z"/>
<path d="M21.6523 8.08594H24.3476V6.73828C24.3476 5.99518 24.9522 5.39062 25.6953 5.39062C27.9246 5.39062 29.7383 3.57695 29.7383 1.34766V0H27.0429V1.34766C27.0429 2.09075 26.4384 2.69531 25.6953 2.69531C23.466 2.69531 21.6523 4.50899 21.6523 6.73828V8.08594Z"/>
<path d="M29.7383 8.08594H32.4336V6.73828C32.4336 5.99518 33.0381 5.39062 33.7812 5.39062C36.0105 5.39062 37.8242 3.57695 37.8242 1.34766V0H35.1289V1.34766C35.1289 2.09075 34.5243 2.69531 33.7812 2.69531C31.5519 2.69531 29.7383 4.50899 29.7383 6.73828V8.08594Z"/>
</symbol><symbol id="letter" viewBox="0 0 46 46">
<path d="M37.8242 16.3516V0H8.17578V16.3516H0V46H46V16.3516H37.8242ZM41.7628 19.0469L37.8242 23.7418V19.0469H41.7628ZM35.1289 2.69531V26.9548L30.4574 32.5234H15.5426L10.8711 26.9548V2.69531H35.1289ZM8.17578 23.7418L4.23721 19.0469H8.17578V23.7418ZM2.69531 43.3047V21.4026L14.2855 35.2188H31.7144L43.3047 21.4026V43.3047H2.69531Z"/>
<path d="M21.6524 19.0469H24.3477V10.9609H27.043V8.26562H24.3477V5.57031H21.6524V8.26562H18.9571V10.9609H21.6524V19.0469Z"/>
<path d="M18.9571 21.7422H27.043V24.4375H18.9571V21.7422Z"/>
<path d="M16.2617 27.1328H29.7382V29.8281H16.2617V27.1328Z"/>
</symbol><symbol id="location" viewBox="0 0 46 46">
<g clip-path="url(#clip0_576_12399)">
<path d="M24.3445 10.7792H21.6497V13.474H18.9549V16.1688H21.6497V24.2531H24.3445V16.1688H27.0393V13.474H24.3445V10.7792Z"/>
<path d="M22.9984 0C13.3399 0 5.48218 7.85776 5.48218 17.5162C5.48218 20.0638 6.00874 22.5034 7.04723 24.7672C8.26509 27.4219 8.64192 27.5651 22.9984 46C38.1296 26.572 37.7776 27.3273 38.9529 24.764C39.9891 22.504 40.5145 20.0655 40.5145 17.5162C40.5145 7.85776 32.6569 0 22.9984 0V0ZM34.6094 26.7062C34.2534 27.1636 23.0055 41.6077 22.9984 41.6168L11.6525 27.0621C11.1964 26.3735 8.17697 23.2044 8.17697 17.5162C8.17697 9.34367 14.8258 2.6948 22.9984 2.6948C31.1709 2.6948 37.8197 9.34367 37.8197 17.5162C37.8197 22.5824 35.4035 25.6862 34.6094 26.7062Z"/>
<path d="M22.9986 5.38983C16.312 5.38983 10.872 10.8298 10.872 17.5164C10.872 24.203 16.312 29.643 22.9986 29.643C29.6852 29.643 35.1252 24.203 35.1252 17.5164C35.1252 10.8298 29.6853 5.38983 22.9986 5.38983ZM22.9986 26.9482C17.7979 26.9482 13.5668 22.7171 13.5668 17.5164C13.5668 12.3157 17.7979 8.08463 22.9986 8.08463C28.1993 8.08463 32.4304 12.3157 32.4304 17.5164C32.4304 22.7171 28.1993 26.9482 22.9986 26.9482Z"/>
</g>

</symbol><symbol id="mausoleum" viewBox="0 0 46 46">
<path d="M40.5196 21.5625H43.2149V13.4766H37.7624C37.0792 5.93175 30.7199 0 23.0001 0C15.2802 0 8.92092 5.93175 8.23774 13.4766H2.78522V21.5625H5.48053V37.9141H2.78522V46H43.2149V37.9141H40.5196C40.5196 36.991 40.5196 22.5148 40.5196 21.5625ZM37.8243 24.2578H35.129V21.5625H37.8243V24.2578ZM32.4337 37.9141H29.7383V24.2578C27.7818 24.2578 18.0159 24.2578 16.2618 24.2578V37.9141H13.5665C13.5665 36.991 13.5665 22.5148 13.5665 21.5625H32.4337V37.9141ZM24.3477 26.9531H27.043V37.9141H24.3477V26.9531ZM21.6524 37.9141H18.9571V26.9531H21.6524V37.9141ZM23.0001 2.69531C29.2324 2.69531 34.382 7.42064 35.0546 13.4766H10.9455C11.6181 7.42064 16.7677 2.69531 23.0001 2.69531ZM5.48053 16.1719H40.5196V18.8672C36.7791 18.8672 11.7368 18.8672 5.48053 18.8672V16.1719ZM8.17584 21.5625H10.8712V24.2578H8.17584V21.5625ZM8.17584 26.9531H10.8712V37.9141H8.17584V26.9531ZM40.5196 43.3047H5.48053V40.6094H40.5196V43.3047ZM37.8243 37.9141H35.129V26.9531H37.8243V37.9141Z"/>
</symbol><symbol id="memorial-day" viewBox="0 0 46 46">
<path d="M37.8242 2.78516V0H35.1289V2.78516H10.8711V0H8.17578V2.78516H0V46H46V2.78516H37.8242ZM8.17578 5.48047V8.17578H10.8711V5.48047H35.1289V8.17578H37.8242V5.48047H43.3047V10.8711H2.69531V5.48047H8.17578ZM2.69531 43.3047V13.5664H43.3047V43.3047H2.69531Z"/>
<path d="M27.0429 18.957H29.7382V21.6523H27.0429V18.957Z"/>
<path d="M32.4335 18.957H35.1289V21.6523H32.4335V18.957Z"/>
<path d="M37.8242 18.957H40.5195V21.6523H37.8242V18.957Z"/>
<path d="M27.0429 24.3477H29.7382V27.043H27.0429V24.3477Z"/>
<path d="M32.4335 24.3477H35.1289V27.043H32.4335V24.3477Z"/>
<path d="M37.8242 24.3477H40.5195V27.043H37.8242V24.3477Z"/>
<path d="M27.0429 29.7383H29.7382V32.4336H27.0429V29.7383Z"/>
<path d="M32.4335 29.7383H35.1289V32.4336H32.4335V29.7383Z"/>
<path d="M37.8242 29.7383H40.5195V32.4336H37.8242V29.7383Z"/>
<path d="M27.0429 35.1289H29.7382V37.8242H27.0429V35.1289Z"/>
<path d="M32.4335 35.1289H35.1289V37.8242H32.4335V35.1289Z"/>
<path d="M37.8242 35.1289H40.5195V37.8242H37.8242V35.1289Z"/>
<path d="M5.48044 40.5195H24.3476V16.2617H5.48044V40.5195ZM8.17575 18.957H21.6523V37.8242H8.17575V18.957Z"/>
<path d="M16.2617 21.6523H13.5664V24.3477H10.8711V27.043H13.5664V35.1289H16.2617V27.043H18.957V24.3477H16.2617V21.6523Z"/>
</symbol><symbol id="morgue" viewBox="0 0 46 46">
<path d="M0 1.4375V44.5625H46V1.4375H0ZM43.3047 4.13281V14.9141H40.2877C40.4373 14.4922 40.5195 14.0388 40.5195 13.5664C40.5195 11.3371 38.7059 9.52344 36.4766 9.52344H17.6094C16.0459 9.52344 14.6878 10.4161 14.0155 11.7181C14.074 11.4447 14.1055 11.1616 14.1055 10.8711C14.1055 8.6418 12.2918 6.82812 10.0625 6.82812C7.83321 6.82812 6.01953 8.6418 6.01953 10.8711C6.01953 13.1004 7.83321 14.9141 10.0625 14.9141C11.626 14.9141 12.984 14.0214 13.6563 12.7194C13.5979 12.9928 13.5664 13.2759 13.5664 13.5664C13.5664 14.0388 13.6486 14.4922 13.7982 14.9141H10.0625H2.69531V4.13281H43.3047ZM16.2617 27.043C16.2617 26.2999 16.8663 25.6953 17.6094 25.6953H36.4766C37.2197 25.6953 37.8242 26.2999 37.8242 27.043C37.8242 27.7861 37.2197 28.3906 36.4766 28.3906H17.6094C16.8663 28.3906 16.2617 27.7861 16.2617 27.043ZM36.4766 23H17.6094C16.0459 23 14.6878 23.8927 14.0155 25.1946C14.074 24.9213 14.1055 24.6381 14.1055 24.3477C14.1055 22.1184 12.2918 20.3047 10.0625 20.3047C7.83321 20.3047 6.01953 22.1184 6.01953 24.3477C6.01953 26.577 7.83321 28.3906 10.0625 28.3906C11.626 28.3906 12.984 27.4979 13.6563 26.196C13.5979 26.4693 13.5664 26.7525 13.5664 27.043C13.5664 27.5154 13.6486 27.9688 13.7982 28.3906H10.0625H2.69531V17.6094H43.3047V28.3906H40.2877C40.4373 27.9688 40.5195 27.5154 40.5195 27.043C40.5195 24.8137 38.7059 23 36.4766 23ZM11.4102 24.3477C11.4102 25.0908 10.8056 25.6953 10.0625 25.6953C9.3194 25.6953 8.71484 25.0908 8.71484 24.3477C8.71484 23.6046 9.3194 23 10.0625 23C10.8056 23 11.4102 23.6046 11.4102 24.3477ZM16.2617 13.5664C16.2617 12.8233 16.8663 12.2188 17.6094 12.2188H36.4766C37.2197 12.2188 37.8242 12.8233 37.8242 13.5664C37.8242 14.3095 37.2197 14.9141 36.4766 14.9141H17.6094C16.8663 14.9141 16.2617 14.3095 16.2617 13.5664ZM11.4102 10.8711C11.4102 11.6142 10.8056 12.2188 10.0625 12.2188C9.3194 12.2188 8.71484 11.6142 8.71484 10.8711C8.71484 10.128 9.3194 9.52344 10.0625 9.52344C10.8056 9.52344 11.4102 10.128 11.4102 10.8711ZM17.6094 41.8672C16.8663 41.8672 16.2617 41.2626 16.2617 40.5195C16.2617 39.7764 16.8663 39.1719 17.6094 39.1719H36.4766C37.2197 39.1719 37.8242 39.7764 37.8242 40.5195C37.8242 41.2626 37.2197 41.8672 36.4766 41.8672H17.6094ZM40.2877 41.8672C40.4373 41.4454 40.5195 40.9919 40.5195 40.5195C40.5195 38.2902 38.7059 36.4766 36.4766 36.4766H17.6094C16.0459 36.4766 14.6878 37.3693 14.0155 38.6712C14.074 38.3979 14.1055 38.1147 14.1055 37.8242C14.1055 35.5949 12.2918 33.7812 10.0625 33.7812C7.83321 33.7812 6.01953 35.5949 6.01953 37.8242C6.01953 40.0535 7.83321 41.8672 10.0625 41.8672C11.626 41.8672 12.984 40.9745 13.6563 39.6726C13.5979 39.9459 13.5664 40.2291 13.5664 40.5195C13.5664 40.9919 13.6486 41.4454 13.7982 41.8672H10.0625H2.69531V31.0859H43.3047V41.8672H40.2877ZM11.4102 37.8242C11.4102 38.5673 10.8056 39.1719 10.0625 39.1719C9.3194 39.1719 8.71484 38.5673 8.71484 37.8242C8.71484 37.0811 9.3194 36.4766 10.0625 36.4766C10.8056 36.4766 11.4102 37.0811 11.4102 37.8242Z"/>
</symbol><symbol id="obituary" viewBox="0 0 46 46">
<path d="M5.48041 0V46H40.5195V0H5.48041ZM37.8242 43.3047H8.17572V2.69531H37.8242V43.3047Z"/>
<path d="M29.7382 18.957H32.4335V10.8711H35.1288V8.17578H32.4335V5.48047H29.7382V8.17578H27.0429V10.8711H29.7382V18.957Z"/>
<path d="M10.871 21.6523H18.957V24.3477H10.871V21.6523Z"/>
<path d="M10.871 27.043H35.1288V29.7383H10.871V27.043Z"/>
<path d="M10.871 32.4336H35.1288V35.1289H10.871V32.4336Z"/>
<path d="M27.0429 37.8242H35.1288V40.5195H27.0429V37.8242Z"/>
<path d="M24.3476 5.48047H10.871V18.957H24.3476V5.48047ZM21.6523 16.2617H13.5663V8.17578H21.6523V16.2617Z"/>
</symbol><symbol id="portrait" viewBox="0 0 46 46">
<path d="M2.78519 0V46H43.2149V0H2.78519ZM40.5196 31.7336L28.9485 43.3047H25.1375L40.5196 27.9226V31.7336ZM35.1289 29.5015L26.7164 37.9141H10.8711V8.08594H35.1289V29.5015ZM5.4805 2.69531H40.5196V24.1109L37.8242 26.8062V5.39062H8.17581V40.6094H24.0211L21.3258 43.3047H5.4805V2.69531ZM32.7602 43.3047L35.4555 40.6094H37.8242V38.2406L40.5196 35.5453V43.3047H32.7602Z"/>
<path d="M29.7383 28.4805C29.7383 24.765 26.7155 21.7422 23 21.7422C19.2845 21.7422 16.2617 24.765 16.2617 28.4805V32.5234H29.7383V28.4805ZM27.043 29.8281H18.9571V28.4805C18.9571 26.2512 20.7707 24.4375 23 24.4375C25.2293 24.4375 27.043 26.2512 27.043 28.4805V29.8281Z"/>
<path d="M27.043 17.6992C27.043 15.4699 25.2293 13.6562 23 13.6562C20.7707 13.6562 18.9571 15.4699 18.9571 17.6992C18.9571 19.9285 20.7707 21.7422 23 21.7422C25.2293 21.7422 27.043 19.9285 27.043 17.6992ZM23 19.0469C22.2569 19.0469 21.6524 18.4423 21.6524 17.6992C21.6524 16.9561 22.2569 16.3516 23 16.3516C23.7431 16.3516 24.3477 16.9561 24.3477 17.6992C24.3477 18.4423 23.7431 19.0469 23 19.0469Z"/>
</symbol><symbol id="prayer-2" viewBox="0 0 46 46">
<path d="M35.7225 32.3438L29.4334 8.08594H25.6953C24.6606 8.08594 23.7159 8.47712 23 9.11869C22.2841 8.47712 21.3394 8.08594 20.3047 8.08594H16.5666L10.2775 32.3438H0V46H17.6094C19.8113 46 21.7696 44.9382 23 43.3C24.2304 44.9382 26.1887 46 28.3906 46H46V32.3438H35.7225ZM17.6094 43.3047H2.69531V35.0391H12.3631L18.6522 10.7812H20.3047C21.0478 10.7812 21.6523 11.3858 21.6523 12.1289V24.2578H20.3047C18.0754 24.2578 16.2617 26.0715 16.2617 28.3008V39.2617H18.957V28.3008C18.957 27.5577 19.5616 26.9531 20.3047 26.9531H21.6523V39.2617C21.6523 41.491 19.8387 43.3047 17.6094 43.3047ZM43.3047 43.3047H28.3906C26.1613 43.3047 24.3477 41.491 24.3477 39.2617V26.9531H25.6953C26.4384 26.9531 27.043 27.5577 27.043 28.3008V39.2617H29.7383V28.3008C29.7383 26.0715 27.9246 24.2578 25.6953 24.2578H24.3477V12.1289C24.3477 11.3858 24.9522 10.7812 25.6953 10.7812H27.3478L33.6369 35.0391H43.3047V43.3047Z"/>
<path d="M36.5713 5.23205C35.0871 3.887 33.4192 2.7732 31.6138 1.92175L30.4641 4.35957C32.0286 5.09746 33.4744 6.06292 34.7614 7.22918L36.5713 5.23205Z"/>
<path d="M39.4676 26.2073L42.0003 27.1292C42.6827 25.2544 43.0817 23.288 43.1862 21.2846L40.4945 21.1442C40.404 22.8804 40.0584 24.5839 39.4676 26.2073Z"/>
<path d="M42.6253 15.3516C42.1462 13.4118 41.3811 11.5572 40.3517 9.83902L38.0397 11.2243C38.9313 12.7125 39.5938 14.3185 40.0088 15.9981L42.6253 15.3516Z"/>
<path d="M6.57754 26.3319C5.97406 24.713 5.61549 23.0125 5.5119 21.2774L2.82144 21.4381C2.94102 23.4405 3.35511 25.4037 4.05203 27.2734L6.57754 26.3319Z"/>
<path d="M7.89022 11.3394L5.56758 9.97177C4.55145 11.6975 3.8008 13.5581 3.33658 15.5019L5.95813 16.1281C6.36009 14.4452 7.0102 12.834 7.89022 11.3394Z"/>
<path d="M22.9999 2.69531H23.0007C23.8439 2.69531 24.6911 2.75569 25.519 2.87482L25.9027 0.207C24.9482 0.0696289 23.9718 0 23.0007 0C23.0003 0 23.0001 0 22.9997 0C21.977 0 20.9492 0.0772656 19.945 0.229641L20.3493 2.8945C21.2203 2.76234 22.1119 2.69531 22.9999 2.69531Z"/>
<path d="M15.4137 4.41764L14.2452 1.9888C12.4465 2.85409 10.7874 3.98046 9.31366 5.33656L11.1387 7.31986C12.4166 6.14398 13.8549 5.16756 15.4137 4.41764Z"/>
</symbol><symbol id="prayer" viewBox="0 0 46 46">
<g clip-path="url(#clip0_576_12365)">
<path d="M44.6523 8.26562C40.9369 8.26562 37.9141 11.2884 37.9141 15.0039V19.8363L26.4111 31.3393C25.1384 32.612 24.4375 34.3041 24.4375 36.104V46H37.9141V40.3781C37.9141 40.0182 38.0543 39.6798 38.3088 39.4252L44.0265 33.7076C45.2992 32.4349 46.0001 30.7427 46.0001 28.9429V8.26562H44.6523ZM43.3047 28.9429C43.3047 30.0228 42.8841 31.0381 42.1205 31.8017L36.4029 37.5194C35.6392 38.2831 35.2187 39.2983 35.2187 40.3781V43.3047H27.1327V36.104C27.1327 35.0241 27.5533 34.0087 28.3169 33.2452L37.9141 23.648V27.364C37.9141 27.7239 37.7738 28.0623 37.5193 28.317L30.2228 35.6134L32.1287 37.5193L39.4251 30.2228C40.1888 29.4591 40.6094 28.4439 40.6094 27.364V15.0039C40.6094 13.2469 41.7359 11.7481 43.3047 11.1918V28.9429Z"/>
<path d="M8.08594 19.8363V15.0039C8.08594 11.2884 5.06314 8.26562 1.34766 8.26562H0V28.9429C0 30.7427 0.700871 32.4349 1.9736 33.7076L7.69125 39.4252C7.94578 39.6798 8.08603 40.0182 8.08603 40.3781V46H21.5626V36.104C21.5626 34.3041 20.8617 32.612 19.589 31.3393L8.08594 19.8363ZM18.8672 43.3047H10.7812V40.3781C10.7812 39.2982 10.3607 38.283 9.59702 37.5194L3.87936 31.8017C3.11578 31.0381 2.69522 30.0228 2.69522 28.9429V11.1918C4.26398 11.7481 5.39054 13.2468 5.39054 15.0039V27.364C5.39054 28.4439 5.81109 29.4591 6.57477 30.2228L13.8712 37.5193L15.7771 35.6134L8.48071 28.317C8.22618 28.0624 8.08594 27.724 8.08594 27.364V23.648L17.683 33.2452C18.4466 34.0088 18.8672 35.0241 18.8672 36.104V43.3047Z"/>
<path d="M18.9571 24.4375H27.043V13.6562H32.4336V5.57031H27.043V0H18.9571V5.57031H13.5664V13.6562H18.9571V24.4375ZM16.2618 10.9609V8.26562H21.6524V2.69531H24.3477V8.26562H29.7383V10.9609H24.3477V21.7422H21.6524V10.9609H16.2618Z"/>
</g>

</symbol><symbol id="priest" viewBox="0 0 46 46">
<path d="M32.4336 12.1289C32.4336 9.90177 32.4336 5.27275 32.4336 4.04297C32.4336 1.81368 30.6199 0 28.3907 0H17.6094C15.3801 0 13.5664 1.81368 13.5664 4.04297V12.1289C13.5664 17.3306 17.7983 21.5625 23 21.5625C28.2017 21.5625 32.4336 17.3306 32.4336 12.1289ZM16.2617 4.04297C16.2617 3.29987 16.8663 2.69531 17.6094 2.69531H28.3907C29.1338 2.69531 29.7383 3.29987 29.7383 4.04297V5.39062V5.41686C26.3451 5.55127 24.4307 6.18844 22.5738 6.80746C20.8483 7.38264 19.2064 7.92997 16.2617 8.05791C16.2617 5.99581 16.2617 6.07883 16.2617 4.04297ZM23 18.8672C19.2845 18.8672 16.2617 15.8444 16.2617 12.1289V10.755C19.655 10.6206 21.5694 9.98344 23.4262 9.36441C25.1518 8.78924 26.7937 8.24191 29.7383 8.11397V12.1289C29.7383 15.8444 26.7155 18.8672 23 18.8672Z"/>
<path d="M36.5664 21.5625H23H9.43359C4.23191 21.5625 0 25.7944 0 30.9961V46H46V30.9961C46 25.7944 41.7681 21.5625 36.5664 21.5625ZM35.2188 43.3047H32.4336V24.2578H35.2188V43.3047ZM29.7383 24.2578V43.3047H16.2617V24.2578H29.7383ZM10.7812 24.2578H13.5664V43.3047H10.7812V24.2578ZM2.69531 30.9961C2.69531 27.742 5.014 25.0195 8.08594 24.3934V43.3047H2.69531V30.9961ZM43.3047 43.3047H37.9141V24.3934C40.986 25.0194 43.3047 27.742 43.3047 30.9961V43.3047Z"/>
<path d="M18.9571 32.3438H21.6524V40.4297H24.3477V32.3438H27.043V29.6484H24.3477V26.9531H21.6524V29.6484H18.9571V32.3438Z"/>
</symbol><symbol id="pulse" viewBox="0 0 46 46">
<path d="M0 0V46H46V0H0ZM43.3047 43.3047H2.69531V2.69531H43.3047V43.3047Z"/>
<path d="M40.5195 5.39062H5.48041V35.2188H40.5195V5.39062ZM37.8242 8.08594V18.8672H21.1376L17.1855 10.9631L14.4097 22.0663L12.5436 18.8672H8.17572V8.08594H37.8242ZM8.17572 32.5234V21.5625H10.9954L15.4183 29.1447L18.0331 18.6853L19.4717 21.5625H37.8242V32.5234H8.17572Z"/>
<path d="M33.7812 40.6094C34.5255 40.6094 35.1288 40.006 35.1288 39.2617C35.1288 38.5174 34.5255 37.9141 33.7812 37.9141C33.0369 37.9141 32.4335 38.5174 32.4335 39.2617C32.4335 40.006 33.0369 40.6094 33.7812 40.6094Z"/>
<path d="M39.1718 40.6094C39.9161 40.6094 40.5195 40.006 40.5195 39.2617C40.5195 38.5174 39.9161 37.9141 39.1718 37.9141C38.4275 37.9141 37.8242 38.5174 37.8242 39.2617C37.8242 40.006 38.4275 40.6094 39.1718 40.6094Z"/>
<path d="M28.3906 40.6094C29.1349 40.6094 29.7382 40.006 29.7382 39.2617C29.7382 38.5174 29.1349 37.9141 28.3906 37.9141C27.6463 37.9141 27.0429 38.5174 27.0429 39.2617C27.0429 40.006 27.6463 40.6094 28.3906 40.6094Z"/>
<path d="M5.48041 37.9141H18.957V40.6094H5.48041V37.9141Z"/>
</symbol><symbol id="reaper" viewBox="0 0 46 46">
<g clip-path="url(#clip0_576_12372)">
<path d="M43.9231 21.3022L42.0174 19.3965L38.206 15.585L42.0173 11.7736L36.3003 6.05644L32.4888 9.86782L32.4716 9.85066L32.4885 9.83315L31.527 8.90604C26.7079 4.08687 24.3108 2.30866 22.1171 1.25551C18.8417 -0.316977 15.3441 -0.409867 11.1103 0.963276L8.0958 1.94096L10.8913 3.43377C15.9659 6.14358 20.7978 9.69498 24.934 13.7473L26.7513 15.585L26.7617 15.5749L26.7718 15.5851L2.07391 40.2829L7.79108 46.0001L32.489 21.3022L38.2061 27.0193L42.0176 23.2078L43.9231 21.3022ZM36.3004 9.86791L38.2061 11.7736L36.3004 13.6793L34.3947 11.7736L36.3004 9.86791ZM7.79099 42.1886L5.8853 40.2829L28.6774 17.4907L30.5832 19.3965L7.79099 42.1886ZM38.2061 23.2079L26.7717 11.7736L26.77 11.7753C23.2938 8.37726 19.3503 5.31709 15.1829 2.78165C20.634 2.12441 23.8139 5.19869 28.9413 10.1555L40.1118 21.3022L38.2061 23.2079Z"/>
</g>

</symbol><symbol id="ribbon" viewBox="0 0 46 46">
<g clip-path="url(#clip0_576_12248)">
<path d="M28.4211 23.9325C31.7383 19.518 33.8861 16.4192 35.0184 13.7987C36.653 10.0155 36.0921 7.14302 33.1427 4.19376C30.4383 1.48936 26.8427 0 23.0182 0C23.0069 0 22.9955 0.000359316 22.9841 0.000359316V0C19.1596 0 15.5639 1.48936 12.8596 4.19376C10.344 6.70933 9.36687 9.1242 10.6157 12.4413C11.6318 15.14 14.099 18.4098 18.0099 23.3807L7.98889 36.2809L11.8765 46L13.3114 44.0272C17 38.9553 20.2716 34.6323 23.0397 31.0021C25.8471 34.6995 29.0869 39.0718 32.6909 44.0272L34.1257 46L38.0133 36.2808L28.4211 23.9325ZM22.5096 27.2559C19.7606 30.8539 16.4127 35.2361 12.569 40.475L11.0647 36.7142L20.7847 24.2016L20.7978 24.1847L28.6734 13.3559C30.267 11.1645 31.0671 8.52217 30.9866 5.85676C31.0711 5.93635 31.1548 6.01693 31.2373 6.0993C35.3233 10.1854 33.4016 12.9991 22.5096 27.2559ZM23.0011 16.5733L19.5084 11.7709C18.9193 10.9608 18.4697 10.0715 18.1666 9.13875C19.6855 8.44752 21.3431 8.08461 23.0169 8.08461C24.6802 8.08461 26.3282 8.44312 27.8396 9.126C27.5364 10.0634 27.0856 10.9571 26.4938 11.7707L23.0011 16.5733ZM27.9892 3.8048C28.026 4.01572 28.3219 4.98946 28.2963 6.39484C26.6198 5.73477 24.8258 5.38974 23.0169 5.38974C21.197 5.38974 19.3929 5.73873 17.708 6.40643C17.6805 4.98749 17.9702 4.0397 18.0084 3.82528C19.5543 3.08599 21.2578 2.69487 23.0182 2.69487C24.7661 2.69487 26.455 3.07817 27.9892 3.8048ZM14.8684 5.99842L14.8845 6.01495C14.9273 5.973 14.9709 5.93213 15.0141 5.89099C14.9409 8.56035 15.7516 11.1868 17.329 13.3559L21.3351 18.8641L19.6787 21.1416C12.0602 11.4204 11.2177 9.56302 14.8684 5.99842ZM33.4344 40.4722C30.2017 36.0476 27.2849 32.1273 24.7359 28.7807C25.4385 27.861 26.1052 26.9881 26.7371 26.1575L34.9376 36.7141L33.4344 40.4722Z"/>
</g>

</symbol><symbol id="rosary" viewBox="0 0 46 46">
<path d="M40.5195 17.5195C40.5195 15.6609 39.2584 14.0923 37.5473 13.6216C38.7939 12.3585 39.1016 10.3693 38.1723 8.75977C37.2346 7.13557 35.3557 6.42059 33.6496 6.86882C34.0969 5.15191 33.3688 3.27624 31.7597 2.34717C30.136 1.40956 28.1511 1.72949 26.8976 2.97086C26.4264 1.26042 24.8581 0 23 0C21.1418 0 19.5735 1.26042 19.1024 2.97086C17.85 1.73066 15.8656 1.40875 14.2402 2.34717C12.631 3.27624 11.903 5.152 12.3503 6.86882C10.6472 6.42131 8.76673 7.13305 7.82759 8.75977C6.89834 10.3694 7.20605 12.3585 8.45264 13.6216C6.74147 14.0923 5.48042 15.6609 5.48042 17.5195C5.48042 19.3781 6.74147 20.9468 8.45264 21.4175C7.20605 22.6806 6.89834 24.6697 7.82759 26.2793C8.76376 27.9009 10.6419 28.6195 12.3501 28.1708C11.9032 29.8875 12.6312 31.7629 14.2402 32.6918C15.8704 33.6331 17.8543 33.304 19.1024 32.0681C19.4536 33.3437 20.4152 34.3684 21.6523 34.8072V37.7344H18.957V40.4297H21.6523V46H24.3476V40.4297H27.0429V37.7344H24.3476V34.8073C25.5848 34.3685 26.5463 33.3438 26.8976 32.0682C28.1269 33.2856 30.1079 33.6455 31.7597 32.6919C33.3686 31.7629 34.0967 29.8875 33.6498 28.1709C35.3544 28.6186 37.2343 27.9041 38.1723 26.2793C39.1016 24.6697 38.7939 22.6806 37.5473 21.4175C39.2584 20.9468 40.5195 19.3781 40.5195 17.5195ZM33.9972 9.61418C34.6434 9.24106 35.4663 9.4636 35.8381 10.1074C36.2097 10.751 35.9884 11.5768 35.3448 11.9483C34.7015 12.3198 33.8755 12.0987 33.5039 11.4551C33.1316 10.8102 33.3519 9.98658 33.9972 9.61418ZM28.5712 5.17464C28.9429 4.531 29.7656 4.30819 30.4121 4.6814C31.0556 5.0529 31.2769 5.87875 30.9053 6.5223C30.5328 7.16729 29.7097 7.38803 29.0644 7.01554C28.4209 6.64403 28.1996 5.81819 28.5712 5.17464ZM23 2.69531C23.7431 2.69531 24.3476 3.29987 24.3476 4.04297C24.3476 4.78607 23.7431 5.39062 23 5.39062C22.2569 5.39062 21.6523 4.78607 21.6523 4.04297C21.6523 3.29987 22.2569 2.69531 23 2.69531ZM15.5878 4.6814C16.2341 4.30837 17.057 4.53082 17.4287 5.17464C17.8003 5.81819 17.5791 6.64403 16.9355 7.01554C16.2903 7.38785 15.4672 7.16738 15.0946 6.5223C14.723 5.87875 14.9443 5.0529 15.5878 4.6814ZM10.1617 10.1074C10.5342 9.46243 11.3574 9.24169 12.0026 9.61418C12.6476 9.9864 12.8685 10.8098 12.496 11.4551C12.1245 12.0986 11.2988 12.3199 10.655 11.9483C10.0115 11.5768 9.79023 10.751 10.1617 10.1074ZM9.52339 16.1719C10.2665 16.1719 10.871 16.7764 10.871 17.5195C10.871 18.2626 10.2665 18.8672 9.52339 18.8672C8.7803 18.8672 8.17574 18.2626 8.17574 17.5195C8.17574 16.7764 8.7803 16.1719 9.52339 16.1719ZM12.0027 25.4249C11.3576 25.7972 10.5344 25.5768 10.1618 24.9316C9.79023 24.2881 10.0115 23.4622 10.6551 23.0907C11.2986 22.7192 12.1245 22.9404 12.4961 23.584C12.8684 24.229 12.648 25.0524 12.0027 25.4249ZM17.4287 29.8644C17.0563 30.5094 16.2331 30.7302 15.5878 30.3577C14.9443 29.9862 14.723 29.1603 15.0946 28.5168C15.467 27.8719 16.2902 27.6509 16.9355 28.0235C17.5791 28.395 17.8003 29.2209 17.4287 29.8644ZM23 32.3438C22.2569 32.3438 21.6523 31.7392 21.6523 30.9961C21.6523 30.253 22.2569 29.6484 23 29.6484C23.7431 29.6484 24.3476 30.253 24.3476 30.9961C24.3476 31.7392 23.7431 32.3438 23 32.3438ZM25.8413 28.1232C25.1105 27.4004 24.1066 26.9531 23 26.9531C21.8934 26.9531 20.8894 27.4004 20.1586 28.1232C19.8872 27.1318 19.2414 26.2426 18.2832 25.6893C17.3554 25.1536 16.2757 25.0087 15.2401 25.2793C15.5108 24.2438 15.3658 23.1641 14.8302 22.2363C14.2769 21.278 13.3877 20.6323 12.3963 20.3608C13.1191 19.63 13.5664 18.6261 13.5664 17.5195C13.5664 16.4127 13.1189 15.4086 12.3958 14.6777C13.3873 14.4063 14.2769 13.7611 14.8302 12.8027C15.3659 11.8748 15.5108 10.7951 15.2401 9.75946C16.2894 10.0337 17.3652 9.87976 18.2832 9.34977C19.2415 8.79642 19.8872 7.90724 20.1586 6.9159C20.8894 7.6387 21.8934 8.08594 23 8.08594C24.1066 8.08594 25.1105 7.6387 25.8413 6.9159C26.1127 7.90724 26.7585 8.79651 27.7168 9.34977C28.6332 9.87895 29.7088 10.0342 30.7599 9.75946C30.4891 10.7951 30.634 11.8748 31.1697 12.8027C31.7231 13.7612 32.6126 14.4064 33.6041 14.6778C32.881 15.4086 32.4335 16.4127 32.4335 17.5195C32.4335 18.6261 32.8808 19.63 33.6036 20.3608C32.6122 20.6323 31.723 21.278 31.1697 22.2363C30.6341 23.1641 30.4892 24.2438 30.7599 25.2793C29.7244 25.0087 28.6447 25.1536 27.7168 25.6892C26.7584 26.2426 26.1127 27.1318 25.8413 28.1232ZM30.4121 30.3577C29.767 30.73 28.9438 30.5096 28.5712 29.8644C28.1996 29.2209 28.4209 28.395 29.0644 28.0235C29.7109 27.6502 30.5334 27.8729 30.9053 28.5168C31.2769 29.1603 31.0556 29.9862 30.4121 30.3577ZM35.8382 24.9316C35.4657 25.5766 34.6424 25.7975 33.9973 25.4249C33.3523 25.0527 33.1315 24.2292 33.5039 23.584C33.8737 22.9436 34.6984 22.7174 35.3449 23.0907C35.9884 23.4622 36.2097 24.2881 35.8382 24.9316ZM36.4765 18.8672C35.7334 18.8672 35.1289 18.2626 35.1289 17.5195C35.1289 16.7764 35.7334 16.1719 36.4765 16.1719C37.2196 16.1719 37.8242 16.7764 37.8242 17.5195C37.8242 18.2626 37.2196 18.8672 36.4765 18.8672Z"/>
</symbol><symbol id="rose" viewBox="0 0 46 46">
<path d="M33.7859 26.9531C29.9821 26.9531 26.5816 28.7108 24.3523 31.4561V26.9531H27.0476V24.2578H24.3523V21.5625V21.4658C28.9178 20.8099 32.4382 16.8731 32.4382 12.1289V2.69531H31.0906C30.2389 2.69531 29.4134 2.8095 28.628 3.02207C27.3965 1.15395 25.302 0 23.0046 0C20.7072 0 18.6129 1.15395 17.3813 3.02207C16.5959 2.8095 15.7704 2.69531 14.9187 2.69531H13.571V12.1289C13.571 16.8731 17.0915 20.8099 21.657 21.4658V21.5625V26.0837C19.4298 23.3281 16.0242 21.5625 12.2135 21.5625H10.8658V22.9102C10.8658 29.148 15.5956 34.3012 21.6571 34.9738V37.7344H18.9618V40.4297H21.6371V40.4496H21.6571V46H24.3524V40.4297V40.3722C30.4097 39.6905 35.1336 34.5373 35.1336 28.3008V26.9531H33.7859ZM23.0046 2.69531C24.2203 2.69531 25.3409 3.23402 26.0957 4.12976C24.8348 4.91984 23.7732 5.99932 23.0046 7.27474C22.2361 5.99932 21.1743 4.91984 19.9136 4.12976C20.6684 3.23402 21.789 2.69531 23.0046 2.69531ZM16.2664 12.1289V5.52602C19.3382 6.15214 21.657 8.87486 21.657 12.1289V16.1719H24.3523V12.1289C24.3523 8.87486 26.6711 6.15214 29.7429 5.52602V12.1289C29.7429 15.8444 26.7201 18.8672 23.0046 18.8672C19.2891 18.8672 16.2664 15.8444 16.2664 12.1289ZM13.6738 24.3706C17.7143 25.0003 20.9145 28.2005 21.5442 32.241C17.5038 31.6113 14.3036 28.411 13.6738 24.3706ZM24.445 37.6417C25.0751 33.5962 28.2802 30.3911 32.3257 29.761C31.6956 33.8065 28.4905 37.0116 24.445 37.6417Z"/>
</symbol><symbol id="ruble" viewBox="0 0 46 46">
<path d="M23 0C10.3355 0 0 10.3366 0 23C0 35.6645 10.3366 46 23 46C35.6645 46 46 35.6634 46 23C46 10.3355 35.6634 0 23 0ZM23 43.3047C11.8039 43.3047 2.69531 34.1961 2.69531 23C2.69531 11.8039 11.8039 2.69531 23 2.69531C34.1961 2.69531 43.3047 11.8039 43.3047 23C43.3047 34.1961 34.1961 43.3047 23 43.3047Z"/>
<path d="M23 5.48047C13.3397 5.48047 5.48047 13.3397 5.48047 23C5.48047 32.6603 13.3397 40.5195 23 40.5195C32.6603 40.5195 40.5195 32.6603 40.5195 23C40.5195 13.3397 32.6603 5.48047 23 5.48047ZM23 37.8242C14.826 37.8242 8.17578 31.174 8.17578 23C8.17578 14.826 14.826 8.17578 23 8.17578C31.174 8.17578 37.8242 14.826 37.8242 23C37.8242 31.174 31.174 37.8242 23 37.8242Z"/>
<path d="M27.043 12.2188C24.8446 12.2188 19.7874 12.2188 18.957 12.2188V20.3047H16.2617V23H18.957V25.6953H16.2617V28.3906H18.957V33.7812H21.6523V28.3906H28.3906V25.6953H21.6523V23H27.043C30.0155 23 32.4336 20.5819 32.4336 17.6094C32.4336 14.6368 30.0155 12.2188 27.043 12.2188ZM27.043 20.3047H21.6523V14.9141H27.043C28.5293 14.9141 29.7383 16.1231 29.7383 17.6094C29.7383 19.0957 28.5293 20.3047 27.043 20.3047Z"/>
</symbol><symbol id="shovel" viewBox="0 0 46 46">
<g clip-path="url(#clip0_576_12337)">
<path d="M36.4716 0L35.5188 0.952896C33.9972 2.47455 33.3148 4.56433 33.6182 6.66497L15.2976 24.9856L9.58041 19.2684L8.62761 20.2213C5.90816 22.9408 3.79413 25.8948 2.34444 29.0014C1.17584 31.5057 0.434782 34.1118 0.141915 36.7476C-0.361529 41.2775 0.636465 44.3407 0.679138 44.4689L0.89223 45.1081L1.53142 45.3212C1.63392 45.3553 3.61203 46.0001 6.71633 46C10.1069 45.9998 13.6106 45.2372 16.999 43.6559C20.1055 42.2062 23.0596 40.0923 25.779 37.3727L26.7318 36.4199L21.0146 30.7027L39.3354 12.382C41.4719 12.6902 43.5491 11.9797 45.0473 10.4815L46.0002 9.5286L36.4716 0ZM22.9021 36.4015C18.6792 40.3074 14.0398 42.5808 9.09413 43.1639C6.28287 43.4954 4.10604 43.1629 3.06223 42.9364C2.53372 40.5057 1.4467 31.9305 9.59928 23.0987L13.3919 26.8913L13.2284 27.0548C11.2359 29.0473 10.1386 31.6964 10.1386 34.5142V35.8618H11.4861C14.3039 35.8618 16.953 34.7645 18.9454 32.7719L19.1089 32.6084L22.9021 36.4015ZM17.0398 30.8662C15.9133 31.9928 14.5047 32.7349 12.9735 33.0269C13.2654 31.4956 14.0076 30.087 15.1341 28.9604L34.6623 9.43221C34.664 9.43472 34.6658 9.43715 34.6675 9.43966C34.9206 9.82165 35.2175 10.1802 35.5187 10.4815C35.8448 10.8075 36.2076 11.0991 36.5613 11.3333C36.5635 11.3349 36.5657 11.3365 36.568 11.338L17.0398 30.8662ZM37.4244 8.5758C36.2223 7.3736 35.9005 5.5077 36.6336 3.97356L42.0267 9.36654C40.4921 10.0999 38.6253 9.77664 37.4244 8.5758Z"/>
</g>

</symbol><symbol id="skeleton" viewBox="0 0 46 46">
<path d="M15.6519 10.9231L21.04 8.22904L22.2448 10.6387L16.8567 13.3327L15.6519 10.9231Z"/>
<path d="M23.7342 10.6484L24.939 8.23883L30.3271 10.9329L29.1223 13.3425L23.7342 10.6484Z"/>
<path d="M33.7812 27.1328H24.3476V24.2578H29.7382V18.8672H35.1289V12.1289C35.1289 5.44103 29.6878 0 23 0C16.3121 0 10.871 5.44103 10.871 12.1289V18.8672H16.2617V24.2578H21.6523V27.1328H12.2187C8.50322 27.1328 5.48042 30.1556 5.48042 33.8711V46H8.17574V33.8711C8.17574 31.6418 9.98941 29.8281 12.2187 29.8281H21.6523V32.5234H13.5664V35.2188H21.6523V37.9141H10.871V40.6094H21.6523V43.3047H10.871V46H35.1289V43.3047H24.3476V40.6094H35.1289V37.9141H24.3476V35.2188H32.4335V32.5234H24.3476V29.8281H33.7812C36.0105 29.8281 37.8242 31.6418 37.8242 33.8711V46H40.5195V33.8711C40.5195 30.1556 37.4967 27.1328 33.7812 27.1328ZM13.5664 16.1719V12.1289C13.5664 6.92722 17.7983 2.69531 23 2.69531C28.2016 2.69531 32.4335 6.92722 32.4335 12.1289V16.1719H27.0429V21.5625H24.3476V16.1719H21.6523V21.5625H18.957V16.1719H13.5664Z"/>
</symbol><symbol id="suit" viewBox="0 0 46 46">
<path d="M27.043 32.5234H29.7383V35.2188H27.043V32.5234Z"/>
<path d="M27.043 37.9141H29.7383V40.6094H27.043V37.9141Z"/>
<path d="M28.5809 0H17.489L2.78519 4.77609V40.6094H8.17581V46H17.6094C19.8113 46 21.7696 44.9382 23 43.3C24.2304 44.9382 26.1888 46 28.3907 46H37.8242V40.6094H43.2149C43.2149 39.0058 43.2149 7.37357 43.2149 4.21466L28.5809 0ZM30.9411 18.4538L25.1944 24.2006L29.102 4.66226L33.2233 10.432L29.5482 12.8821L30.9411 18.4538ZM12.7767 10.432L16.8979 4.66226L20.8056 24.2006L15.0588 18.4538L16.4518 12.8821L12.7767 10.432ZM19.2533 2.69531H26.7468L23 21.4291L19.2533 2.69531ZM5.4805 37.9141V35.2188H8.17581V37.9141H5.4805ZM17.6094 43.3047H10.8711C10.8711 41.8089 10.8711 17.7096 10.8711 16.1719H8.17581V32.5234H5.4805V6.7346L14.1069 3.93255L8.96554 11.1305L13.3764 14.0711L12.074 19.2806L21.6524 28.859V39.2617C21.6524 41.491 19.8387 43.3047 17.6094 43.3047ZM40.5196 37.9141H37.8242V35.2188H40.5196V37.9141ZM37.8242 32.5234V16.1719H35.1289V43.3047H28.3907C26.1614 43.3047 24.3477 41.491 24.3477 39.2617C24.3477 37.149 24.3477 31.3051 24.3477 28.859L33.9261 19.2806L32.6237 14.0711L37.0346 11.1305L31.737 3.71378L40.5196 6.24324V32.5234H37.8242Z"/>
</symbol><symbol id="talk" viewBox="0 0 46 46">
<g clip-path="url(#clip0_576_12319)">
<path d="M16.1719 12.6134H18.8672V9.91809H16.1719V7.22278H13.4766V9.91809H10.7812V12.6134H13.4766V20.6993H16.1719V12.6134Z"/>
<path d="M32.3438 11.2657H29.6484C29.5585 11.2657 29.4683 11.2679 29.3782 11.2696C28.1277 5.12385 22.6815 0.484497 16.1719 0.484497H13.4766C6.04559 0.484497 0 6.53008 0 13.9611C0 19.3395 3.212 24.1887 8.08594 26.3161V34.7341L15.3824 27.4376H16.1719C16.2621 27.4376 16.3519 27.436 16.4418 27.4342C17.6997 33.6322 23.1708 38.2189 29.6484 38.2189H30.4379L37.7344 45.5154V37.0972C42.5785 34.9827 46 30.2118 46 24.7423C46 17.2572 39.7527 11.2657 32.3438 11.2657ZM14.266 24.7423L10.7812 28.2271V24.4468L9.88272 24.1292C5.5837 22.6097 2.69531 18.5235 2.69531 13.9611C2.69531 8.01628 7.53178 3.17981 13.4766 3.17981H16.1719C22.1167 3.17981 26.9531 8.01628 26.9531 13.9611C26.9531 19.9155 22.1061 24.7423 16.1719 24.7423H14.266ZM35.9376 34.9105L35.0391 35.2281V39.0083L31.5543 35.5236H29.6484C24.5312 35.5236 20.209 31.9852 19.1267 27.1104C25.1412 25.7598 29.6484 20.3773 29.6484 13.9611H32.3438C38.3876 13.9611 43.3047 18.7975 43.3047 24.7423C43.3047 29.2668 40.3441 33.353 35.9376 34.9105Z"/>
</g>

</symbol><symbol id="testament" viewBox="0 0 46 46">
<path d="M0 46H35.0391V0H0V46ZM2.69531 2.69531H32.3438V43.3047H2.69531V2.69531Z"/>
<path d="M16.1719 19.0469H18.8672V10.9609H21.5625V8.26562H18.8672V5.57031H16.1719V8.26562H13.4766V10.9609H16.1719V19.0469Z"/>
<path d="M8.08594 21.7422H26.9531V24.4375H8.08594V21.7422Z"/>
<path d="M5.39062 27.1328H29.6484V29.8281H5.39062V27.1328Z"/>
<path d="M9.43359 32.5234C7.2043 32.5234 5.39062 34.3371 5.39062 36.5664C5.39062 38.7957 7.2043 40.6094 9.43359 40.6094C11.6629 40.6094 13.4766 38.7957 13.4766 36.5664C13.4766 34.3371 11.6629 32.5234 9.43359 32.5234ZM9.43359 37.9141C8.6905 37.9141 8.08594 37.3095 8.08594 36.5664C8.08594 35.8233 8.6905 35.2188 9.43359 35.2188C10.1767 35.2188 10.7812 35.8233 10.7812 36.5664C10.7812 37.3095 10.1767 37.9141 9.43359 37.9141Z"/>
<path d="M28.1586 35.9637C27.7672 35.181 27.1122 33.8711 25.6055 33.8711C24.0987 33.8711 23.4437 35.181 23.0524 35.9637C23.0104 36.0476 22.9609 36.1466 22.9102 36.2436C22.8593 36.1466 22.8098 36.0476 22.7679 35.9637C22.3766 35.181 21.7216 33.8711 20.2148 33.8711C18.7081 33.8711 18.0531 35.181 17.6618 35.9637C17.5671 36.153 17.4339 36.4194 17.3336 36.5664H16.1719V39.2617H17.5195C19.0263 39.2617 19.6813 37.9518 20.0726 37.1691C20.1146 37.0853 20.1641 36.9862 20.2148 36.8892C20.2657 36.9862 20.3152 37.0853 20.3571 37.1691C20.7484 37.9518 21.4034 39.2617 22.9102 39.2617C24.4169 39.2617 25.0719 37.9518 25.4632 37.1691C25.5052 37.0853 25.5547 36.9862 25.6055 36.8892C25.6563 36.9862 25.7058 37.0853 25.7477 37.1691C26.1391 37.9518 26.794 39.2617 28.3008 39.2617H29.6484V36.5664H28.4867C28.3864 36.4194 28.2532 36.153 28.1586 35.9637Z"/>
<path d="M43.3047 8.26562V5.57031H40.6094V8.26562H37.9141V36.8845L41.957 44.9705L46 36.8845C46 35.7229 46 9.30215 46 8.26562H43.3047ZM43.3047 36.2483L41.957 38.9436L40.6094 36.2483V35.2188H43.3047V36.2483ZM40.6094 32.5234V10.9609H43.3047V32.5234H40.6094Z"/>
</symbol><symbol id="tribune" viewBox="0 0 46 46">
<g clip-path="url(#clip0_576_12311)">
<path d="M37.8242 13.6547V5.74803H32.4333V2.32293L27.7874 0L26.582 2.4109L29.7379 3.9889V5.74812H16.2606V3.9889L19.4166 2.4109L18.2111 0L13.5652 2.32293V5.74803H8.17432V13.6547H10.9978L13.4237 37.9137H10.8698V46H35.1288V37.9137H32.5748L35.0007 13.6547H37.8242ZM10.8698 8.44348H35.1288V10.9592H10.8698V8.44348ZM32.4333 40.6091V43.3046H13.5652V40.6091H13.6932H32.3052H32.4333ZM29.866 37.9137H16.1326L13.7067 13.6547H32.2919L29.866 37.9137Z"/>
<path d="M21.6497 32.5228H24.3452V24.4365H27.0406V21.741H24.3452V19.0456H21.6497V21.741H18.9543V24.4365H21.6497V32.5228Z"/>
</g>

</symbol><symbol id="trumpet" viewBox="0 0 46 46">
<g clip-path="url(#clip0_576_12370)">
<path d="M24.4812 0.000976562L25.5612 5.40207V5.40216C26.5345 10.2683 25.0207 15.2684 21.5116 18.7776L20.9615 19.3277L17.1537 15.5199L15.2499 17.4238L19.0576 21.2315L16.2371 24.052L12.4293 20.2442L10.5255 22.148L14.3333 25.9558L11.423 28.866L7.61529 25.0582L5.71162 26.9622L9.51931 30.77L3.80778 36.4815L1.90393 34.5776L0 36.4815L9.51922 46.0008L11.4231 44.0969L9.51922 42.1931L11.9324 39.7799C12.1733 40.6842 12.6474 41.5137 13.3269 42.1931C15.4263 44.2925 18.8423 44.2929 20.9424 42.1931L22.8462 44.0969L24.7501 42.1931L22.8462 40.2893L25.7565 37.379L27.6603 39.2828L29.5642 37.379L27.6603 35.4751L30.4808 32.6546L32.3846 34.5584L34.2885 32.6546L32.3846 30.7507C34.4842 28.6512 34.4842 25.2349 32.3846 23.1353C31.8607 22.6113 31.2547 22.2182 30.6076 21.9558C33.6172 20.313 37.1412 19.7479 40.5985 20.4394L45.9999 21.5196L24.4812 0.000976562ZM15.2308 40.2893C14.1785 39.2369 14.1785 37.534 15.2308 36.4815L19.0385 40.2893C17.9887 41.3391 16.2806 41.3391 15.2308 40.2893ZM20.9425 38.3854L17.1348 34.5776L20.045 31.6674L23.8527 35.4752L20.9425 38.3854ZM25.7565 33.5713L21.9487 29.7635L24.7693 26.943L28.577 30.7507L25.7565 33.5713ZM30.4809 28.8469L26.6731 25.0391C27.198 24.5143 27.8875 24.2518 28.577 24.2518C29.2665 24.2518 29.9559 24.5143 30.4809 25.0391C31.5306 26.089 31.5306 27.7971 30.4809 28.8469ZM25.3192 22.5853L7.61538 40.2892C7.16905 39.8428 6.15857 38.8324 5.71144 38.3853L23.4153 20.6815C26.8446 17.2522 28.6616 12.6182 28.5375 7.86505L38.1356 17.4632C33.3828 17.3396 28.7483 19.1563 25.3192 22.5853Z"/>
</g>

</symbol><symbol id="umbrella" viewBox="0 0 46 46">
<g clip-path="url(#clip0_576_12317)">
<path d="M46 23.0889C45.9995 11.9428 36.8911 2.875 25.6953 2.875H24.3477V0H21.6523V2.875H20.3047C9.82397 2.875 1.173 10.8217 0.110238 20.9808C0.0389023 21.2224 0 21.4778 0 21.7422V24.4375H2.69531V23.0898C2.69531 22.3454 3.29861 21.7422 4.04297 21.7422H9.52344C10.2665 21.7422 10.8711 22.3467 10.8711 23.0898V24.4375H13.5664V23.0898C13.5664 23.0898 13.5664 23.0898 13.5664 23.0897C13.5664 22.3453 14.1697 21.7422 14.9141 21.7422H20.3047C21.0478 21.7422 21.6523 22.3467 21.6523 23.0898V41.957C21.6523 44.1863 23.466 46 25.6953 46C27.9246 46 29.7383 44.1863 29.7383 41.957V37.9141H27.043V41.957C27.043 42.7001 26.4384 43.3047 25.6953 43.3047C24.9522 43.3047 24.3477 42.7001 24.3477 41.957C24.3477 41.3673 24.3477 27.548 24.3477 23.0898C24.3477 22.3457 24.9509 21.7422 25.695 21.7422H31.0859C31.829 21.7422 32.4336 22.3467 32.4336 23.0898V24.4375H35.1289C35.1289 23.9661 35.1289 23.5279 35.1289 23.0897C35.1289 22.3453 35.7322 21.7422 36.4766 21.7422H41.957C42.7001 21.7422 43.3047 22.3466 43.3047 23.0898V24.4375L46 24.437V23.0894C46 23.0892 46 23.0891 46 23.0889ZM9.52344 19.0469H3.16942C4.65139 12.8291 9.47295 7.8837 15.6378 6.19598C14.9645 7.03225 14.3402 8.01829 13.7764 9.146C12.3562 11.9863 11.4203 15.5193 11.0502 19.3471C10.5788 19.1541 10.0635 19.0469 9.52344 19.0469ZM20.3047 19.0469H13.79C14.1596 15.767 14.9794 12.767 16.1871 10.3514C17.7064 7.31292 19.6983 5.57031 21.6523 5.57031V19.2787C21.2305 19.1291 20.7772 19.0469 20.3047 19.0469ZM31.0859 19.0469H24.3477V5.57031C26.3017 5.57031 28.2936 7.31292 29.8129 10.3514C31.0408 12.8075 31.8675 15.8678 32.2279 19.2122C31.8655 19.1053 31.4825 19.0469 31.0859 19.0469ZM41.957 19.0469H35.1289C35.0586 19.0469 34.9893 19.0505 34.9204 19.0558C34.5317 15.3402 33.6077 11.9142 32.2236 9.14609C31.6598 8.01838 31.0354 7.03234 30.3622 6.19607C36.5607 7.89295 41.4021 12.8831 42.8553 19.1488C42.5662 19.0828 42.2658 19.0469 41.957 19.0469Z"/>
</g>

</symbol><symbol id="violin" viewBox="0 0 46 46">
<g clip-path="url(#clip0_576_12315)">
<path d="M45.9999 5.74533L40.283 0.0283813L38.3773 1.93409L36.4717 0.0284712L34.5661 1.93409L36.4717 3.83971L34.5661 5.74533L32.6604 3.83971L30.7547 5.74533L32.6604 7.65096L25.4457 14.8656C23.9312 14.0238 22.3734 13.5292 20.8881 13.4266C19.1847 13.3092 17.6383 13.7145 16.3472 14.6024L6.73356 4.98885L4.82794 6.89447L14.4281 16.4946C13.7859 17.3361 13.2148 18.3178 12.7461 19.3927L12.4814 19.9998L12.8003 20.5802C13.6969 22.2118 13.2439 23.3695 12.5837 23.8651C11.9399 24.3483 10.7414 24.4658 9.48226 23.2067C9.26119 22.9857 9.10335 22.7077 9.01298 22.3806L8.65077 21.0691L7.34281 21.444C5.65476 21.9278 4.13048 22.8414 2.81246 24.1595C0.96864 26.0033 -0.00397914 28.3589 -0.000116331 30.9717C0.00455497 34.102 1.39723 37.5002 3.77474 40.2875L0.390836 43.6714L2.29646 45.5771L5.67731 42.1962C8.27608 44.4177 11.6967 45.9706 15.0612 45.9706C17.6932 45.9706 20.0614 45.0234 21.8689 43.2158C23.1871 41.8977 24.1007 40.3734 24.5845 38.6855L24.9594 37.3778L23.6481 37.0155C23.3208 36.9251 23.0429 36.7672 22.8218 36.5461C21.562 35.2862 21.6781 34.0888 22.1604 33.4463C22.6569 32.785 23.8161 32.331 25.4483 33.2279L26.0287 33.5468L26.6358 33.2822C27.7107 32.8136 28.6924 32.2425 29.5339 31.6002L39.0735 41.1399L40.9791 39.2342L31.4259 29.6812C32.3139 28.39 32.7195 26.8435 32.6017 25.1403C32.499 23.6548 32.0045 22.097 31.1626 20.5826L38.3773 13.3678L40.283 15.2734L42.1886 13.3678L40.2829 11.4622L42.1886 9.55658L44.0942 11.4623L45.9998 9.55667L44.0942 7.65096L45.9999 5.74533ZM42.1886 5.74533L38.3773 9.55667L36.4717 7.65105L40.283 3.83971L42.1886 5.74533ZM22.9851 21.1375L34.5661 9.55658L36.4717 11.4622L24.8908 23.0432L22.9851 21.1375ZM4.71817 26.0651C5.42901 25.3543 6.18819 24.8139 7.01788 24.4306C7.1803 24.6748 7.36679 24.9024 7.57673 25.1123C9.72571 27.2613 12.4156 27.3611 14.2017 26.0204C15.7261 24.8762 16.6403 22.5891 15.4741 19.9152C16.3095 18.2229 17.1622 17.4573 17.2767 17.3185C18.9475 15.6564 21.3535 15.9107 23.4406 16.871L19.174 21.1376L21.0493 23.013L12.3105 31.7518L10.435 29.8764L4.16938 36.142C3.22991 34.4355 2.69729 32.6225 2.69477 30.9677C2.69208 29.0867 3.39179 27.3915 4.71817 26.0651ZM5.71567 38.407L10.435 33.6876L12.3407 35.5932L7.62264 40.3113C7.27543 40.0247 6.94126 39.722 6.6237 39.4045C6.30452 39.0854 6.0017 38.7517 5.71567 38.407ZM28.7093 28.7525L28.6926 28.7692C28.0216 29.4378 27.1381 30.0485 26.1132 30.5543C23.4384 29.3879 21.1499 30.3032 20.005 31.8285C18.7859 33.4527 18.5947 36.1305 20.9161 38.4518C21.126 38.6617 21.3537 38.8482 21.5978 39.0106C21.2145 39.8402 20.6742 40.5994 19.9633 41.3103C17.3086 43.9649 13.3137 43.6936 9.89819 41.8472L16.1521 35.5933L14.2162 33.6574L22.955 24.9186L24.8909 26.8545L29.1575 22.5879C30.1179 24.6752 30.3722 27.0816 28.7093 28.7525Z"/>
</g>

</symbol><symbol id="wine" viewBox="0 0 46 46">
<path d="M10.7812 26.9463C15.3468 26.2903 18.8672 22.3536 18.8672 17.6094V2.78516H0V17.6094C0 22.3536 3.52044 26.2903 8.08594 26.9463V40.5195H2.69531V43.2148H16.1719V40.5195H10.7812V26.9463ZM2.69531 5.48047H16.1719V13.5664C13.0623 13.5664 11.5428 12.9586 9.93411 12.3152C8.15925 11.6052 6.32401 10.8711 2.69531 10.8711V5.48047ZM2.69531 17.6094V13.5664C5.80489 13.5664 7.32442 14.1742 8.93307 14.8177C10.7079 15.5276 12.5432 16.2617 16.1719 16.2617V17.6094C16.1719 21.3249 13.1491 24.3477 9.43359 24.3477C5.71811 24.3477 2.69531 21.3249 2.69531 17.6094Z"/>
<path d="M33.8711 21.6523H28.4805C21.7926 21.6523 16.3516 27.0934 16.3516 33.7812C16.3516 36.0105 18.1652 37.8242 20.3945 37.8242H41.957C44.1863 37.8242 46 36.0105 46 33.7812C46 27.0934 40.559 21.6523 33.8711 21.6523ZM41.957 35.1289H20.3945C19.6514 35.1289 19.0469 34.5243 19.0469 33.7812C19.0469 30.0256 21.2532 26.7759 24.4375 25.2591V29.7383H27.1328V24.4443C27.5731 24.3811 28.0229 24.3477 28.4805 24.3477H29.8281V29.7383H32.5234V24.3477H33.8711C34.3287 24.3477 34.7784 24.3811 35.2188 24.4443V29.7383H37.9141V25.2591C41.0984 26.7759 43.3047 30.0256 43.3047 33.7812C43.3047 34.5243 42.7001 35.1289 41.957 35.1289Z"/>
</symbol><symbol id="wreath" viewBox="0 0 46 46">
<g clip-path="url(#clip0_576_12397)">
<path d="M46 23C46 21.4869 45.4184 19.977 44.3807 18.7433C44.837 17.2548 44.767 15.683 44.1662 14.2327C43.5646 12.7805 42.5007 11.6184 41.123 10.8887C41.1145 10.8007 41.1041 10.713 41.0922 10.6255L44.754 6.96361H41.5005C40.1418 6.96361 39.0364 5.85826 39.0364 4.49946V1.24595L35.3746 4.90771C35.2871 4.89577 35.1993 4.88543 35.1114 4.8769C34.3816 3.49923 33.2196 2.4353 31.7673 1.83371C30.3171 1.23293 28.7452 1.16294 27.2567 1.61925C26.023 0.581559 24.5131 0 23 0C21.4869 0 19.977 0.581469 18.7433 1.61925C17.2548 1.16303 15.6829 1.23302 14.2327 1.83371C12.7809 2.43504 11.6194 3.49825 10.8896 4.87537C9.33818 5.02262 7.91119 5.68891 6.80009 6.8C5.689 7.9111 5.02262 9.33809 4.87546 10.8894C3.49852 11.6192 2.43512 12.7809 1.8338 14.2327C1.23302 15.6829 1.16303 17.2546 1.61925 18.7431C0.581469 19.9768 0 21.4867 0 23C0 24.5133 0.581469 26.0232 1.61925 27.2569C1.16303 28.7454 1.23302 30.3171 1.8338 31.7673C2.4353 33.2195 3.49923 34.3814 4.87699 35.1112C4.88552 35.1993 4.89586 35.287 4.9078 35.3746L1.24595 39.0365H4.49946C5.85817 39.0365 6.96361 40.1418 6.96361 41.5006V44.7541L10.6255 41.0923C10.713 41.1042 10.8008 41.1146 10.8889 41.1232C11.6186 42.5009 12.7805 43.5648 14.2328 44.1664C15.683 44.7672 17.2547 44.8372 18.7432 44.3808C19.9768 45.4185 21.4867 46 23 46C24.5133 46 26.0232 45.4185 27.2569 44.3807C28.7454 44.837 30.3171 44.767 31.7673 44.1662C33.2191 43.5649 34.3808 42.5014 35.1106 41.1245C36.6619 40.9773 38.0888 40.311 39.2 39.1999C40.3112 38.0887 40.9774 36.6619 41.1245 35.1104C42.5017 34.3806 43.5649 33.2191 44.1662 31.7673C44.767 30.317 44.837 28.7452 44.3807 27.2567C45.4184 26.023 46 24.5131 46 23ZM6.66389 32.9639C5.58469 32.5646 4.75363 31.7733 4.32382 30.7358C3.8941 29.6984 3.92213 28.5513 4.40288 27.5058L4.81104 26.6179L4.09409 25.954C3.20518 25.1307 2.69531 24.054 2.69531 23C2.69531 21.946 3.20518 20.8693 4.09418 20.046L4.81113 19.3821L4.40297 18.4942C3.92222 17.4487 3.89419 16.3016 4.32391 15.2642C4.75372 14.2266 5.58478 13.4352 6.66398 13.0359L7.58039 12.6968L7.54292 11.7204C7.49881 10.5707 7.91182 9.50017 8.70595 8.70604C9.50008 7.91191 10.5722 7.49926 11.7205 7.54301L12.697 7.58048L13.0361 6.66398C13.4354 5.58478 14.2267 4.75372 15.2642 4.324C16.3016 3.89419 17.4488 3.92231 18.4945 4.40306L19.3823 4.81122L20.0462 4.09436C20.8695 3.20518 21.9462 2.69531 23 2.69531C24.0538 2.69531 25.1305 3.20518 25.954 4.09427L26.6179 4.81104L27.5057 4.40288C28.5513 3.92213 29.6984 3.8941 30.7359 4.32382C31.7735 4.75363 32.5649 5.58469 32.9642 6.6638L33.1409 7.14141L28.2869 11.9955C28.0648 11.947 27.849 11.8802 27.6416 11.7943C27.1174 11.5773 26.6442 11.2425 26.2351 10.7995L25.5702 10.0795L24.6804 10.4901C23.5848 10.9955 22.4156 10.9955 21.3198 10.4901L20.43 10.0795C19.9306 10.5629 19.4629 11.3368 18.3585 11.7942C17.2569 12.2506 16.3659 12.0352 15.6813 12.0463C15.4067 12.6799 15.2689 13.5782 14.4236 14.4234C13.5805 15.2665 12.6732 15.4094 12.0466 15.681C12.0354 16.3714 12.2519 17.2539 11.7945 18.3583C11.3374 19.462 10.5624 19.9311 10.0798 20.4298C10.3352 21.0762 10.8713 21.8044 10.8713 22.9998C10.8713 24.1921 10.3308 24.9348 10.0798 25.5699L10.7997 26.2347C11.2427 26.6439 11.5774 27.1171 11.7946 27.6414C11.8805 27.8487 11.9472 28.0645 11.9957 28.2866L7.14177 33.1405L6.66389 32.9639ZM14.0924 26.19C13.8693 25.7439 13.5958 25.3243 13.2732 24.9346C13.468 24.3021 13.5664 23.6545 13.5664 23C13.5664 22.3455 13.468 21.6979 13.2732 21.0654C13.6952 20.5555 14.034 19.9947 14.2845 19.3899C14.535 18.7852 14.692 18.1492 14.754 17.4902C15.3391 17.1806 15.8666 16.7922 16.3294 16.3295C16.7922 15.8667 17.1806 15.3391 17.4901 14.754C18.1491 14.692 18.7851 14.535 19.3897 14.2846C19.9946 14.034 20.5555 13.6953 21.0653 13.2732C22.3304 13.6629 23.6694 13.6629 24.9346 13.2732C25.3243 13.5958 25.7439 13.8693 26.19 14.0923L14.0924 26.19ZM7.06738 37.0267L37.0267 7.06738C37.4825 7.85827 38.1416 8.51755 38.9326 8.97323L8.97332 38.9325C8.51755 38.1416 7.85836 37.4825 7.06738 37.0267ZM32.7268 21.0654C32.532 21.6979 32.4336 22.3456 32.4336 23C32.4336 23.6544 32.532 24.3021 32.7268 24.9346C32.3048 25.4445 31.966 26.0053 31.7155 26.6102C31.465 27.2148 31.308 27.8508 31.246 28.5098C30.6609 28.8194 30.1333 29.2078 29.6706 29.6705C29.2078 30.1333 28.8194 30.6609 28.5099 31.246C27.8509 31.308 27.2149 31.465 26.6103 31.7154C26.0054 31.9659 25.4445 32.3047 24.9347 32.7268C23.6695 32.3371 22.3305 32.3371 21.0654 32.7268C20.6757 32.4042 20.2561 32.1307 19.81 31.9076L31.9076 19.81C32.1307 20.2561 32.4042 20.6757 32.7268 21.0654ZM41.9057 25.9539L41.1889 26.6178L41.597 27.5056C42.0778 28.5512 42.1058 29.6983 41.6761 30.7358C41.2463 31.7733 40.4152 32.5646 39.336 32.9639L38.4196 33.303L38.4571 34.2794C38.5012 35.4293 38.0882 36.4998 37.2941 37.294C36.4999 38.088 35.4293 38.5008 34.2797 38.457L33.3032 38.4195L32.9641 39.336C32.5649 40.4151 31.7735 41.2462 30.7358 41.676C29.6983 42.1057 28.5512 42.0777 27.5057 41.5969L26.6178 41.1888L25.9539 41.9057C25.1307 42.7948 24.054 43.3047 23 43.3047C21.946 43.3047 20.8694 42.7948 20.046 41.9058L19.3821 41.1889L18.4943 41.597C17.4487 42.0778 16.3017 42.1058 15.2642 41.6761C14.2267 41.2464 13.4354 40.4153 13.0361 39.3361L12.8593 38.8584L17.7132 34.0045C17.9353 34.053 18.1511 34.1198 18.3585 34.2057C18.8826 34.4227 19.3559 34.7575 19.7651 35.2005L20.4299 35.9204L21.3197 35.5098C22.4154 35.0044 23.5846 35.0044 24.6803 35.5098L25.5702 35.9204C26.0426 35.4631 26.5371 34.663 27.6416 34.2056C28.7432 33.7493 29.6342 33.9646 30.3189 33.9535C30.5953 33.3158 30.7311 32.4216 31.5765 31.5764C32.4196 30.7333 33.3252 30.5912 33.9535 30.3189C33.9648 29.6239 33.7482 28.746 34.2056 27.6415C34.6627 26.5378 35.4376 26.0688 35.9203 25.5701C35.6666 24.9279 35.1289 24.1955 35.1289 23C35.1289 21.8077 35.6687 21.0667 35.9203 20.4298L35.2004 19.765C34.7574 19.3558 34.4226 18.8826 34.2055 18.3583C34.1196 18.151 34.0529 17.9351 34.0044 17.7131L38.8585 12.8591L39.3361 13.0358C40.4153 13.4351 41.2464 14.2265 41.6762 15.2641C42.1059 16.3016 42.0779 17.4487 41.5971 18.4943L41.189 19.3821L41.9058 20.046C42.7948 20.8695 43.3047 21.9462 43.3047 23C43.3047 24.0538 42.7948 25.1305 41.9057 25.9539Z"/>
</g>

</symbol></svg>