<?xml version="1.0" encoding="utf-8"?>
<!-- Generator: Adobe Illustrator 26.0.2, SVG Export Plug-In . SVG Version: 6.00 Build 0)  -->
<svg version="1.1" id="Layer_1" xmlns="http://www.w3.org/2000/svg" xmlns:xlink="http://www.w3.org/1999/xlink" x="0px" y="0px"
	 viewBox="0 0 15 15" style="enable-background:new 0 0 15 15;" xml:space="preserve">
<style type="text/css">
	.st0{fill:#667CBB;}
</style>
<path class="st0" d="M14.7,6.8c0.3-0.3,0.4-0.7,0.3-1.2c-0.1-0.4-0.5-0.7-0.9-0.8l-3.6-0.6c-0.2,0-0.3-0.1-0.4-0.3L8.5,0.6
	C8.3,0.2,7.9,0,7.5,0c-0.4,0-0.8,0.2-1,0.6L4.9,4.1C4.8,4.2,4.7,4.3,4.6,4.3L0.9,4.9C0.5,4.9,0.2,5.2,0.1,5.6
	c-0.1,0.4,0,0.9,0.3,1.2L3,9.5c0.1,0.1,0.2,0.3,0.1,0.4l-0.6,3.8c-0.1,0.3,0,0.7,0.2,0.9C3,15,3.6,15.1,4,14.9l3.2-1.8
	c0.1-0.1,0.3-0.1,0.4,0l3.2,1.8c0.2,0.1,0.3,0.1,0.5,0.1c0.3,0,0.6-0.1,0.8-0.4c0.2-0.3,0.3-0.6,0.2-0.9l-0.6-3.8
	c0-0.2,0-0.3,0.1-0.4L14.7,6.8z"/>
</svg>
