<svg xmlns="http://www.w3.org/2000/svg" viewBox="0 0 99 16" style="enable-background:new 0 0 99 16" xml:space="preserve"><path d="m14.1 5.2-3.6-.6c-.2 0-.3-.1-.4-.3L8.5.9c-.2-.4-.6-.6-1-.6s-.8.2-1 .6L4.9 4.4c-.1.1-.2.2-.3.2l-3.7.6c-.4.1-.7.4-.8.8-.1.4 0 .9.3 1.2L3 9.8c.1.1.2.3.1.4L2.5 14c-.1.3 0 .7.2.9.3.4.9.5 1.3.3l3.2-1.8c.1-.1.3-.1.4 0l3.2 1.8c.2.1.3.1.5.1.3 0 .6-.1.8-.4.2-.3.3-.6.2-.9l-.6-3.8c0-.2 0-.3.1-.4l2.6-2.7c.6-.3.7-.7.5-1.1-.1-.4-.4-.7-.8-.8zM35.1 5.2l-3.6-.6c-.2 0-.3-.1-.4-.3L29.5.9c-.2-.4-.6-.6-1-.6s-.8.2-1 .6l-1.6 3.4c-.1.1-.2.2-.4.3l-3.6.6c-.4.1-.7.4-.9.8-.1.4 0 .9.3 1.2L24 9.8c.1.1.2.3.1.4l-.6 3.8c-.1.3 0 .7.2.9.3.4.9.5 1.3.3l3.2-1.8c.1-.1.3-.1.4 0l3.2 1.8c.2.1.3.1.5.1.3 0 .6-.1.8-.4.2-.3.3-.6.2-.9l-.6-3.8c0-.2 0-.3.1-.4l2.6-2.7c.6-.3.7-.7.5-1.1-.1-.4-.4-.7-.8-.8zM56.1 5.2l-3.6-.6c-.2 0-.3-.1-.4-.3L50.5.9c-.2-.4-.6-.6-1-.6s-.8.2-1 .6l-1.6 3.4c-.1.1-.2.2-.4.3l-3.6.6c-.4.1-.7.4-.9.8-.1.4 0 .9.3 1.2L45 9.8c.1.1.2.3.1.4l-.6 3.8c-.1.3 0 .7.2.9.3.4.9.5 1.3.3l3.2-1.8c.1-.1.3-.1.4 0l3.2 1.8c.2.1.3.1.5.1.3 0 .6-.1.8-.4.2-.3.3-.6.2-.9l-.6-3.8c0-.2 0-.3.1-.4l2.6-2.7c.6-.3.7-.7.5-1.1-.1-.4-.4-.7-.8-.8zM77.1 5.2l-3.6-.6c-.2 0-.3-.1-.4-.3L71.5.9c-.2-.4-.6-.6-1-.6s-.8.2-1 .6l-1.6 3.4c-.1.1-.2.2-.4.3l-3.6.6c-.4.1-.7.4-.9.8-.1.4 0 .9.3 1.2L66 9.8c.1.1.2.3.1.4l-.6 3.8c-.1.3 0 .7.2.9.3.4.9.5 1.3.3l3.2-1.8c.1-.1.3-.1.4 0l3.2 1.8c.2.1.3.1.5.1.3 0 .6-.1.8-.4.2-.3.3-.6.2-.9l-.6-3.8c0-.2 0-.3.1-.4l2.6-2.7c.6-.3.7-.7.5-1.1-.1-.4-.4-.7-.8-.8zM98.7 7.1c.3-.3.4-.7.2-1.1-.1-.4-.5-.7-.9-.8l-3.6-.6c-.2 0-.3-.1-.4-.3L92.4.9c-.2-.4-.6-.6-1-.6s-.8.2-1 .6l-1.6 3.4c-.1.1-.2.2-.4.3l-3.6.6c-.4.1-.7.4-.9.8-.1.4 0 .9.3 1.2L87 9.8c.1.1.2.3.1.4l-.6 3.8c-.1.3 0 .7.2.9.3.4.9.5 1.3.3l3.2-1.8c.1-.1.3-.1.4 0l3.2 1.8c.2.1.3.1.5.1.3 0 .6-.1.8-.4.2-.3.3-.6.2-.9l-.6-3.8c0-.2 0-.3.1-.4l2.9-2.7z"/></svg>
