<svg width="28" height="28" viewBox="0 0 28 28" fill="none" xmlns="http://www.w3.org/2000/svg">
<path d="M16.73 15.31C17.52 14.24 18 12.93 18 11.5C18 7.91 15.09 5 11.5 5C7.91 5 5 7.91 5 11.5C5 15.09 7.91 18 11.5 18C12.93 18 14.24 17.52 15.31 16.73L20.8844 22.2956C21.2742 22.6847 21.9055 22.6845 22.295 22.295V22.295C22.6845 21.9055 22.6847 21.2742 22.2956 20.8844L16.73 15.31ZM11.5 16C9.01 16 7 13.99 7 11.5C7 9.01 9.01 7 11.5 7C13.99 7 16 9.01 16 11.5C16 13.99 13.99 16 11.5 16Z" fill="black"/>
</svg>
