<svg width="46" height="46" viewBox="0 0 46 46" fill="none" xmlns="http://www.w3.org/2000/svg">
<path d="M3.5 11C1.5633 11 0 12.5633 0 14.5C0 16.4367 1.5633 18 3.5 18C5.4367 18 7 16.4367 7 14.5C7 12.5633 5.4367 11 3.5 11Z" fill="#6682D5"/>
<path d="M3.5 25C1.5633 25 0 26.5633 0 28.5C0 30.4367 1.5633 32 3.5 32C5.4367 32 7 30.4367 7 28.5C7 26.5633 5.4367 25 3.5 25Z" fill="#6682D5"/>
<path d="M3.5 39C1.5633 39 0 40.5633 0 42.5C0 44.4367 1.5633 46 3.5 46C5.4367 46 7 44.4367 7 42.5C7 40.5633 5.4367 39 3.5 39Z" fill="#6682D5"/>
<path d="M45.1895 13H12.1895V16.3H45.1895V13Z" fill="#6682D5"/>
<path d="M45.1895 27H12.1895V30.3H45.1895V27Z" fill="#6682D5"/>
<path d="M34.1895 41H12.1895V44.3H34.1895V41Z" fill="#6682D5"/>
</svg>
